STARTFONT 2.1
FONT -FontForge-Orange Kid-Book-R-Normal--50-480-75-75-P-203-ISO10646-1
SIZE 48 75 75
FONTBOUNDINGBOX 48 59 -7 -11
COMMENT "Generated by fontforge, http://fontforge.sourceforge.net"
COMMENT "(c) 1999-2009 Ray Larabie. See attached license agreement for more information. If EULA is missing, visit www.larabiefonts.com for an updated version of this font."
STARTPROPERTIES 39
FOUNDRY "FontForge"
FAMILY_NAME "Orange Kid"
WEIGHT_NAME "Book"
SLANT "R"
SETWIDTH_NAME "Normal"
ADD_STYLE_NAME ""
PIXEL_SIZE 50
POINT_SIZE 480
RESOLUTION_X 75
RESOLUTION_Y 75
SPACING "P"
AVERAGE_WIDTH 203
CHARSET_REGISTRY "ISO10646"
CHARSET_ENCODING "1"
FONTNAME_REGISTRY ""
CHARSET_COLLECTIONS "ISO8859-2 ISO8859-7 ISO8859-9 ISO8859-4 ISO10646-1"
FONT_NAME "OrangeKid-Regular"
FACE_NAME "OrangeKid-Regular"
COPYRIGHT "(c) 1999-2009 Ray Larabie. See attached license agreement for more information. If EULA is missing, visit www.larabiefonts.com for an updated version of this font."
FONT_VERSION "OTF 4.000;PS 001.001;Core 1.0.29"
FONT_ASCENT 39
FONT_DESCENT 11
UNDERLINE_POSITION -7
UNDERLINE_THICKNESS 1
X_HEIGHT 22
CAP_HEIGHT 29
RAW_ASCENT 778
RAW_DESCENT 222
NORM_SPACE 9
RELATIVE_WEIGHT 40
RELATIVE_SETWIDTH 50
SUPERSCRIPT_X 0
SUPERSCRIPT_Y 15
SUPERSCRIPT_SIZE 15
SUBSCRIPT_X 0
SUBSCRIPT_Y 0
SUBSCRIPT_SIZE 15
AVG_LOWERCASE_WIDTH 189
AVG_UPPERCASE_WIDTH 223
ENDPROPERTIES
CHARS 561
STARTCHAR uni0017
ENCODING 23
SWIDTH 184 0
DWIDTH 9 0
BBX 1 1 0 0
BITMAP
00
ENDCHAR
STARTCHAR space
ENCODING 32
SWIDTH 184 0
DWIDTH 9 0
BBX 1 1 0 0
BITMAP
00
ENDCHAR
STARTCHAR exclam
ENCODING 33
SWIDTH 186 0
DWIDTH 9 0
BBX 4 30 3 0
BITMAP
F0
F0
F0
F0
F0
F0
F0
F0
F0
F0
F0
F0
F0
F0
F0
F0
F0
F0
F0
F0
F0
F0
F0
00
00
00
F0
F0
F0
F0
ENDCHAR
STARTCHAR quotedbl
ENCODING 34
SWIDTH 284 0
DWIDTH 14 0
BBX 11 12 2 22
BITMAP
F1E0
F1E0
F1E0
F1E0
F1E0
F1E0
F1E0
F1E0
F1E0
F1E0
F1E0
F1E0
ENDCHAR
STARTCHAR numbersign
ENCODING 35
SWIDTH 456 0
DWIDTH 23 0
BBX 19 19 2 7
BITMAP
0F1E00
0F1E00
0F1E00
FFFFE0
FFFFE0
FFFFE0
FFFFE0
FFFFE0
0F1E00
0F1E00
0F1E00
FFFFE0
FFFFE0
FFFFE0
FFFFE0
0F1E00
0F1E00
0F1E00
0F1E00
ENDCHAR
STARTCHAR dollar
ENCODING 36
SWIDTH 456 0
DWIDTH 23 0
BBX 19 37 2 -7
BITMAP
01E000
01E000
01E000
01E000
0FFE00
0FFE00
0FFE00
FFFFE0
F1E1E0
F1E1E0
F1E1E0
FFE1E0
0FE000
0FE000
0FE000
01FE00
01FE00
01FE00
01FE00
F1E1E0
F1E1E0
F1E1E0
F1E1E0
F1E1E0
F1E1E0
F1E1E0
0FFE00
0FFE00
0FFE00
0FFE00
01E000
01E000
01E000
01E000
01E000
01E000
01E000
ENDCHAR
STARTCHAR percent
ENCODING 37
SWIDTH 752 0
DWIDTH 38 0
BBX 34 26 2 0
BITMAP
0FF003C000
0FF003C000
0FF003C000
FFFE3FC000
F01E3E0000
F01E3E0000
F01E3E0000
F01E3E0000
F01E3E0000
F01E3E0000
F01E3E0000
0FE1E3FC00
0FE1E3FC00
0FE1E3FC00
0FE1E3FC00
001E3E03C0
001E3E03C0
001E3E03C0
001E3E03C0
001E3E03C0
001E3E03C0
001E3E03C0
01E003FC00
01E003FC00
01E003FC00
01E003FC00
ENDCHAR
STARTCHAR ampersand
ENCODING 38
SWIDTH 530 0
DWIDTH 27 0
BBX 23 30 2 0
BITMAP
0FE000
0FE000
0FE000
0FE000
F01E00
F01E00
F01E00
F01E00
F01E00
F01E00
F01E00
FFFE3E
0FE03E
0FE03E
0FE03E
F01E3E
F01E3E
F01E3E
F01E3E
F001E0
F001E0
F001E0
F01FFE
F01E3E
F01E3E
F01E3E
0FE03E
0FE03E
0FE03E
0FE03E
ENDCHAR
STARTCHAR quotesingle
ENCODING 39
SWIDTH 142 0
DWIDTH 7 0
BBX 4 12 2 22
BITMAP
F0
F0
F0
F0
F0
F0
F0
F0
F0
F0
F0
F0
ENDCHAR
STARTCHAR parenleft
ENCODING 40
SWIDTH 326 0
DWIDTH 16 0
BBX 11 44 3 -7
BITMAP
01E0
01E0
01E0
0FE0
0F00
0F00
0F00
0F00
0F00
0F00
0F00
F000
F000
F000
F000
F000
F000
F000
F000
F000
F000
F000
F000
F000
F000
F000
F000
F000
F000
F000
F000
F000
F000
0F00
0F00
0F00
0F00
0F00
0F00
0F00
0FE0
01E0
01E0
01E0
ENDCHAR
STARTCHAR parenright
ENCODING 41
SWIDTH 341 0
DWIDTH 17 0
BBX 11 44 2 -7
BITMAP
F000
F000
F000
FF00
0F00
0F00
0F00
0F00
0F00
0F00
0F00
01E0
01E0
01E0
01E0
01E0
01E0
01E0
01E0
01E0
01E0
01E0
01E0
01E0
01E0
01E0
01E0
01E0
01E0
01E0
01E0
01E0
01E0
0F00
0F00
0F00
0F00
0F00
0F00
0F00
FF00
F000
F000
F000
ENDCHAR
STARTCHAR asterisk
ENCODING 42
SWIDTH 308 0
DWIDTH 15 0
BBX 11 12 2 7
BITMAP
F1E0
F1E0
F1E0
F1E0
0F00
0F00
0F00
0F00
F1E0
F1E0
F1E0
F1E0
ENDCHAR
STARTCHAR plus
ENCODING 43
SWIDTH 456 0
DWIDTH 23 0
BBX 19 19 2 4
BITMAP
01E000
01E000
01E000
01E000
01E000
01E000
01E000
01E000
FFFFE0
FFFFE0
FFFFE0
FFFFE0
01E000
01E000
01E000
01E000
01E000
01E000
01E000
ENDCHAR
STARTCHAR comma
ENCODING 44
SWIDTH 234 0
DWIDTH 12 0
BBX 8 11 2 -7
BITMAP
0F
0F
0F
0F
0F
0F
0F
FF
F0
F0
F0
ENDCHAR
STARTCHAR hyphen
ENCODING 45
SWIDTH 279 0
DWIDTH 14 0
BBX 12 4 1 11
BITMAP
FFF0
FFF0
FFF0
FFF0
ENDCHAR
STARTCHAR period
ENCODING 46
SWIDTH 160 0
DWIDTH 8 0
BBX 4 4 2 0
BITMAP
F0
F0
F0
F0
ENDCHAR
STARTCHAR slash
ENCODING 47
SWIDTH 382 0
DWIDTH 19 0
BBX 15 30 2 0
BITMAP
001E
001E
001E
001E
001E
001E
001E
01FE
01E0
01E0
01E0
01E0
01E0
01E0
01E0
0F00
0F00
0F00
0F00
0F00
0F00
0F00
FF00
F000
F000
F000
F000
F000
F000
F000
ENDCHAR
STARTCHAR zero
ENCODING 48
SWIDTH 382 0
DWIDTH 19 0
BBX 15 30 2 0
BITMAP
0FE0
0FE0
0FE0
0FE0
F01E
F01E
F01E
F01E
F01E
F01E
F01E
F01E
F01E
F01E
F01E
F01E
F01E
F01E
F01E
F01E
F01E
F01E
F01E
F01E
F01E
F01E
0FE0
0FE0
0FE0
0FE0
ENDCHAR
STARTCHAR one
ENCODING 49
SWIDTH 234 0
DWIDTH 12 0
BBX 8 30 2 0
BITMAP
0F
0F
0F
0F
FF
FF
FF
FF
0F
0F
0F
0F
0F
0F
0F
0F
0F
0F
0F
0F
0F
0F
0F
0F
0F
0F
0F
0F
0F
0F
ENDCHAR
STARTCHAR two
ENCODING 50
SWIDTH 382 0
DWIDTH 19 0
BBX 15 30 2 0
BITMAP
0FE0
0FE0
0FE0
0FE0
F01E
F01E
F01E
F01E
001E
001E
001E
01FE
01E0
01E0
01E0
0F00
0F00
0F00
0F00
0F00
0F00
0F00
FF00
F000
F000
F000
FFFE
FFFE
FFFE
FFFE
ENDCHAR
STARTCHAR three
ENCODING 51
SWIDTH 382 0
DWIDTH 19 0
BBX 15 30 2 0
BITMAP
0FE0
0FE0
0FE0
0FE0
F01E
F01E
F01E
F01E
001E
001E
001E
0FFE
0FE0
0FE0
0FE0
001E
001E
001E
001E
001E
001E
001E
F01E
F01E
F01E
F01E
0FE0
0FE0
0FE0
0FE0
ENDCHAR
STARTCHAR four
ENCODING 52
SWIDTH 434 0
DWIDTH 22 0
BBX 18 30 2 0
BITMAP
001E00
001E00
001E00
001E00
01FE00
01FE00
01FE00
1FFE00
1E1E00
1E1E00
1E1E00
1E1E00
1E1E00
1E1E00
1E1E00
F01E00
F01E00
F01E00
F01E00
FFFFC0
FFFFC0
FFFFC0
FFFFC0
001E00
001E00
001E00
001E00
001E00
001E00
001E00
ENDCHAR
STARTCHAR five
ENCODING 53
SWIDTH 382 0
DWIDTH 19 0
BBX 15 30 2 0
BITMAP
FFFE
FFFE
FFFE
FFFE
F000
F000
F000
FFE0
FFE0
FFE0
FFE0
FFFE
001E
001E
001E
001E
001E
001E
001E
F01E
F01E
F01E
F01E
F01E
F01E
F01E
0FE0
0FE0
0FE0
0FE0
ENDCHAR
STARTCHAR six
ENCODING 54
SWIDTH 382 0
DWIDTH 19 0
BBX 15 30 2 0
BITMAP
0FE0
0FE0
0FE0
0FE0
F000
F000
F000
FFE0
FFE0
FFE0
FFE0
FFFE
F01E
F01E
F01E
F01E
F01E
F01E
F01E
F01E
F01E
F01E
F01E
F01E
F01E
F01E
0FE0
0FE0
0FE0
0FE0
ENDCHAR
STARTCHAR seven
ENCODING 55
SWIDTH 382 0
DWIDTH 19 0
BBX 15 30 2 0
BITMAP
FFFE
FFFE
FFFE
FFFE
001E
001E
001E
01FE
01E0
01E0
01E0
01E0
01E0
01E0
01E0
01E0
01E0
01E0
01E0
0F00
0F00
0F00
0F00
0F00
0F00
0F00
0F00
0F00
0F00
0F00
ENDCHAR
STARTCHAR eight
ENCODING 56
SWIDTH 382 0
DWIDTH 19 0
BBX 15 30 2 0
BITMAP
0FE0
0FE0
0FE0
0FE0
F01E
F01E
F01E
F01E
F01E
F01E
F01E
FFFE
0FE0
0FE0
0FE0
F01E
F01E
F01E
F01E
F01E
F01E
F01E
F01E
F01E
F01E
F01E
0FE0
0FE0
0FE0
0FE0
ENDCHAR
STARTCHAR nine
ENCODING 57
SWIDTH 382 0
DWIDTH 19 0
BBX 15 30 2 0
BITMAP
0FE0
0FE0
0FE0
0FE0
F01E
F01E
F01E
F01E
F01E
F01E
F01E
F01E
F01E
F01E
F01E
0FFE
0FFE
0FFE
0FFE
001E
001E
001E
F01E
F01E
F01E
F01E
0FE0
0FE0
0FE0
0FE0
ENDCHAR
STARTCHAR colon
ENCODING 58
SWIDTH 160 0
DWIDTH 8 0
BBX 4 19 2 0
BITMAP
F0
F0
F0
F0
00
00
00
00
00
00
00
00
00
00
00
F0
F0
F0
F0
ENDCHAR
STARTCHAR semicolon
ENCODING 59
SWIDTH 234 0
DWIDTH 12 0
BBX 8 26 2 -7
BITMAP
0F
0F
0F
0F
00
00
00
00
00
00
00
00
00
00
00
0F
0F
0F
0F
0F
0F
0F
FF
F0
F0
F0
ENDCHAR
STARTCHAR less
ENCODING 60
SWIDTH 308 0
DWIDTH 15 0
BBX 11 19 2 4
BITMAP
01E0
01E0
01E0
01E0
0FE0
0F00
0F00
0F00
F000
F000
F000
F000
0F00
0F00
0F00
0FE0
01E0
01E0
01E0
ENDCHAR
STARTCHAR equal
ENCODING 61
SWIDTH 456 0
DWIDTH 23 0
BBX 19 12 2 7
BITMAP
FFFFE0
FFFFE0
FFFFE0
FFFFE0
000000
000000
000000
000000
FFFFE0
FFFFE0
FFFFE0
FFFFE0
ENDCHAR
STARTCHAR greater
ENCODING 62
SWIDTH 308 0
DWIDTH 15 0
BBX 11 19 2 4
BITMAP
F000
F000
F000
F000
FF00
0F00
0F00
0F00
01E0
01E0
01E0
01E0
0F00
0F00
0F00
FF00
F000
F000
F000
ENDCHAR
STARTCHAR question
ENCODING 63
SWIDTH 382 0
DWIDTH 19 0
BBX 15 30 2 0
BITMAP
0FE0
0FE0
0FE0
0FE0
F01E
F01E
F01E
F01E
F01E
F01E
F01E
F1FE
01E0
01E0
01E0
0F00
0F00
0F00
0F00
0F00
0F00
0F00
0F00
0000
0000
0000
0F00
0F00
0F00
0F00
ENDCHAR
STARTCHAR at
ENCODING 64
SWIDTH 604 0
DWIDTH 30 0
BBX 26 30 2 0
BITMAP
0FFFFE00
0FFFFE00
0FFFFE00
0FFFFE00
F00003C0
F00003C0
F00003C0
F01E03C0
F01E03C0
F01E03C0
F01E03C0
F1FFE3C0
F1E1E3C0
F1E1E3C0
F1E1E3C0
F1E1E3C0
F1E1E3C0
F1E1E3C0
F1E1E3C0
F01FFE00
F01FFE00
F01FFE00
FF1FFE00
0F000000
0F000000
0F000000
01FFFE00
01FFFE00
01FFFE00
01FFFE00
ENDCHAR
STARTCHAR A
ENCODING 65
SWIDTH 530 0
DWIDTH 27 0
BBX 23 30 2 0
BITMAP
01FE00
01FE00
01FE00
01FE00
01FE00
01FE00
01FE00
0FFFE0
0F01E0
0F01E0
0F01E0
0F01E0
0F01E0
0F01E0
0F01E0
0FFFE0
0FFFE0
0FFFE0
0FFFE0
F0003E
F0003E
F0003E
F0003E
F0003E
F0003E
F0003E
F0003E
F0003E
F0003E
F0003E
ENDCHAR
STARTCHAR B
ENCODING 66
SWIDTH 456 0
DWIDTH 23 0
BBX 19 30 2 0
BITMAP
FFFE00
FFFE00
FFFE00
FFFE00
F001E0
F001E0
F001E0
F001E0
F001E0
F001E0
F001E0
FFFFE0
FFFE00
FFFE00
FFFE00
F001E0
F001E0
F001E0
F001E0
F001E0
F001E0
F001E0
F001E0
F001E0
F001E0
F001E0
FFFE00
FFFE00
FFFE00
FFFE00
ENDCHAR
STARTCHAR C
ENCODING 67
SWIDTH 456 0
DWIDTH 23 0
BBX 19 30 2 0
BITMAP
0FFE00
0FFE00
0FFE00
0FFE00
F001E0
F001E0
F001E0
F001E0
F00000
F00000
F00000
F00000
F00000
F00000
F00000
F00000
F00000
F00000
F00000
F00000
F00000
F00000
F001E0
F001E0
F001E0
F001E0
0FFE00
0FFE00
0FFE00
0FFE00
ENDCHAR
STARTCHAR D
ENCODING 68
SWIDTH 456 0
DWIDTH 23 0
BBX 19 30 2 0
BITMAP
FFE000
FFE000
FFE000
FFE000
F01E00
F01E00
F01E00
F01FE0
F001E0
F001E0
F001E0
F001E0
F001E0
F001E0
F001E0
F001E0
F001E0
F001E0
F001E0
F001E0
F001E0
F001E0
F01FE0
F01E00
F01E00
F01E00
FFE000
FFE000
FFE000
FFE000
ENDCHAR
STARTCHAR E
ENCODING 69
SWIDTH 377 0
DWIDTH 19 0
BBX 15 30 2 0
BITMAP
FFFE
FFFE
FFFE
FFFE
F000
F000
F000
F000
F000
F000
F000
FFFE
FFFE
FFFE
FFFE
F000
F000
F000
F000
F000
F000
F000
F000
F000
F000
F000
FFFE
FFFE
FFFE
FFFE
ENDCHAR
STARTCHAR F
ENCODING 70
SWIDTH 360 0
DWIDTH 18 0
BBX 15 30 2 0
BITMAP
FFFE
FFFE
FFFE
FFFE
F000
F000
F000
F000
F000
F000
F000
FFE0
FFE0
FFE0
FFE0
F000
F000
F000
F000
F000
F000
F000
F000
F000
F000
F000
F000
F000
F000
F000
ENDCHAR
STARTCHAR G
ENCODING 71
SWIDTH 456 0
DWIDTH 23 0
BBX 19 30 2 0
BITMAP
0FFE00
0FFE00
0FFE00
0FFE00
F001E0
F001E0
F001E0
F001E0
F00000
F00000
F00000
F1FFE0
F1FFE0
F1FFE0
F1FFE0
F001E0
F001E0
F001E0
F001E0
F001E0
F001E0
F001E0
F01FE0
F01FE0
F01FE0
F01FE0
0FE1E0
0FE1E0
0FE1E0
0FE1E0
ENDCHAR
STARTCHAR H
ENCODING 72
SWIDTH 456 0
DWIDTH 23 0
BBX 19 30 2 0
BITMAP
F001E0
F001E0
F001E0
F001E0
F001E0
F001E0
F001E0
F001E0
F001E0
F001E0
F001E0
FFFFE0
FFFFE0
FFFFE0
FFFFE0
F001E0
F001E0
F001E0
F001E0
F001E0
F001E0
F001E0
F001E0
F001E0
F001E0
F001E0
F001E0
F001E0
F001E0
F001E0
ENDCHAR
STARTCHAR I
ENCODING 73
SWIDTH 160 0
DWIDTH 8 0
BBX 4 30 2 0
BITMAP
F0
F0
F0
F0
F0
F0
F0
F0
F0
F0
F0
F0
F0
F0
F0
F0
F0
F0
F0
F0
F0
F0
F0
F0
F0
F0
F0
F0
F0
F0
ENDCHAR
STARTCHAR J
ENCODING 74
SWIDTH 368 0
DWIDTH 18 0
BBX 15 30 1 0
BITMAP
001E
001E
001E
001E
001E
001E
001E
001E
001E
001E
001E
001E
001E
001E
001E
001E
001E
001E
001E
F01E
F01E
F01E
F01E
F01E
F01E
F01E
0FF0
0FF0
0FF0
0FF0
ENDCHAR
STARTCHAR K
ENCODING 75
SWIDTH 438 0
DWIDTH 22 0
BBX 19 30 2 0
BITMAP
F01E00
F01E00
F01E00
F01E00
F1E000
F1E000
F1E000
FFE000
FF0000
FF0000
FF0000
FFE000
F1E000
F1E000
F1E000
F1E000
F1E000
F1E000
F1E000
F01E00
F01E00
F01E00
F01E00
F01E00
F01E00
F01E00
F001E0
F001E0
F001E0
F001E0
ENDCHAR
STARTCHAR L
ENCODING 76
SWIDTH 355 0
DWIDTH 18 0
BBX 15 30 2 0
BITMAP
F000
F000
F000
F000
F000
F000
F000
F000
F000
F000
F000
F000
F000
F000
F000
F000
F000
F000
F000
F000
F000
F000
F000
F000
F000
F000
FFFE
FFFE
FFFE
FFFE
ENDCHAR
STARTCHAR M
ENCODING 77
SWIDTH 604 0
DWIDTH 30 0
BBX 26 30 2 0
BITMAP
F00003C0
F00003C0
F00003C0
F00003C0
F00003C0
F00003C0
F00003C0
FF003FC0
FF003FC0
FF003FC0
FF003FC0
FF003FC0
FF003FC0
FF003FC0
FF003FC0
F1E1E3C0
F1E1E3C0
F1E1E3C0
F1E1E3C0
F1E1E3C0
F1E1E3C0
F1E1E3C0
F1FFE3C0
F01E03C0
F01E03C0
F01E03C0
F01E03C0
F01E03C0
F01E03C0
F01E03C0
ENDCHAR
STARTCHAR N
ENCODING 78
SWIDTH 456 0
DWIDTH 23 0
BBX 19 30 2 0
BITMAP
F001E0
F001E0
F001E0
F001E0
FF01E0
FF01E0
FF01E0
FF01E0
FF01E0
FF01E0
FF01E0
FFE1E0
F1E1E0
F1E1E0
F1E1E0
F1E1E0
F1E1E0
F1E1E0
F1E1E0
F01FE0
F01FE0
F01FE0
F01FE0
F01FE0
F01FE0
F01FE0
F001E0
F001E0
F001E0
F001E0
ENDCHAR
STARTCHAR O
ENCODING 79
SWIDTH 456 0
DWIDTH 23 0
BBX 19 30 2 0
BITMAP
0FFE00
0FFE00
0FFE00
0FFE00
F001E0
F001E0
F001E0
F001E0
F001E0
F001E0
F001E0
F001E0
F001E0
F001E0
F001E0
F001E0
F001E0
F001E0
F001E0
F001E0
F001E0
F001E0
F001E0
F001E0
F001E0
F001E0
0FFE00
0FFE00
0FFE00
0FFE00
ENDCHAR
STARTCHAR P
ENCODING 80
SWIDTH 456 0
DWIDTH 23 0
BBX 19 30 2 0
BITMAP
FFFE00
FFFE00
FFFE00
FFFE00
F001E0
F001E0
F001E0
F001E0
F001E0
F001E0
F001E0
FFFFE0
FFFE00
FFFE00
FFFE00
F00000
F00000
F00000
F00000
F00000
F00000
F00000
F00000
F00000
F00000
F00000
F00000
F00000
F00000
F00000
ENDCHAR
STARTCHAR Q
ENCODING 81
SWIDTH 456 0
DWIDTH 23 0
BBX 19 30 2 0
BITMAP
0FFE00
0FFE00
0FFE00
0FFE00
F001E0
F001E0
F001E0
F001E0
F001E0
F001E0
F001E0
F001E0
F001E0
F001E0
F001E0
F001E0
F001E0
F001E0
F001E0
F1E1E0
F1E1E0
F1E1E0
F1FFE0
F01E00
F01E00
F01E00
0FE1E0
0FE1E0
0FE1E0
0FE1E0
ENDCHAR
STARTCHAR R
ENCODING 82
SWIDTH 456 0
DWIDTH 23 0
BBX 19 30 2 0
BITMAP
FFFE00
FFFE00
FFFE00
FFFE00
F001E0
F001E0
F001E0
F001E0
F001E0
F001E0
F001E0
FFFFE0
FFFE00
FFFE00
FFFE00
F01E00
F01E00
F01E00
F01E00
F01E00
F01E00
F01E00
F01FE0
F001E0
F001E0
F001E0
F001E0
F001E0
F001E0
F001E0
ENDCHAR
STARTCHAR S
ENCODING 83
SWIDTH 456 0
DWIDTH 23 0
BBX 19 30 2 0
BITMAP
0FFE00
0FFE00
0FFE00
0FFE00
F001E0
F001E0
F001E0
F001E0
F00000
F00000
F00000
FFFE00
0FFE00
0FFE00
0FFE00
0001E0
0001E0
0001E0
0001E0
F001E0
F001E0
F001E0
F001E0
F001E0
F001E0
F001E0
0FFE00
0FFE00
0FFE00
0FFE00
ENDCHAR
STARTCHAR T
ENCODING 84
SWIDTH 409 0
DWIDTH 20 0
BBX 19 30 1 0
BITMAP
FFFFE0
FFFFE0
FFFFE0
FFFFE0
01E000
01E000
01E000
01E000
01E000
01E000
01E000
01E000
01E000
01E000
01E000
01E000
01E000
01E000
01E000
01E000
01E000
01E000
01E000
01E000
01E000
01E000
01E000
01E000
01E000
01E000
ENDCHAR
STARTCHAR U
ENCODING 85
SWIDTH 456 0
DWIDTH 23 0
BBX 19 30 2 0
BITMAP
F001E0
F001E0
F001E0
F001E0
F001E0
F001E0
F001E0
F001E0
F001E0
F001E0
F001E0
F001E0
F001E0
F001E0
F001E0
F001E0
F001E0
F001E0
F001E0
F001E0
F001E0
F001E0
F001E0
F001E0
F001E0
F001E0
0FFE00
0FFE00
0FFE00
0FFE00
ENDCHAR
STARTCHAR V
ENCODING 86
SWIDTH 530 0
DWIDTH 27 0
BBX 23 30 2 0
BITMAP
F0003E
F0003E
F0003E
F0003E
F0003E
F0003E
F0003E
F0003E
F0003E
F0003E
F0003E
FF01FE
0F01E0
0F01E0
0F01E0
0F01E0
0F01E0
0F01E0
0F01E0
0F01E0
0F01E0
0F01E0
0FFFE0
01FE00
01FE00
01FE00
01FE00
01FE00
01FE00
01FE00
ENDCHAR
STARTCHAR W
ENCODING 87
SWIDTH 604 0
DWIDTH 30 0
BBX 26 30 2 0
BITMAP
F01E03C0
F01E03C0
F01E03C0
F01E03C0
F01E03C0
F01E03C0
F01E03C0
F01E03C0
F01E03C0
F01E03C0
F01E03C0
FF1E3FC0
0F1E3E00
0F1E3E00
0F1E3E00
0F1E3E00
0F1E3E00
0F1E3E00
0F1E3E00
0F1E3E00
0F1E3E00
0F1E3E00
0FFFFE00
01E1E000
01E1E000
01E1E000
01E1E000
01E1E000
01E1E000
01E1E000
ENDCHAR
STARTCHAR X
ENCODING 88
SWIDTH 456 0
DWIDTH 23 0
BBX 19 30 2 0
BITMAP
F001E0
F001E0
F001E0
F001E0
0F1E00
0F1E00
0F1E00
0F1E00
0F1E00
0F1E00
0F1E00
0FFE00
01E000
01E000
01E000
0F1E00
0F1E00
0F1E00
0F1E00
0F1E00
0F1E00
0F1E00
FF1FE0
F001E0
F001E0
F001E0
F001E0
F001E0
F001E0
F001E0
ENDCHAR
STARTCHAR Y
ENCODING 89
SWIDTH 456 0
DWIDTH 23 0
BBX 19 30 2 0
BITMAP
F001E0
F001E0
F001E0
F001E0
0F1E00
0F1E00
0F1E00
0F1E00
0F1E00
0F1E00
0F1E00
0FFE00
01E000
01E000
01E000
01E000
01E000
01E000
01E000
01E000
01E000
01E000
01E000
01E000
01E000
01E000
01E000
01E000
01E000
01E000
ENDCHAR
STARTCHAR Z
ENCODING 90
SWIDTH 382 0
DWIDTH 19 0
BBX 15 30 2 0
BITMAP
FFFE
FFFE
FFFE
FFFE
001E
001E
001E
01FE
01E0
01E0
01E0
01E0
01E0
01E0
01E0
0F00
0F00
0F00
0F00
0F00
0F00
0F00
FF00
F000
F000
F000
FFFE
FFFE
FFFE
FFFE
ENDCHAR
STARTCHAR bracketleft
ENCODING 91
SWIDTH 234 0
DWIDTH 12 0
BBX 8 30 2 0
BITMAP
FF
FF
FF
FF
F0
F0
F0
F0
F0
F0
F0
F0
F0
F0
F0
F0
F0
F0
F0
F0
F0
F0
F0
F0
F0
F0
FF
FF
FF
FF
ENDCHAR
STARTCHAR backslash
ENCODING 92
SWIDTH 382 0
DWIDTH 19 0
BBX 15 30 2 0
BITMAP
F000
F000
F000
F000
F000
F000
F000
FF00
0F00
0F00
0F00
0F00
0F00
0F00
0F00
01E0
01E0
01E0
01E0
01E0
01E0
01E0
01FE
001E
001E
001E
001E
001E
001E
001E
ENDCHAR
STARTCHAR bracketright
ENCODING 93
SWIDTH 234 0
DWIDTH 12 0
BBX 8 30 2 0
BITMAP
FF
FF
FF
FF
0F
0F
0F
0F
0F
0F
0F
0F
0F
0F
0F
0F
0F
0F
0F
0F
0F
0F
0F
0F
0F
0F
FF
FF
FF
FF
ENDCHAR
STARTCHAR asciicircum
ENCODING 94
SWIDTH 456 0
DWIDTH 23 0
BBX 19 11 2 15
BITMAP
01E000
01E000
01E000
0FFE00
0F1E00
0F1E00
0F1E00
FF1FE0
F001E0
F001E0
F001E0
ENDCHAR
STARTCHAR underscore
ENCODING 95
SWIDTH 456 0
DWIDTH 23 0
BBX 19 4 2 -4
BITMAP
FFFFE0
FFFFE0
FFFFE0
FFFFE0
ENDCHAR
STARTCHAR grave
ENCODING 96
SWIDTH 234 0
DWIDTH 12 0
BBX 8 8 3 26
BITMAP
F8
F8
F8
F8
0F
0F
0F
0F
ENDCHAR
STARTCHAR a
ENCODING 97
SWIDTH 442 0
DWIDTH 22 0
BBX 18 23 2 0
BITMAP
1FE000
1FE000
1FE000
1FE000
1FFE00
001E00
001E00
001E00
1FFE00
1FFE00
1FFE00
1FFE00
F01E00
F01E00
F01E00
F01E00
F01E00
F01E00
F01E00
1FE3C0
1FE3C0
1FE3C0
1FE3C0
ENDCHAR
STARTCHAR b
ENCODING 98
SWIDTH 378 0
DWIDTH 19 0
BBX 15 30 2 0
BITMAP
F000
F000
F000
F000
F000
F000
F000
FFE0
FFE0
FFE0
FFE0
FFFE
F01E
F01E
F01E
F01E
F01E
F01E
F01E
F01E
F01E
F01E
F01E
F01E
F01E
F01E
FFE0
FFE0
FFE0
FFE0
ENDCHAR
STARTCHAR c
ENCODING 99
SWIDTH 375 0
DWIDTH 19 0
BBX 15 23 2 0
BITMAP
0FE0
0FE0
0FE0
0FE0
FFFE
F01E
F01E
F01E
F000
F000
F000
F000
F000
F000
F000
F01E
F01E
F01E
F01E
0FE0
0FE0
0FE0
0FE0
ENDCHAR
STARTCHAR d
ENCODING 100
SWIDTH 378 0
DWIDTH 19 0
BBX 15 30 2 0
BITMAP
001E
001E
001E
001E
001E
001E
001E
1FFE
1FFE
1FFE
1FFE
FFFE
F01E
F01E
F01E
F01E
F01E
F01E
F01E
F01E
F01E
F01E
F01E
F01E
F01E
F01E
1FFE
1FFE
1FFE
1FFE
ENDCHAR
STARTCHAR e
ENCODING 101
SWIDTH 382 0
DWIDTH 19 0
BBX 15 23 2 0
BITMAP
0FE0
0FE0
0FE0
0FE0
FFFE
F01E
F01E
F01E
FFFE
FFFE
FFFE
FFFE
F000
F000
F000
F01E
F01E
F01E
F01E
0FE0
0FE0
0FE0
0FE0
ENDCHAR
STARTCHAR f
ENCODING 102
SWIDTH 295 0
DWIDTH 15 0
BBX 11 30 2 0
BITMAP
01E0
01E0
01E0
01E0
0F00
0F00
0F00
FFE0
FFE0
FFE0
FFE0
FFE0
0F00
0F00
0F00
0F00
0F00
0F00
0F00
0F00
0F00
0F00
0F00
0F00
0F00
0F00
0F00
0F00
0F00
0F00
ENDCHAR
STARTCHAR g
ENCODING 103
SWIDTH 378 0
DWIDTH 19 0
BBX 15 34 2 -11
BITMAP
1FFE
1FFE
1FFE
1FFE
FFFE
F01E
F01E
F01E
F01E
F01E
F01E
F01E
F01E
F01E
F01E
F01E
F01E
F01E
F01E
1FFE
1FFE
1FFE
1FFE
001E
001E
001E
F01E
F01E
F01E
F01E
1FE0
1FE0
1FE0
1FE0
ENDCHAR
STARTCHAR h
ENCODING 104
SWIDTH 380 0
DWIDTH 19 0
BBX 15 30 2 0
BITMAP
F000
F000
F000
F000
F000
F000
F000
FFE0
FFE0
FFE0
FFE0
FFFE
F01E
F01E
F01E
F01E
F01E
F01E
F01E
F01E
F01E
F01E
F01E
F01E
F01E
F01E
F01E
F01E
F01E
F01E
ENDCHAR
STARTCHAR i
ENCODING 105
SWIDTH 170 0
DWIDTH 9 0
BBX 4 30 2 0
BITMAP
F0
F0
F0
F0
00
00
00
F0
F0
F0
F0
F0
F0
F0
F0
F0
F0
F0
F0
F0
F0
F0
F0
F0
F0
F0
F0
F0
F0
F0
ENDCHAR
STARTCHAR j
ENCODING 106
SWIDTH 206 0
DWIDTH 10 0
BBX 7 41 1 -11
BITMAP
1E
1E
1E
1E
00
00
00
1E
1E
1E
1E
1E
1E
1E
1E
1E
1E
1E
1E
1E
1E
1E
1E
1E
1E
1E
1E
1E
1E
1E
1E
1E
1E
1E
1E
1E
1E
F0
F0
F0
F0
ENDCHAR
STARTCHAR k
ENCODING 107
SWIDTH 375 0
DWIDTH 19 0
BBX 15 30 2 0
BITMAP
F000
F000
F000
F000
F000
F000
F000
F01E
F01E
F01E
F01E
F1FE
F1E0
F1E0
F1E0
FF00
FF00
FF00
FF00
FF00
FF00
FF00
FFE0
F1E0
F1E0
F1E0
F01E
F01E
F01E
F01E
ENDCHAR
STARTCHAR l
ENCODING 108
SWIDTH 160 0
DWIDTH 8 0
BBX 4 30 2 0
BITMAP
F0
F0
F0
F0
F0
F0
F0
F0
F0
F0
F0
F0
F0
F0
F0
F0
F0
F0
F0
F0
F0
F0
F0
F0
F0
F0
F0
F0
F0
F0
ENDCHAR
STARTCHAR m
ENCODING 109
SWIDTH 602 0
DWIDTH 30 0
BBX 26 23 2 0
BITMAP
FFE1FE00
FFE1FE00
FFE1FE00
FFE1FE00
FFFFFFC0
F01E03C0
F01E03C0
F01E03C0
F01E03C0
F01E03C0
F01E03C0
F01E03C0
F01E03C0
F01E03C0
F01E03C0
F01E03C0
F01E03C0
F01E03C0
F01E03C0
F01E03C0
F01E03C0
F01E03C0
F01E03C0
ENDCHAR
STARTCHAR n
ENCODING 110
SWIDTH 380 0
DWIDTH 19 0
BBX 15 23 2 0
BITMAP
FFE0
FFE0
FFE0
FFE0
FFFE
F01E
F01E
F01E
F01E
F01E
F01E
F01E
F01E
F01E
F01E
F01E
F01E
F01E
F01E
F01E
F01E
F01E
F01E
ENDCHAR
STARTCHAR o
ENCODING 111
SWIDTH 373 0
DWIDTH 19 0
BBX 15 23 2 0
BITMAP
1FE0
1FE0
1FE0
1FE0
FFFE
F01E
F01E
F01E
F01E
F01E
F01E
F01E
F01E
F01E
F01E
F01E
F01E
F01E
F01E
1FE0
1FE0
1FE0
1FE0
ENDCHAR
STARTCHAR p
ENCODING 112
SWIDTH 375 0
DWIDTH 19 0
BBX 15 34 2 -11
BITMAP
FFE0
FFE0
FFE0
FFE0
FFFE
F01E
F01E
F01E
F01E
F01E
F01E
F01E
F01E
F01E
F01E
F01E
F01E
F01E
F01E
FFE0
FFE0
FFE0
FFE0
F000
F000
F000
F000
F000
F000
F000
F000
F000
F000
F000
ENDCHAR
STARTCHAR q
ENCODING 113
SWIDTH 375 0
DWIDTH 19 0
BBX 15 34 2 -11
BITMAP
1FFE
1FFE
1FFE
1FFE
FFFE
F01E
F01E
F01E
F01E
F01E
F01E
F01E
F01E
F01E
F01E
F01E
F01E
F01E
F01E
1FFE
1FFE
1FFE
1FFE
001E
001E
001E
001E
001E
001E
001E
001E
001E
001E
001E
ENDCHAR
STARTCHAR r
ENCODING 114
SWIDTH 292 0
DWIDTH 15 0
BBX 11 23 2 0
BITMAP
F1E0
F1E0
F1E0
F1E0
FFE0
FF00
FF00
FF00
F000
F000
F000
F000
F000
F000
F000
F000
F000
F000
F000
F000
F000
F000
F000
ENDCHAR
STARTCHAR s
ENCODING 115
SWIDTH 372 0
DWIDTH 19 0
BBX 15 23 2 0
BITMAP
0FE0
0FE0
0FE0
0FE0
FFE0
F000
F000
F000
0FE0
0FE0
0FE0
0FE0
001E
001E
001E
001E
001E
001E
001E
FFE0
FFE0
FFE0
FFE0
ENDCHAR
STARTCHAR t
ENCODING 116
SWIDTH 284 0
DWIDTH 14 0
BBX 12 30 1 0
BITMAP
0F00
0F00
0F00
0F00
0F00
0F00
0F00
FFF0
FFF0
FFF0
FFF0
FFF0
0F00
0F00
0F00
0F00
0F00
0F00
0F00
0F00
0F00
0F00
0F00
0F00
0F00
0F00
00F0
00F0
00F0
00F0
ENDCHAR
STARTCHAR u
ENCODING 117
SWIDTH 378 0
DWIDTH 19 0
BBX 15 23 2 0
BITMAP
F01E
F01E
F01E
F01E
F01E
F01E
F01E
F01E
F01E
F01E
F01E
F01E
F01E
F01E
F01E
F01E
F01E
F01E
F01E
1FFE
1FFE
1FFE
1FFE
ENDCHAR
STARTCHAR v
ENCODING 118
SWIDTH 430 0
DWIDTH 22 0
BBX 19 23 1 0
BITMAP
F001E0
F001E0
F001E0
F001E0
F001E0
F001E0
F001E0
F001E0
0F1E00
0F1E00
0F1E00
0F1E00
0F1E00
0F1E00
0F1E00
0FFE00
00F000
00F000
00F000
00F000
00F000
00F000
00F000
ENDCHAR
STARTCHAR w
ENCODING 119
SWIDTH 576 0
DWIDTH 29 0
BBX 26 23 1 0
BITMAP
F00003C0
F00003C0
F00003C0
F00003C0
F00003C0
F00003C0
F00003C0
F00003C0
0F1E1E00
0F1E1E00
0F1E1E00
0F1E1E00
0F1E1E00
0F1E1E00
0F1E1E00
0FFFFE00
00F1E000
00F1E000
00F1E000
00F1E000
00F1E000
00F1E000
00F1E000
ENDCHAR
STARTCHAR x
ENCODING 120
SWIDTH 382 0
DWIDTH 19 0
BBX 15 23 2 0
BITMAP
F01E
F01E
F01E
F01E
F01E
F01E
F01E
F01E
0FE0
0FE0
0FE0
0FE0
F01E
F01E
F01E
F01E
F01E
F01E
F01E
F01E
F01E
F01E
F01E
ENDCHAR
STARTCHAR y
ENCODING 121
SWIDTH 378 0
DWIDTH 19 0
BBX 15 34 2 -11
BITMAP
F01E
F01E
F01E
F01E
F01E
F01E
F01E
F01E
F01E
F01E
F01E
F01E
F01E
F01E
F01E
F01E
F01E
F01E
F01E
1FFE
1FFE
1FFE
1FFE
001E
001E
001E
F01E
F01E
F01E
F01E
1FE0
1FE0
1FE0
1FE0
ENDCHAR
STARTCHAR z
ENCODING 122
SWIDTH 366 0
DWIDTH 18 0
BBX 16 23 1 0
BITMAP
FFFF
FFFF
FFFF
FFFF
FFFF
000F
000F
000F
00F0
00F0
00F0
00F0
0F00
0F00
0F00
FF00
F800
F800
F800
FFFF
FFFF
FFFF
FFFF
ENDCHAR
STARTCHAR braceleft
ENCODING 123
SWIDTH 308 0
DWIDTH 15 0
BBX 11 34 2 -4
BITMAP
01E0
01E0
01E0
01E0
0F00
0F00
0F00
0F00
0F00
0F00
0F00
0F00
0F00
0F00
0F00
F000
F000
F000
F000
0F00
0F00
0F00
0F00
0F00
0F00
0F00
0F00
0F00
0F00
0F00
01E0
01E0
01E0
01E0
ENDCHAR
STARTCHAR bar
ENCODING 124
SWIDTH 230 0
DWIDTH 12 0
BBX 4 45 4 -11
BITMAP
F0
F0
F0
F0
F0
F0
F0
F0
F0
F0
F0
F0
F0
F0
F0
F0
F0
F0
F0
F0
F0
F0
F0
F0
F0
F0
F0
F0
F0
F0
F0
F0
F0
F0
F0
F0
F0
F0
F0
F0
F0
F0
F0
F0
F0
ENDCHAR
STARTCHAR braceright
ENCODING 125
SWIDTH 308 0
DWIDTH 15 0
BBX 11 34 2 -4
BITMAP
F000
F000
F000
F000
0F00
0F00
0F00
0F00
0F00
0F00
0F00
0F00
0F00
0F00
0F00
01E0
01E0
01E0
01E0
0F00
0F00
0F00
0F00
0F00
0F00
0F00
0F00
0F00
0F00
0F00
F000
F000
F000
F000
ENDCHAR
STARTCHAR asciitilde
ENCODING 126
SWIDTH 456 0
DWIDTH 23 0
BBX 19 8 2 11
BITMAP
0FE1E0
0FE1E0
0FE1E0
0FE1E0
F1FE00
F1FE00
F1FE00
F1FE00
ENDCHAR
STARTCHAR nonbreakingspace
ENCODING 160
SWIDTH 184 0
DWIDTH 9 0
BBX 1 1 0 0
BITMAP
00
ENDCHAR
STARTCHAR exclamdown
ENCODING 161
SWIDTH 171 0
DWIDTH 9 0
BBX 4 30 2 -7
BITMAP
F0
F0
F0
F0
F0
00
00
00
F0
F0
F0
F0
F0
F0
F0
F0
F0
F0
F0
F0
F0
F0
F0
F0
F0
F0
F0
F0
F0
F0
ENDCHAR
STARTCHAR cent
ENCODING 162
SWIDTH 456 0
DWIDTH 23 0
BBX 19 30 2 0
BITMAP
01E000
01E000
01E000
01E000
0FFE00
0FFE00
0FFE00
FFFFE0
F1E1E0
F1E1E0
F1E1E0
F1E000
F1E000
F1E000
F1E000
F1E000
F1E000
F1E000
F1E000
F1E1E0
F1E1E0
F1E1E0
FFFFE0
0FFE00
0FFE00
0FFE00
01E000
01E000
01E000
01E000
ENDCHAR
STARTCHAR sterling
ENCODING 163
SWIDTH 382 0
DWIDTH 19 0
BBX 15 30 2 0
BITMAP
01FE
01FE
01FE
01FE
0F00
0F00
0F00
0F00
0F00
0F00
0F00
FFE0
FFE0
FFE0
FFE0
0F00
0F00
0F00
0F00
0F00
0F00
0F00
0F00
0F00
0F00
0F00
F1FE
F1FE
F1FE
F1FE
ENDCHAR
STARTCHAR currency
ENCODING 164
SWIDTH 604 0
DWIDTH 30 0
BBX 26 26 2 0
BITMAP
F00003C0
F00003C0
F00003C0
FFFFFFC0
0FFFFE00
0FFFFE00
0FFFFE00
0FFFFE00
0F003E00
0F003E00
0F003E00
0F003E00
0F003E00
0F003E00
0F003E00
0F003E00
0F003E00
0F003E00
0FFFFE00
0FFFFE00
0FFFFE00
0FFFFE00
F00003C0
F00003C0
F00003C0
F00003C0
ENDCHAR
STARTCHAR yen
ENCODING 165
SWIDTH 456 0
DWIDTH 23 0
BBX 19 30 2 0
BITMAP
F001E0
F001E0
F001E0
F001E0
0F1E00
0F1E00
0F1E00
0F1E00
0F1E00
0F1E00
0F1E00
0FFE00
01E000
01E000
01E000
FFFFE0
FFFFE0
FFFFE0
FFFFE0
01E000
01E000
01E000
FFFFE0
FFFFE0
FFFFE0
FFFFE0
01E000
01E000
01E000
01E000
ENDCHAR
STARTCHAR brokenbar
ENCODING 166
SWIDTH 230 0
DWIDTH 12 0
BBX 4 45 4 -11
BITMAP
F0
F0
F0
F0
F0
F0
F0
F0
F0
F0
F0
F0
F0
F0
F0
F0
F0
F0
F0
00
00
00
00
00
00
00
F0
F0
F0
F0
F0
F0
F0
F0
F0
F0
F0
F0
F0
F0
F0
F0
F0
F0
F0
ENDCHAR
STARTCHAR section
ENCODING 167
SWIDTH 382 0
DWIDTH 19 0
BBX 15 37 2 -7
BITMAP
0FE0
0FE0
0FE0
0FE0
F000
F000
F000
F000
F000
F000
F000
FFE0
0FE0
0FE0
0FE0
F01E
F01E
F01E
F01E
F01E
F01E
F01E
FFFE
0FE0
0FE0
0FE0
001E
001E
001E
001E
001E
001E
001E
0FFE
0FE0
0FE0
0FE0
ENDCHAR
STARTCHAR dieresis
ENCODING 168
SWIDTH 308 0
DWIDTH 15 0
BBX 11 4 2 26
BITMAP
F1E0
F1E0
F1E0
F1E0
ENDCHAR
STARTCHAR copyright
ENCODING 169
SWIDTH 604 0
DWIDTH 30 0
BBX 26 30 2 0
BITMAP
0FFFFE00
0FFFFE00
0FFFFE00
0FFFFE00
F00003C0
F00003C0
F00003C0
F01FE3C0
F01FE3C0
F01FE3C0
F01FE3C0
F1FFE3C0
F1E003C0
F1E003C0
F1E003C0
F1E003C0
F1E003C0
F1E003C0
F1E003C0
F01FE3C0
F01FE3C0
F01FE3C0
F01FE3C0
F00003C0
F00003C0
F00003C0
0FFFFE00
0FFFFE00
0FFFFE00
0FFFFE00
ENDCHAR
STARTCHAR ordfeminine
ENCODING 170
SWIDTH 456 0
DWIDTH 23 0
BBX 19 19 2 7
BITMAP
0FE000
0FE000
0FE000
0FFE00
001E00
001E00
001E00
0FFE00
0FFE00
0FFE00
0FFE00
F01E00
F01E00
F01E00
F01E00
0FE1E0
0FE1E0
0FE1E0
0FE1E0
ENDCHAR
STARTCHAR guillemotleft
ENCODING 171
SWIDTH 558 0
DWIDTH 28 0
BBX 26 19 1 4
BITMAP
00F003C0
00F003C0
00F003C0
00F003C0
0FF03FC0
0F003C00
0F003C00
0F003C00
F003C000
F003C000
F003C000
F003C000
0F003C00
0F003C00
0F003C00
0FF03FC0
00F003C0
00F003C0
00F003C0
ENDCHAR
STARTCHAR logicalnot
ENCODING 172
SWIDTH 456 0
DWIDTH 23 0
BBX 19 11 2 4
BITMAP
FFFFE0
FFFFE0
FFFFE0
FFFFE0
0001E0
0001E0
0001E0
0001E0
0001E0
0001E0
0001E0
ENDCHAR
STARTCHAR registered
ENCODING 174
SWIDTH 604 0
DWIDTH 30 0
BBX 26 30 2 0
BITMAP
0FFFFE00
0FFFFE00
0FFFFE00
0FFFFE00
F00003C0
F00003C0
F00003C0
F1FFE3C0
F1FFE3C0
F1FFE3C0
F1FFE3C0
F1FFE3C0
F1FFE3C0
F1FFE3C0
F1FFE3C0
F1FE03C0
F1FE03C0
F1FE03C0
F1FE03C0
F1E1E3C0
F1E1E3C0
F1E1E3C0
F1E1E3C0
F00003C0
F00003C0
F00003C0
0FFFFE00
0FFFFE00
0FFFFE00
0FFFFE00
ENDCHAR
STARTCHAR macron
ENCODING 175
SWIDTH 382 0
DWIDTH 19 0
BBX 15 4 2 26
BITMAP
FFFE
FFFE
FFFE
FFFE
ENDCHAR
STARTCHAR degree
ENCODING 176
SWIDTH 382 0
DWIDTH 19 0
BBX 15 16 2 18
BITMAP
0FE0
0FE0
0FE0
0FE0
F01E
F01E
F01E
F01E
F01E
F01E
F01E
FFFE
0FE0
0FE0
0FE0
0FE0
ENDCHAR
STARTCHAR plusminus
ENCODING 177
SWIDTH 456 0
DWIDTH 23 0
BBX 19 27 2 -4
BITMAP
01E000
01E000
01E000
01E000
01E000
01E000
01E000
01E000
FFFFE0
FFFFE0
FFFFE0
FFFFE0
01E000
01E000
01E000
01E000
01E000
01E000
01E000
000000
000000
000000
000000
FFFFE0
FFFFE0
FFFFE0
FFFFE0
ENDCHAR
STARTCHAR twosuperior
ENCODING 178
SWIDTH 322 0
DWIDTH 16 0
BBX 12 18 2 13
BITMAP
1F80
1F80
1F80
E070
E070
E070
0380
0380
0380
1C00
1C00
1C00
E000
E000
E000
FFF0
FFF0
FFF0
ENDCHAR
STARTCHAR threesuperior
ENCODING 179
SWIDTH 322 0
DWIDTH 16 0
BBX 12 18 2 13
BITMAP
1F80
1F80
1F80
E070
E070
E070
0070
0380
0380
0380
0070
0070
E070
E070
E070
1F80
1F80
1F80
ENDCHAR
STARTCHAR acute
ENCODING 180
SWIDTH 234 0
DWIDTH 12 0
BBX 8 8 0 26
BITMAP
0F
0F
0F
0F
F8
F8
F8
F8
ENDCHAR
STARTCHAR paragraph
ENCODING 182
SWIDTH 456 0
DWIDTH 23 0
BBX 19 34 2 -4
BITMAP
0FFFE0
0FFFE0
0FFFE0
0FFFE0
FFE1E0
FFE1E0
FFE1E0
FFE1E0
0FE1E0
0FE1E0
0FE1E0
0FE1E0
01E1E0
01E1E0
01E1E0
01E1E0
01E1E0
01E1E0
01E1E0
01E1E0
01E1E0
01E1E0
01E1E0
01E1E0
01E1E0
01E1E0
01E1E0
01E1E0
01E1E0
01E1E0
01E1E0
01E1E0
01E1E0
01E1E0
ENDCHAR
STARTCHAR periodcentered
ENCODING 183
SWIDTH 160 0
DWIDTH 8 0
BBX 4 4 2 11
BITMAP
F0
F0
F0
F0
ENDCHAR
STARTCHAR cedilla
ENCODING 184
SWIDTH 234 0
DWIDTH 12 0
BBX 8 8 2 -11
BITMAP
0F
0F
0F
0F
F0
F0
F0
F0
ENDCHAR
STARTCHAR onesuperior
ENCODING 185
SWIDTH 203 0
DWIDTH 10 0
BBX 6 18 2 13
BITMAP
1C
1C
1C
FC
FC
FC
1C
1C
1C
1C
1C
1C
1C
1C
1C
1C
1C
1C
ENDCHAR
STARTCHAR ordmasculine
ENCODING 186
SWIDTH 382 0
DWIDTH 19 0
BBX 15 19 2 7
BITMAP
0FE0
0FE0
0FE0
FFFE
F01E
F01E
F01E
F01E
F01E
F01E
F01E
F01E
F01E
F01E
F01E
0FE0
0FE0
0FE0
0FE0
ENDCHAR
STARTCHAR guillemotright
ENCODING 187
SWIDTH 558 0
DWIDTH 28 0
BBX 26 19 1 4
BITMAP
F003C000
F003C000
F003C000
F003C000
FF03FC00
0F003C00
0F003C00
0F003C00
00F003C0
00F003C0
00F003C0
00F003C0
0F003C00
0F003C00
0F003C00
FF03FC00
F003C000
F003C000
F003C000
ENDCHAR
STARTCHAR onequarter
ENCODING 188
SWIDTH 782 0
DWIDTH 39 0
BBX 35 33 2 -2
BITMAP
1C00000000
1C003C0000
1C003C0000
FC003C0000
FC003C0000
FC003C0000
1C003C0000
1C003C0000
1C03FC0000
1C03C00000
1C03C00000
1C03C00000
1C03C00000
1C03C00000
1C03C00000
1C03C00700
1C3E000700
1C3E000700
003E003F00
003E003F00
003E003F00
003E01C700
003E01C700
01FE01C700
01E00FFFE0
01E00FFFE0
01E00FFFE0
01E0000700
01E0000700
01E0000700
01E0000700
0000000700
0000000700
ENDCHAR
STARTCHAR onehalf
ENCODING 189
SWIDTH 723 0
DWIDTH 36 0
BBX 32 33 2 -2
BITMAP
1C000000
1C003C00
1C003C00
FC003C00
FC003C00
FC003C00
1C003C00
1C003C00
1C03FC00
1C03C000
1C03C000
1C03C000
1C03C000
1C03C000
1C03C000
1C03C1F8
1C3E01F8
1C3E01F8
003E0E07
003E0E07
003E0E07
003E0038
003E0038
01FE0038
01E001C0
01E001C0
01E001C0
01E00E00
01E00E00
01E00E00
01E00FFF
00000FFF
00000FFF
ENDCHAR
STARTCHAR threequarters
ENCODING 190
SWIDTH 851 0
DWIDTH 43 0
BBX 39 33 2 -2
BITMAP
1F80000000
1F80078000
1F80078000
E070078000
E070078000
E070078000
0070078000
0380078000
03803F8000
03803C0000
00703C0000
00703C0000
E0703C0000
E0703C0000
E0703C0000
1F803C00F0
1F83C000F0
1F83C000F0
0003C007F0
0003C007F0
0003C007F0
0003C03CF0
0003C03CF0
003FC03CF0
003C01FFFE
003C01FFFE
003C01FFFE
003C0000F0
003C0000F0
003C0000F0
003C0000F0
00000000F0
00000000F0
ENDCHAR
STARTCHAR questiondown
ENCODING 191
SWIDTH 382 0
DWIDTH 19 0
BBX 15 30 2 -7
BITMAP
01E0
01E0
01E0
01E0
01E0
0000
0000
0000
01E0
01E0
01E0
01E0
01E0
01E0
01E0
0FE0
0F00
0F00
0F00
F01E
F01E
F01E
F01E
F01E
F01E
F01E
FFFE
0FE0
0FE0
0FE0
ENDCHAR
STARTCHAR Agrave
ENCODING 192
SWIDTH 530 0
DWIDTH 27 0
BBX 23 41 2 0
BITMAP
01E000
01E000
01E000
01E000
001E00
001E00
001E00
001E00
000000
000000
000000
01FE00
01FE00
01FE00
01FE00
01FE00
01FE00
01FE00
0FFFE0
0F01E0
0F01E0
0F01E0
0F01E0
0F01E0
0F01E0
0F01E0
0FFFE0
0FFFE0
0FFFE0
0FFFE0
F0003E
F0003E
F0003E
F0003E
F0003E
F0003E
F0003E
F0003E
F0003E
F0003E
F0003E
ENDCHAR
STARTCHAR Aacute
ENCODING 193
SWIDTH 530 0
DWIDTH 27 0
BBX 23 41 2 0
BITMAP
001E00
001E00
001E00
001E00
01E000
01E000
01E000
01E000
000000
000000
000000
01FE00
01FE00
01FE00
01FE00
01FE00
01FE00
01FE00
0FFFE0
0F01E0
0F01E0
0F01E0
0F01E0
0F01E0
0F01E0
0F01E0
0FFFE0
0FFFE0
0FFFE0
0FFFE0
F0003E
F0003E
F0003E
F0003E
F0003E
F0003E
F0003E
F0003E
F0003E
F0003E
F0003E
ENDCHAR
STARTCHAR Acircumflex
ENCODING 194
SWIDTH 530 0
DWIDTH 27 0
BBX 23 41 2 0
BITMAP
007800
007800
007800
007800
03C780
03C780
03C780
03C780
000000
000000
000000
01FE00
01FE00
01FE00
01FE00
01FE00
01FE00
01FE00
0FFFE0
0F01E0
0F01E0
0F01E0
0F01E0
0F01E0
0F01E0
0F01E0
0FFFE0
0FFFE0
0FFFE0
0FFFE0
F0003E
F0003E
F0003E
F0003E
F0003E
F0003E
F0003E
F0003E
F0003E
F0003E
F0003E
ENDCHAR
STARTCHAR Atilde
ENCODING 195
SWIDTH 530 0
DWIDTH 27 0
BBX 23 41 2 0
BITMAP
01E1E0
01E1E0
01E1E0
01E1E0
0F1E00
0F1E00
0F1E00
0F1E00
000000
000000
000000
01FE00
01FE00
01FE00
01FE00
01FE00
01FE00
01FE00
0FFFE0
0F01E0
0F01E0
0F01E0
0F01E0
0F01E0
0F01E0
0F01E0
0FFFE0
0FFFE0
0FFFE0
0FFFE0
F0003E
F0003E
F0003E
F0003E
F0003E
F0003E
F0003E
F0003E
F0003E
F0003E
F0003E
ENDCHAR
STARTCHAR Adieresis
ENCODING 196
SWIDTH 530 0
DWIDTH 27 0
BBX 23 37 2 0
BITMAP
03C780
03C780
03C780
03C780
000000
000000
000000
01FE00
01FE00
01FE00
01FE00
01FE00
01FE00
01FE00
0FFFE0
0F01E0
0F01E0
0F01E0
0F01E0
0F01E0
0F01E0
0F01E0
0FFFE0
0FFFE0
0FFFE0
0FFFE0
F0003E
F0003E
F0003E
F0003E
F0003E
F0003E
F0003E
F0003E
F0003E
F0003E
F0003E
ENDCHAR
STARTCHAR Aring
ENCODING 197
SWIDTH 530 0
DWIDTH 27 0
BBX 23 44 2 0
BITMAP
007800
007800
007800
03FF80
03C780
03C780
03C780
007800
007800
007800
007800
000000
000000
000000
01FE00
01FE00
01FE00
01FE00
01FE00
01FE00
01FE00
0FFFE0
0F01E0
0F01E0
0F01E0
0F01E0
0F01E0
0F01E0
0F01E0
0FFFE0
0FFFE0
0FFFE0
0FFFE0
F0003E
F0003E
F0003E
F0003E
F0003E
F0003E
F0003E
F0003E
F0003E
F0003E
F0003E
ENDCHAR
STARTCHAR AE
ENCODING 198
SWIDTH 654 0
DWIDTH 33 0
BBX 30 30 1 0
BITMAP
001FFFFC
001FFFFC
001FFFFC
001FFFFC
001FE000
001FE000
001FE000
00FFE000
00F1E000
00F1E000
00F1E000
00F1FFFC
00F1FFFC
00F1FFFC
00F1FFFC
0FFFE000
0FFFE000
0FFFE000
0FFFE000
0F01E000
0F01E000
0F01E000
FF01E000
F001E000
F001E000
F001E000
F001FFFC
F001FFFC
F001FFFC
F001FFFC
ENDCHAR
STARTCHAR Ccedilla
ENCODING 199
SWIDTH 456 0
DWIDTH 23 0
BBX 19 41 2 -11
BITMAP
0FFE00
0FFE00
0FFE00
0FFE00
F001E0
F001E0
F001E0
F001E0
F00000
F00000
F00000
F00000
F00000
F00000
F00000
F00000
F00000
F00000
F00000
F00000
F00000
F00000
F001E0
F001E0
F001E0
F001E0
0FFE00
0FFE00
0FFE00
0FFE00
000000
000000
000000
00F000
00F000
00F000
00F000
0F0000
0F0000
0F0000
0F0000
ENDCHAR
STARTCHAR Egrave
ENCODING 200
SWIDTH 377 0
DWIDTH 19 0
BBX 15 41 2 0
BITMAP
0F00
0F00
0F00
0F00
01E0
01E0
01E0
01E0
0000
0000
0000
FFFE
FFFE
FFFE
FFFE
F000
F000
F000
F000
F000
F000
F000
FFFE
FFFE
FFFE
FFFE
F000
F000
F000
F000
F000
F000
F000
F000
F000
F000
F000
FFFE
FFFE
FFFE
FFFE
ENDCHAR
STARTCHAR Eacute
ENCODING 201
SWIDTH 377 0
DWIDTH 19 0
BBX 15 41 2 0
BITMAP
01E0
01E0
01E0
01E0
0F00
0F00
0F00
0F00
0000
0000
0000
FFFE
FFFE
FFFE
FFFE
F000
F000
F000
F000
F000
F000
F000
FFFE
FFFE
FFFE
FFFE
F000
F000
F000
F000
F000
F000
F000
F000
F000
F000
F000
FFFE
FFFE
FFFE
FFFE
ENDCHAR
STARTCHAR Ecircumflex
ENCODING 202
SWIDTH 377 0
DWIDTH 19 0
BBX 15 41 2 0
BITMAP
0780
0780
0780
0780
3C78
3C78
3C78
3C78
0000
0000
0000
FFFE
FFFE
FFFE
FFFE
F000
F000
F000
F000
F000
F000
F000
FFFE
FFFE
FFFE
FFFE
F000
F000
F000
F000
F000
F000
F000
F000
F000
F000
F000
FFFE
FFFE
FFFE
FFFE
ENDCHAR
STARTCHAR Edieresis
ENCODING 203
SWIDTH 377 0
DWIDTH 19 0
BBX 15 37 2 0
BITMAP
3C78
3C78
3C78
3C78
0000
0000
0000
FFFE
FFFE
FFFE
FFFE
F000
F000
F000
F000
F000
F000
F000
FFFE
FFFE
FFFE
FFFE
F000
F000
F000
F000
F000
F000
F000
F000
F000
F000
F000
FFFE
FFFE
FFFE
FFFE
ENDCHAR
STARTCHAR Igrave
ENCODING 204
SWIDTH 160 0
DWIDTH 8 0
BBX 8 41 0 0
BITMAP
F0
F0
F0
F0
0F
0F
0F
0F
00
00
00
3C
3C
3C
3C
3C
3C
3C
3C
3C
3C
3C
3C
3C
3C
3C
3C
3C
3C
3C
3C
3C
3C
3C
3C
3C
3C
3C
3C
3C
3C
ENDCHAR
STARTCHAR Iacute
ENCODING 205
SWIDTH 160 0
DWIDTH 8 0
BBX 8 41 0 0
BITMAP
0F
0F
0F
0F
F0
F0
F0
F0
00
00
00
3C
3C
3C
3C
3C
3C
3C
3C
3C
3C
3C
3C
3C
3C
3C
3C
3C
3C
3C
3C
3C
3C
3C
3C
3C
3C
3C
3C
3C
3C
ENDCHAR
STARTCHAR Icircumflex
ENCODING 206
SWIDTH 160 0
DWIDTH 8 0
BBX 12 41 -2 0
BITMAP
0F00
0F00
0F00
0F00
F0F0
F0F0
F0F0
F0F0
0000
0000
0000
0F00
0F00
0F00
0F00
0F00
0F00
0F00
0F00
0F00
0F00
0F00
0F00
0F00
0F00
0F00
0F00
0F00
0F00
0F00
0F00
0F00
0F00
0F00
0F00
0F00
0F00
0F00
0F00
0F00
0F00
ENDCHAR
STARTCHAR Idieresis
ENCODING 207
SWIDTH 160 0
DWIDTH 8 0
BBX 12 37 -2 0
BITMAP
F0F0
F0F0
F0F0
F0F0
0000
0000
0000
0F00
0F00
0F00
0F00
0F00
0F00
0F00
0F00
0F00
0F00
0F00
0F00
0F00
0F00
0F00
0F00
0F00
0F00
0F00
0F00
0F00
0F00
0F00
0F00
0F00
0F00
0F00
0F00
0F00
0F00
ENDCHAR
STARTCHAR Eth
ENCODING 208
SWIDTH 488 0
DWIDTH 24 0
BBX 20 30 2 0
BITMAP
3FF800
3FF800
3FF800
3FF800
3C0780
3C0780
3C0780
3C07F0
3C00F0
3C00F0
3C00F0
FF80F0
FF80F0
FF80F0
FF80F0
3C00F0
3C00F0
3C00F0
3C00F0
3C00F0
3C00F0
3C00F0
3C07F0
3C0780
3C0780
3C0780
3FF800
3FF800
3FF800
3FF800
ENDCHAR
STARTCHAR Ntilde
ENCODING 209
SWIDTH 456 0
DWIDTH 23 0
BBX 19 41 2 0
BITMAP
03C780
03C780
03C780
03C780
3C7800
3C7800
3C7800
3C7800
000000
000000
000000
F001E0
F001E0
F001E0
F001E0
FF01E0
FF01E0
FF01E0
FF01E0
FF01E0
FF01E0
FF01E0
FFE1E0
F1E1E0
F1E1E0
F1E1E0
F1E1E0
F1E1E0
F1E1E0
F1E1E0
F01FE0
F01FE0
F01FE0
F01FE0
F01FE0
F01FE0
F01FE0
F001E0
F001E0
F001E0
F001E0
ENDCHAR
STARTCHAR Ograve
ENCODING 210
SWIDTH 456 0
DWIDTH 23 0
BBX 19 41 2 0
BITMAP
03C000
03C000
03C000
03C000
007800
007800
007800
007800
000000
000000
000000
0FFE00
0FFE00
0FFE00
0FFE00
F001E0
F001E0
F001E0
F001E0
F001E0
F001E0
F001E0
F001E0
F001E0
F001E0
F001E0
F001E0
F001E0
F001E0
F001E0
F001E0
F001E0
F001E0
F001E0
F001E0
F001E0
F001E0
0FFE00
0FFE00
0FFE00
0FFE00
ENDCHAR
STARTCHAR Oacute
ENCODING 211
SWIDTH 456 0
DWIDTH 23 0
BBX 19 41 2 0
BITMAP
007800
007800
007800
007800
03C000
03C000
03C000
03C000
000000
000000
000000
0FFE00
0FFE00
0FFE00
0FFE00
F001E0
F001E0
F001E0
F001E0
F001E0
F001E0
F001E0
F001E0
F001E0
F001E0
F001E0
F001E0
F001E0
F001E0
F001E0
F001E0
F001E0
F001E0
F001E0
F001E0
F001E0
F001E0
0FFE00
0FFE00
0FFE00
0FFE00
ENDCHAR
STARTCHAR Ocircumflex
ENCODING 212
SWIDTH 456 0
DWIDTH 23 0
BBX 19 41 2 0
BITMAP
01E000
01E000
01E000
01E000
0F1E00
0F1E00
0F1E00
0F1E00
000000
000000
000000
0FFE00
0FFE00
0FFE00
0FFE00
F001E0
F001E0
F001E0
F001E0
F001E0
F001E0
F001E0
F001E0
F001E0
F001E0
F001E0
F001E0
F001E0
F001E0
F001E0
F001E0
F001E0
F001E0
F001E0
F001E0
F001E0
F001E0
0FFE00
0FFE00
0FFE00
0FFE00
ENDCHAR
STARTCHAR Otilde
ENCODING 213
SWIDTH 456 0
DWIDTH 23 0
BBX 19 41 2 0
BITMAP
03C780
03C780
03C780
03C780
3C7800
3C7800
3C7800
3C7800
000000
000000
000000
0FFE00
0FFE00
0FFE00
0FFE00
F001E0
F001E0
F001E0
F001E0
F001E0
F001E0
F001E0
F001E0
F001E0
F001E0
F001E0
F001E0
F001E0
F001E0
F001E0
F001E0
F001E0
F001E0
F001E0
F001E0
F001E0
F001E0
0FFE00
0FFE00
0FFE00
0FFE00
ENDCHAR
STARTCHAR Odieresis
ENCODING 214
SWIDTH 456 0
DWIDTH 23 0
BBX 19 37 2 0
BITMAP
0F1E00
0F1E00
0F1E00
0F1E00
000000
000000
000000
0FFE00
0FFE00
0FFE00
0FFE00
F001E0
F001E0
F001E0
F001E0
F001E0
F001E0
F001E0
F001E0
F001E0
F001E0
F001E0
F001E0
F001E0
F001E0
F001E0
F001E0
F001E0
F001E0
F001E0
F001E0
F001E0
F001E0
0FFE00
0FFE00
0FFE00
0FFE00
ENDCHAR
STARTCHAR multiply
ENCODING 215
SWIDTH 456 0
DWIDTH 23 0
BBX 19 19 2 4
BITMAP
F001E0
F001E0
F001E0
F001E0
FF1FE0
0F1E00
0F1E00
0F1E00
01E000
01E000
01E000
01E000
0F1E00
0F1E00
0F1E00
FF1FE0
F001E0
F001E0
F001E0
ENDCHAR
STARTCHAR Oslash
ENCODING 216
SWIDTH 456 0
DWIDTH 23 0
BBX 19 38 2 -4
BITMAP
0001E0
0001E0
0001E0
0001E0
0FFE00
0FFE00
0FFE00
0FFE00
F01FE0
F01FE0
F01FE0
F01FE0
F01FE0
F01FE0
F01FE0
F1FFE0
F1E1E0
F1E1E0
F1E1E0
F1E1E0
F1E1E0
F1E1E0
F1E1E0
FF01E0
FF01E0
FF01E0
FF01E0
FF01E0
FF01E0
FF01E0
0FFE00
0FFE00
0FFE00
0FFE00
F00000
F00000
F00000
F00000
ENDCHAR
STARTCHAR Ugrave
ENCODING 217
SWIDTH 456 0
DWIDTH 23 0
BBX 19 41 2 0
BITMAP
03C000
03C000
03C000
03C000
007800
007800
007800
007800
000000
000000
000000
F001E0
F001E0
F001E0
F001E0
F001E0
F001E0
F001E0
F001E0
F001E0
F001E0
F001E0
F001E0
F001E0
F001E0
F001E0
F001E0
F001E0
F001E0
F001E0
F001E0
F001E0
F001E0
F001E0
F001E0
F001E0
F001E0
0FFE00
0FFE00
0FFE00
0FFE00
ENDCHAR
STARTCHAR Uacute
ENCODING 218
SWIDTH 456 0
DWIDTH 23 0
BBX 19 41 2 0
BITMAP
007800
007800
007800
007800
03C000
03C000
03C000
03C000
000000
000000
000000
F001E0
F001E0
F001E0
F001E0
F001E0
F001E0
F001E0
F001E0
F001E0
F001E0
F001E0
F001E0
F001E0
F001E0
F001E0
F001E0
F001E0
F001E0
F001E0
F001E0
F001E0
F001E0
F001E0
F001E0
F001E0
F001E0
0FFE00
0FFE00
0FFE00
0FFE00
ENDCHAR
STARTCHAR Ucircumflex
ENCODING 219
SWIDTH 456 0
DWIDTH 23 0
BBX 19 41 2 0
BITMAP
01E000
01E000
01E000
01E000
0F1E00
0F1E00
0F1E00
0F1E00
000000
000000
000000
F001E0
F001E0
F001E0
F001E0
F001E0
F001E0
F001E0
F001E0
F001E0
F001E0
F001E0
F001E0
F001E0
F001E0
F001E0
F001E0
F001E0
F001E0
F001E0
F001E0
F001E0
F001E0
F001E0
F001E0
F001E0
F001E0
0FFE00
0FFE00
0FFE00
0FFE00
ENDCHAR
STARTCHAR Udieresis
ENCODING 220
SWIDTH 456 0
DWIDTH 23 0
BBX 19 37 2 0
BITMAP
0F1E00
0F1E00
0F1E00
0F1E00
000000
000000
000000
F001E0
F001E0
F001E0
F001E0
F001E0
F001E0
F001E0
F001E0
F001E0
F001E0
F001E0
F001E0
F001E0
F001E0
F001E0
F001E0
F001E0
F001E0
F001E0
F001E0
F001E0
F001E0
F001E0
F001E0
F001E0
F001E0
0FFE00
0FFE00
0FFE00
0FFE00
ENDCHAR
STARTCHAR Yacute
ENCODING 221
SWIDTH 456 0
DWIDTH 23 0
BBX 19 41 2 0
BITMAP
007800
007800
007800
007800
03C000
03C000
03C000
03C000
000000
000000
000000
F001E0
F001E0
F001E0
F001E0
0F1E00
0F1E00
0F1E00
0F1E00
0F1E00
0F1E00
0F1E00
0FFE00
01E000
01E000
01E000
01E000
01E000
01E000
01E000
01E000
01E000
01E000
01E000
01E000
01E000
01E000
01E000
01E000
01E000
01E000
ENDCHAR
STARTCHAR Thorn
ENCODING 222
SWIDTH 362 0
DWIDTH 18 0
BBX 15 30 2 0
BITMAP
F000
F000
F000
F000
F000
F000
F000
FFE0
FFE0
FFE0
FFE0
FFFE
F01E
F01E
F01E
F01E
F01E
F01E
F01E
FFE0
FFE0
FFE0
FFE0
F000
F000
F000
F000
F000
F000
F000
ENDCHAR
STARTCHAR germandbls
ENCODING 223
SWIDTH 382 0
DWIDTH 19 0
BBX 15 30 2 0
BITMAP
0FE0
0FE0
0FE0
0FE0
F01E
F01E
F01E
F1FE
F1E0
F1E0
F1E0
F1FE
F01E
F01E
F01E
F01E
F01E
F01E
F01E
F01E
F01E
F01E
F01E
F01E
F01E
F01E
F1E0
F1E0
F1E0
F1E0
ENDCHAR
STARTCHAR agrave
ENCODING 224
SWIDTH 442 0
DWIDTH 22 0
BBX 18 34 2 0
BITMAP
078000
078000
078000
078000
007800
007800
007800
007800
000000
000000
000000
1FE000
1FE000
1FE000
1FE000
1FFE00
001E00
001E00
001E00
1FFE00
1FFE00
1FFE00
1FFE00
F01E00
F01E00
F01E00
F01E00
F01E00
F01E00
F01E00
1FE3C0
1FE3C0
1FE3C0
1FE3C0
ENDCHAR
STARTCHAR aacute
ENCODING 225
SWIDTH 442 0
DWIDTH 22 0
BBX 18 34 2 0
BITMAP
007800
007800
007800
007800
078000
078000
078000
078000
000000
000000
000000
1FE000
1FE000
1FE000
1FE000
1FFE00
001E00
001E00
001E00
1FFE00
1FFE00
1FFE00
1FFE00
F01E00
F01E00
F01E00
F01E00
F01E00
F01E00
F01E00
1FE3C0
1FE3C0
1FE3C0
1FE3C0
ENDCHAR
STARTCHAR acircumflex
ENCODING 226
SWIDTH 442 0
DWIDTH 22 0
BBX 18 34 2 0
BITMAP
01E000
01E000
01E000
01E000
1E1E00
1E1E00
1E1E00
1E1E00
000000
000000
000000
1FE000
1FE000
1FE000
1FE000
1FFE00
001E00
001E00
001E00
1FFE00
1FFE00
1FFE00
1FFE00
F01E00
F01E00
F01E00
F01E00
F01E00
F01E00
F01E00
1FE3C0
1FE3C0
1FE3C0
1FE3C0
ENDCHAR
STARTCHAR atilde
ENCODING 227
SWIDTH 442 0
DWIDTH 22 0
BBX 18 34 2 0
BITMAP
078780
078780
078780
078780
7C7800
7C7800
7C7800
7C7800
000000
000000
000000
1FE000
1FE000
1FE000
1FE000
1FFE00
001E00
001E00
001E00
1FFE00
1FFE00
1FFE00
1FFE00
F01E00
F01E00
F01E00
F01E00
F01E00
F01E00
F01E00
1FE3C0
1FE3C0
1FE3C0
1FE3C0
ENDCHAR
STARTCHAR adieresis
ENCODING 228
SWIDTH 442 0
DWIDTH 22 0
BBX 18 30 2 0
BITMAP
1E1E00
1E1E00
1E1E00
1E1E00
000000
000000
000000
1FE000
1FE000
1FE000
1FE000
1FFE00
001E00
001E00
001E00
1FFE00
1FFE00
1FFE00
1FFE00
F01E00
F01E00
F01E00
F01E00
F01E00
F01E00
F01E00
1FE3C0
1FE3C0
1FE3C0
1FE3C0
ENDCHAR
STARTCHAR aring
ENCODING 229
SWIDTH 442 0
DWIDTH 22 0
BBX 18 37 2 0
BITMAP
01E000
01E000
01E000
1FFE00
1E1E00
1E1E00
1E1E00
01E000
01E000
01E000
01E000
000000
000000
000000
1FE000
1FE000
1FE000
1FE000
1FFE00
001E00
001E00
001E00
1FFE00
1FFE00
1FFE00
1FFE00
F01E00
F01E00
F01E00
F01E00
F01E00
F01E00
F01E00
1FE3C0
1FE3C0
1FE3C0
1FE3C0
ENDCHAR
STARTCHAR ae
ENCODING 230
SWIDTH 593 0
DWIDTH 30 0
BBX 26 23 2 0
BITMAP
1FE3FC00
1FE3FC00
1FE3FC00
1FE3FC00
1FFFFFC0
001E03C0
001E03C0
001E03C0
1FFFFFC0
1FFFFFC0
1FFFFFC0
1FFFFFC0
F01E0000
F01E0000
F01E0000
F01E03C0
F01E03C0
F01E03C0
F01E03C0
1FE3FC00
1FE3FC00
1FE3FC00
1FE3FC00
ENDCHAR
STARTCHAR ccedilla
ENCODING 231
SWIDTH 375 0
DWIDTH 19 0
BBX 15 34 2 -11
BITMAP
0FE0
0FE0
0FE0
0FE0
FFFE
F01E
F01E
F01E
F000
F000
F000
F000
F000
F000
F000
F01E
F01E
F01E
F01E
0FE0
0FE0
0FE0
0FE0
0000
0000
0000
03C0
03C0
03C0
03C0
3C00
3C00
3C00
3C00
ENDCHAR
STARTCHAR egrave
ENCODING 232
SWIDTH 382 0
DWIDTH 19 0
BBX 15 34 2 0
BITMAP
0F00
0F00
0F00
0F00
01E0
01E0
01E0
01E0
0000
0000
0000
0FE0
0FE0
0FE0
0FE0
FFFE
F01E
F01E
F01E
FFFE
FFFE
FFFE
FFFE
F000
F000
F000
F01E
F01E
F01E
F01E
0FE0
0FE0
0FE0
0FE0
ENDCHAR
STARTCHAR eacute
ENCODING 233
SWIDTH 382 0
DWIDTH 19 0
BBX 15 34 2 0
BITMAP
01E0
01E0
01E0
01E0
0F00
0F00
0F00
0F00
0000
0000
0000
0FE0
0FE0
0FE0
0FE0
FFFE
F01E
F01E
F01E
FFFE
FFFE
FFFE
FFFE
F000
F000
F000
F01E
F01E
F01E
F01E
0FE0
0FE0
0FE0
0FE0
ENDCHAR
STARTCHAR ecircumflex
ENCODING 234
SWIDTH 382 0
DWIDTH 19 0
BBX 15 34 2 0
BITMAP
03C0
03C0
03C0
03C0
3C78
3C78
3C78
3C78
0000
0000
0000
0FE0
0FE0
0FE0
0FE0
FFFE
F01E
F01E
F01E
FFFE
FFFE
FFFE
FFFE
F000
F000
F000
F01E
F01E
F01E
F01E
0FE0
0FE0
0FE0
0FE0
ENDCHAR
STARTCHAR edieresis
ENCODING 235
SWIDTH 382 0
DWIDTH 19 0
BBX 15 30 2 0
BITMAP
3C78
3C78
3C78
3C78
0000
0000
0000
0FE0
0FE0
0FE0
0FE0
FFFE
F01E
F01E
F01E
FFFE
FFFE
FFFE
FFFE
F000
F000
F000
F01E
F01E
F01E
F01E
0FE0
0FE0
0FE0
0FE0
ENDCHAR
STARTCHAR igrave
ENCODING 236
SWIDTH 169 0
DWIDTH 8 0
BBX 8 34 0 0
BITMAP
F0
F0
F0
F0
0F
0F
0F
0F
00
00
00
3C
3C
3C
3C
3C
3C
3C
3C
3C
3C
3C
3C
3C
3C
3C
3C
3C
3C
3C
3C
3C
3C
3C
ENDCHAR
STARTCHAR iacute
ENCODING 237
SWIDTH 169 0
DWIDTH 8 0
BBX 8 34 0 0
BITMAP
0F
0F
0F
0F
F0
F0
F0
F0
00
00
00
3C
3C
3C
3C
3C
3C
3C
3C
3C
3C
3C
3C
3C
3C
3C
3C
3C
3C
3C
3C
3C
3C
3C
ENDCHAR
STARTCHAR icircumflex
ENCODING 238
SWIDTH 169 0
DWIDTH 8 0
BBX 11 34 -1 0
BITMAP
1E00
1E00
1E00
1E00
F1E0
F1E0
F1E0
F1E0
0000
0000
0000
1E00
1E00
1E00
1E00
1E00
1E00
1E00
1E00
1E00
1E00
1E00
1E00
1E00
1E00
1E00
1E00
1E00
1E00
1E00
1E00
1E00
1E00
1E00
ENDCHAR
STARTCHAR idieresis
ENCODING 239
SWIDTH 169 0
DWIDTH 8 0
BBX 11 30 -1 0
BITMAP
F1E0
F1E0
F1E0
F1E0
0000
0000
0000
1E00
1E00
1E00
1E00
1E00
1E00
1E00
1E00
1E00
1E00
1E00
1E00
1E00
1E00
1E00
1E00
1E00
1E00
1E00
1E00
1E00
1E00
1E00
ENDCHAR
STARTCHAR eth
ENCODING 240
SWIDTH 456 0
DWIDTH 23 0
BBX 19 30 2 0
BITMAP
0FE1E0
0FE1E0
0FE1E0
0FE1E0
001E00
001E00
001E00
001FE0
0001E0
0001E0
0001E0
0FFFE0
0FFFE0
0FFFE0
0FFFE0
F001E0
F001E0
F001E0
F001E0
F001E0
F001E0
F001E0
F01FE0
F01E00
F01E00
F01E00
0FE000
0FE000
0FE000
0FE000
ENDCHAR
STARTCHAR ntilde
ENCODING 241
SWIDTH 380 0
DWIDTH 19 0
BBX 15 34 2 0
BITMAP
0F1E
0F1E
0F1E
0F1E
F1E0
F1E0
F1E0
F1E0
0000
0000
0000
FFE0
FFE0
FFE0
FFE0
FFFE
F01E
F01E
F01E
F01E
F01E
F01E
F01E
F01E
F01E
F01E
F01E
F01E
F01E
F01E
F01E
F01E
F01E
F01E
ENDCHAR
STARTCHAR ograve
ENCODING 242
SWIDTH 373 0
DWIDTH 19 0
BBX 15 34 2 0
BITMAP
1E00
1E00
1E00
1E00
01E0
01E0
01E0
01E0
0000
0000
0000
1FE0
1FE0
1FE0
1FE0
FFFE
F01E
F01E
F01E
F01E
F01E
F01E
F01E
F01E
F01E
F01E
F01E
F01E
F01E
F01E
1FE0
1FE0
1FE0
1FE0
ENDCHAR
STARTCHAR oacute
ENCODING 243
SWIDTH 373 0
DWIDTH 19 0
BBX 15 34 2 0
BITMAP
01E0
01E0
01E0
01E0
1E00
1E00
1E00
1E00
0000
0000
0000
1FE0
1FE0
1FE0
1FE0
FFFE
F01E
F01E
F01E
F01E
F01E
F01E
F01E
F01E
F01E
F01E
F01E
F01E
F01E
F01E
1FE0
1FE0
1FE0
1FE0
ENDCHAR
STARTCHAR ocircumflex
ENCODING 244
SWIDTH 373 0
DWIDTH 19 0
BBX 15 34 2 0
BITMAP
0780
0780
0780
0780
3C78
3C78
3C78
3C78
0000
0000
0000
1FE0
1FE0
1FE0
1FE0
FFFE
F01E
F01E
F01E
F01E
F01E
F01E
F01E
F01E
F01E
F01E
F01E
F01E
F01E
F01E
1FE0
1FE0
1FE0
1FE0
ENDCHAR
STARTCHAR otilde
ENCODING 245
SWIDTH 373 0
DWIDTH 19 0
BBX 15 34 2 0
BITMAP
0F1E
0F1E
0F1E
0F1E
F1E0
F1E0
F1E0
F1E0
0000
0000
0000
1FE0
1FE0
1FE0
1FE0
FFFE
F01E
F01E
F01E
F01E
F01E
F01E
F01E
F01E
F01E
F01E
F01E
F01E
F01E
F01E
1FE0
1FE0
1FE0
1FE0
ENDCHAR
STARTCHAR odieresis
ENCODING 246
SWIDTH 373 0
DWIDTH 19 0
BBX 15 30 2 0
BITMAP
3C78
3C78
3C78
3C78
0000
0000
0000
1FE0
1FE0
1FE0
1FE0
FFFE
F01E
F01E
F01E
F01E
F01E
F01E
F01E
F01E
F01E
F01E
F01E
F01E
F01E
F01E
1FE0
1FE0
1FE0
1FE0
ENDCHAR
STARTCHAR divide
ENCODING 247
SWIDTH 456 0
DWIDTH 23 0
BBX 19 19 2 4
BITMAP
01E000
01E000
01E000
01E000
01E000
000000
000000
000000
FFFFE0
FFFFE0
FFFFE0
FFFFE0
000000
000000
000000
01E000
01E000
01E000
01E000
ENDCHAR
STARTCHAR oslash
ENCODING 248
SWIDTH 382 0
DWIDTH 19 0
BBX 15 30 2 -4
BITMAP
001E
001E
001E
0FFE
0FE0
0FE0
0FE0
FFFE
F1FE
F1FE
F1FE
F1FE
F1FE
F1FE
F1FE
FF1E
FF1E
FF1E
FF1E
FF1E
FF1E
FF1E
0FE0
0FE0
0FE0
0FE0
F000
F000
F000
F000
ENDCHAR
STARTCHAR ugrave
ENCODING 249
SWIDTH 378 0
DWIDTH 19 0
BBX 15 34 2 0
BITMAP
0F00
0F00
0F00
0F00
01E0
01E0
01E0
01E0
0000
0000
0000
F01E
F01E
F01E
F01E
F01E
F01E
F01E
F01E
F01E
F01E
F01E
F01E
F01E
F01E
F01E
F01E
F01E
F01E
F01E
1FFE
1FFE
1FFE
1FFE
ENDCHAR
STARTCHAR uacute
ENCODING 250
SWIDTH 378 0
DWIDTH 19 0
BBX 15 34 2 0
BITMAP
01E0
01E0
01E0
01E0
0F00
0F00
0F00
0F00
0000
0000
0000
F01E
F01E
F01E
F01E
F01E
F01E
F01E
F01E
F01E
F01E
F01E
F01E
F01E
F01E
F01E
F01E
F01E
F01E
F01E
1FFE
1FFE
1FFE
1FFE
ENDCHAR
STARTCHAR ucircumflex
ENCODING 251
SWIDTH 378 0
DWIDTH 19 0
BBX 15 34 2 0
BITMAP
0780
0780
0780
0780
3C78
3C78
3C78
3C78
0000
0000
0000
F01E
F01E
F01E
F01E
F01E
F01E
F01E
F01E
F01E
F01E
F01E
F01E
F01E
F01E
F01E
F01E
F01E
F01E
F01E
1FFE
1FFE
1FFE
1FFE
ENDCHAR
STARTCHAR udieresis
ENCODING 252
SWIDTH 378 0
DWIDTH 19 0
BBX 15 30 2 0
BITMAP
3C78
3C78
3C78
3C78
0000
0000
0000
F01E
F01E
F01E
F01E
F01E
F01E
F01E
F01E
F01E
F01E
F01E
F01E
F01E
F01E
F01E
F01E
F01E
F01E
F01E
1FFE
1FFE
1FFE
1FFE
ENDCHAR
STARTCHAR yacute
ENCODING 253
SWIDTH 378 0
DWIDTH 19 0
BBX 15 45 2 -11
BITMAP
01E0
01E0
01E0
01E0
0F00
0F00
0F00
0F00
0000
0000
0000
F01E
F01E
F01E
F01E
F01E
F01E
F01E
F01E
F01E
F01E
F01E
F01E
F01E
F01E
F01E
F01E
F01E
F01E
F01E
1FFE
1FFE
1FFE
1FFE
001E
001E
001E
F01E
F01E
F01E
F01E
1FE0
1FE0
1FE0
1FE0
ENDCHAR
STARTCHAR thorn
ENCODING 254
SWIDTH 382 0
DWIDTH 19 0
BBX 15 41 2 -11
BITMAP
F000
F000
F000
F000
F000
F000
F000
FFE0
FFE0
FFE0
FFE0
FFFE
F01E
F01E
F01E
F01E
F01E
F01E
F01E
F01E
F01E
F01E
F01E
F01E
F01E
F01E
FFE0
FFE0
FFE0
FFE0
F000
F000
F000
F000
F000
F000
F000
F000
F000
F000
F000
ENDCHAR
STARTCHAR ydieresis
ENCODING 255
SWIDTH 378 0
DWIDTH 19 0
BBX 15 41 2 -11
BITMAP
3C78
3C78
3C78
3C78
0000
0000
0000
F01E
F01E
F01E
F01E
F01E
F01E
F01E
F01E
F01E
F01E
F01E
F01E
F01E
F01E
F01E
F01E
F01E
F01E
F01E
1FFE
1FFE
1FFE
1FFE
001E
001E
001E
F01E
F01E
F01E
F01E
1FE0
1FE0
1FE0
1FE0
ENDCHAR
STARTCHAR Amacron
ENCODING 256
SWIDTH 530 0
DWIDTH 27 0
BBX 23 37 2 0
BITMAP
0FFFE0
0FFFE0
0FFFE0
0FFFE0
000000
000000
000000
01FE00
01FE00
01FE00
01FE00
01FE00
01FE00
01FE00
0FFFE0
0F01E0
0F01E0
0F01E0
0F01E0
0F01E0
0F01E0
0F01E0
0FFFE0
0FFFE0
0FFFE0
0FFFE0
F0003E
F0003E
F0003E
F0003E
F0003E
F0003E
F0003E
F0003E
F0003E
F0003E
F0003E
ENDCHAR
STARTCHAR amacron
ENCODING 257
SWIDTH 442 0
DWIDTH 22 0
BBX 18 30 2 0
BITMAP
7FFF80
7FFF80
7FFF80
7FFF80
000000
000000
000000
1FE000
1FE000
1FE000
1FE000
1FFE00
001E00
001E00
001E00
1FFE00
1FFE00
1FFE00
1FFE00
F01E00
F01E00
F01E00
F01E00
F01E00
F01E00
F01E00
1FE3C0
1FE3C0
1FE3C0
1FE3C0
ENDCHAR
STARTCHAR Abreve
ENCODING 258
SWIDTH 530 0
DWIDTH 27 0
BBX 23 41 2 0
BITMAP
0F01E0
0F01E0
0F01E0
0F01E0
01FE00
01FE00
01FE00
01FE00
000000
000000
000000
01FE00
01FE00
01FE00
01FE00
01FE00
01FE00
01FE00
0FFFE0
0F01E0
0F01E0
0F01E0
0F01E0
0F01E0
0F01E0
0F01E0
0FFFE0
0FFFE0
0FFFE0
0FFFE0
F0003E
F0003E
F0003E
F0003E
F0003E
F0003E
F0003E
F0003E
F0003E
F0003E
F0003E
ENDCHAR
STARTCHAR abreve
ENCODING 259
SWIDTH 442 0
DWIDTH 22 0
BBX 18 34 2 0
BITMAP
7C0780
7C0780
7C0780
7C0780
07F800
07F800
07F800
07F800
000000
000000
000000
1FE000
1FE000
1FE000
1FE000
1FFE00
001E00
001E00
001E00
1FFE00
1FFE00
1FFE00
1FFE00
F01E00
F01E00
F01E00
F01E00
F01E00
F01E00
F01E00
1FE3C0
1FE3C0
1FE3C0
1FE3C0
ENDCHAR
STARTCHAR Aogonek
ENCODING 260
SWIDTH 530 0
DWIDTH 27 0
BBX 23 41 2 -11
BITMAP
01FE00
01FE00
01FE00
01FE00
01FE00
01FE00
01FE00
0FFFE0
0F01E0
0F01E0
0F01E0
0F01E0
0F01E0
0F01E0
0F01E0
0FFFE0
0FFFE0
0FFFE0
0FFFE0
F0003E
F0003E
F0003E
F0003E
F0003E
F0003E
F0003E
F0003E
F0003E
F0003E
F0003E
0001E0
0001E0
0001E0
001FE0
001E00
001E00
001E00
0001FE
0001FE
0001FE
0001FE
ENDCHAR
STARTCHAR aogonek
ENCODING 261
SWIDTH 456 0
DWIDTH 23 0
BBX 19 34 2 -11
BITMAP
0FE000
0FE000
0FE000
0FE000
0FFE00
001E00
001E00
001E00
0FFE00
0FFE00
0FFE00
0FFE00
F01E00
F01E00
F01E00
F01E00
F01E00
F01E00
F01E00
0FE1E0
0FE1E0
0FE1E0
0FE1E0
001E00
001E00
001E00
01FE00
01E000
01E000
01E000
001FE0
001FE0
001FE0
001FE0
ENDCHAR
STARTCHAR Cacute
ENCODING 262
SWIDTH 456 0
DWIDTH 23 0
BBX 19 41 2 0
BITMAP
007800
007800
007800
007800
03C000
03C000
03C000
03C000
000000
000000
000000
0FFE00
0FFE00
0FFE00
0FFE00
F001E0
F001E0
F001E0
F001E0
F00000
F00000
F00000
F00000
F00000
F00000
F00000
F00000
F00000
F00000
F00000
F00000
F00000
F00000
F001E0
F001E0
F001E0
F001E0
0FFE00
0FFE00
0FFE00
0FFE00
ENDCHAR
STARTCHAR cacute
ENCODING 263
SWIDTH 375 0
DWIDTH 19 0
BBX 15 34 2 0
BITMAP
01E0
01E0
01E0
01E0
1F00
1F00
1F00
1F00
0000
0000
0000
0FE0
0FE0
0FE0
0FE0
FFFE
F01E
F01E
F01E
F000
F000
F000
F000
F000
F000
F000
F01E
F01E
F01E
F01E
0FE0
0FE0
0FE0
0FE0
ENDCHAR
STARTCHAR Cdotaccent
ENCODING 266
SWIDTH 456 0
DWIDTH 23 0
BBX 19 37 2 0
BITMAP
01E000
01E000
01E000
01E000
000000
000000
000000
0FFE00
0FFE00
0FFE00
0FFE00
F001E0
F001E0
F001E0
F001E0
F00000
F00000
F00000
F00000
F00000
F00000
F00000
F00000
F00000
F00000
F00000
F00000
F00000
F00000
F001E0
F001E0
F001E0
F001E0
0FFE00
0FFE00
0FFE00
0FFE00
ENDCHAR
STARTCHAR cdotaccent
ENCODING 267
SWIDTH 375 0
DWIDTH 19 0
BBX 15 30 2 0
BITMAP
0780
0780
0780
0780
0000
0000
0000
0FE0
0FE0
0FE0
0FE0
FFFE
F01E
F01E
F01E
F000
F000
F000
F000
F000
F000
F000
F01E
F01E
F01E
F01E
0FE0
0FE0
0FE0
0FE0
ENDCHAR
STARTCHAR Ccaron
ENCODING 268
SWIDTH 456 0
DWIDTH 23 0
BBX 19 41 2 0
BITMAP
0F1E00
0F1E00
0F1E00
0F1E00
01E000
01E000
01E000
01E000
000000
000000
000000
0FFE00
0FFE00
0FFE00
0FFE00
F001E0
F001E0
F001E0
F001E0
F00000
F00000
F00000
F00000
F00000
F00000
F00000
F00000
F00000
F00000
F00000
F00000
F00000
F00000
F001E0
F001E0
F001E0
F001E0
0FFE00
0FFE00
0FFE00
0FFE00
ENDCHAR
STARTCHAR ccaron
ENCODING 269
SWIDTH 375 0
DWIDTH 19 0
BBX 15 34 2 0
BITMAP
3C78
3C78
3C78
3C78
0780
0780
0780
0780
0000
0000
0000
0FE0
0FE0
0FE0
0FE0
FFFE
F01E
F01E
F01E
F000
F000
F000
F000
F000
F000
F000
F01E
F01E
F01E
F01E
0FE0
0FE0
0FE0
0FE0
ENDCHAR
STARTCHAR Dcaron
ENCODING 270
SWIDTH 456 0
DWIDTH 23 0
BBX 19 41 2 0
BITMAP
0F1E00
0F1E00
0F1E00
0F1E00
01E000
01E000
01E000
01E000
000000
000000
000000
FFE000
FFE000
FFE000
FFE000
F01E00
F01E00
F01E00
F01FE0
F001E0
F001E0
F001E0
F001E0
F001E0
F001E0
F001E0
F001E0
F001E0
F001E0
F001E0
F001E0
F001E0
F001E0
F01FE0
F01E00
F01E00
F01E00
FFE000
FFE000
FFE000
FFE000
ENDCHAR
STARTCHAR dcaron
ENCODING 271
SWIDTH 547 0
DWIDTH 27 0
BBX 26 34 2 0
BITMAP
000007C0
000007C0
000007C0
000007C0
001E07C0
001E07C0
001E07C0
001E07C0
001E3C00
001E3C00
001E3C00
1FFE3C00
1FFE0000
1FFE0000
1FFE0000
FFFE0000
F01E0000
F01E0000
F01E0000
F01E0000
F01E0000
F01E0000
F01E0000
F01E0000
F01E0000
F01E0000
F01E0000
F01E0000
F01E0000
F01E0000
1FFE0000
1FFE0000
1FFE0000
1FFE0000
ENDCHAR
STARTCHAR Dcroat
ENCODING 272
SWIDTH 488 0
DWIDTH 24 0
BBX 20 30 2 0
BITMAP
3FF800
3FF800
3FF800
3FF800
3C0780
3C0780
3C0780
3C07F0
3C00F0
3C00F0
3C00F0
FF80F0
FF80F0
FF80F0
FF80F0
3C00F0
3C00F0
3C00F0
3C00F0
3C00F0
3C00F0
3C00F0
3C07F0
3C0780
3C0780
3C0780
3FF800
3FF800
3FF800
3FF800
ENDCHAR
STARTCHAR dcroat
ENCODING 273
SWIDTH 406 0
DWIDTH 20 0
BBX 18 30 2 0
BITMAP
001E00
001E00
001E00
001E00
1FFFC0
1FFFC0
1FFFC0
1FFFC0
001E00
001E00
001E00
1FFE00
1FFE00
1FFE00
1FFE00
F01E00
F01E00
F01E00
F01E00
F01E00
F01E00
F01E00
F01E00
F01E00
F01E00
F01E00
1FFE00
1FFE00
1FFE00
1FFE00
ENDCHAR
STARTCHAR Emacron
ENCODING 274
SWIDTH 377 0
DWIDTH 19 0
BBX 15 37 2 0
BITMAP
FFFE
FFFE
FFFE
FFFE
0000
0000
0000
FFFE
FFFE
FFFE
FFFE
F000
F000
F000
F000
F000
F000
F000
FFFE
FFFE
FFFE
FFFE
F000
F000
F000
F000
F000
F000
F000
F000
F000
F000
F000
FFFE
FFFE
FFFE
FFFE
ENDCHAR
STARTCHAR emacron
ENCODING 275
SWIDTH 382 0
DWIDTH 19 0
BBX 15 30 2 0
BITMAP
FFFE
FFFE
FFFE
FFFE
0000
0000
0000
0FE0
0FE0
0FE0
0FE0
FFFE
F01E
F01E
F01E
FFFE
FFFE
FFFE
FFFE
F000
F000
F000
F01E
F01E
F01E
F01E
0FE0
0FE0
0FE0
0FE0
ENDCHAR
STARTCHAR Ebreve
ENCODING 276
SWIDTH 377 0
DWIDTH 19 0
BBX 15 41 2 0
BITMAP
F01E
F01E
F01E
F01E
0FE0
0FE0
0FE0
0FE0
0000
0000
0000
FFFE
FFFE
FFFE
FFFE
F000
F000
F000
F000
F000
F000
F000
FFFE
FFFE
FFFE
FFFE
F000
F000
F000
F000
F000
F000
F000
F000
F000
F000
F000
FFFE
FFFE
FFFE
FFFE
ENDCHAR
STARTCHAR ebreve
ENCODING 277
SWIDTH 382 0
DWIDTH 19 0
BBX 15 34 2 0
BITMAP
F01E
F01E
F01E
F01E
0FE0
0FE0
0FE0
0FE0
0000
0000
0000
0FE0
0FE0
0FE0
0FE0
FFFE
F01E
F01E
F01E
FFFE
FFFE
FFFE
FFFE
F000
F000
F000
F01E
F01E
F01E
F01E
0FE0
0FE0
0FE0
0FE0
ENDCHAR
STARTCHAR Edotaccent
ENCODING 278
SWIDTH 377 0
DWIDTH 19 0
BBX 15 37 2 0
BITMAP
0780
0780
0780
0780
0000
0000
0000
FFFE
FFFE
FFFE
FFFE
F000
F000
F000
F000
F000
F000
F000
FFFE
FFFE
FFFE
FFFE
F000
F000
F000
F000
F000
F000
F000
F000
F000
F000
F000
FFFE
FFFE
FFFE
FFFE
ENDCHAR
STARTCHAR edotaccent
ENCODING 279
SWIDTH 382 0
DWIDTH 19 0
BBX 15 30 2 0
BITMAP
03C0
03C0
03C0
03C0
0000
0000
0000
0FE0
0FE0
0FE0
0FE0
FFFE
F01E
F01E
F01E
FFFE
FFFE
FFFE
FFFE
F000
F000
F000
F01E
F01E
F01E
F01E
0FE0
0FE0
0FE0
0FE0
ENDCHAR
STARTCHAR Eogonek
ENCODING 280
SWIDTH 377 0
DWIDTH 19 0
BBX 15 41 2 -11
BITMAP
FFFE
FFFE
FFFE
FFFE
F000
F000
F000
F000
F000
F000
F000
FFFE
FFFE
FFFE
FFFE
F000
F000
F000
F000
F000
F000
F000
F000
F000
F000
F000
FFFE
FFFE
FFFE
FFFE
01E0
01E0
01E0
0FE0
0F00
0F00
0F00
01FE
01FE
01FE
01FE
ENDCHAR
STARTCHAR eogonek
ENCODING 281
SWIDTH 382 0
DWIDTH 19 0
BBX 15 34 2 -11
BITMAP
0FE0
0FE0
0FE0
0FE0
FFFE
F01E
F01E
F01E
FFFE
FFFE
FFFE
FFFE
F000
F000
F000
F01E
F01E
F01E
F01E
0FE0
0FE0
0FE0
0FE0
01E0
01E0
01E0
0FE0
0F00
0F00
0F00
01FE
01FE
01FE
01FE
ENDCHAR
STARTCHAR Ecaron
ENCODING 282
SWIDTH 377 0
DWIDTH 19 0
BBX 15 41 2 0
BITMAP
3C78
3C78
3C78
3C78
0780
0780
0780
0780
0000
0000
0000
FFFE
FFFE
FFFE
FFFE
F000
F000
F000
F000
F000
F000
F000
FFFE
FFFE
FFFE
FFFE
F000
F000
F000
F000
F000
F000
F000
F000
F000
F000
F000
FFFE
FFFE
FFFE
FFFE
ENDCHAR
STARTCHAR ecaron
ENCODING 283
SWIDTH 382 0
DWIDTH 19 0
BBX 15 34 2 0
BITMAP
3C78
3C78
3C78
3C78
03C0
03C0
03C0
03C0
0000
0000
0000
0FE0
0FE0
0FE0
0FE0
FFFE
F01E
F01E
F01E
FFFE
FFFE
FFFE
FFFE
F000
F000
F000
F01E
F01E
F01E
F01E
0FE0
0FE0
0FE0
0FE0
ENDCHAR
STARTCHAR Gbreve
ENCODING 286
SWIDTH 456 0
DWIDTH 23 0
BBX 19 41 2 0
BITMAP
3C0780
3C0780
3C0780
3C0780
03F800
03F800
03F800
03F800
000000
000000
000000
0FFE00
0FFE00
0FFE00
0FFE00
F001E0
F001E0
F001E0
F001E0
F00000
F00000
F00000
F1FFE0
F1FFE0
F1FFE0
F1FFE0
F001E0
F001E0
F001E0
F001E0
F001E0
F001E0
F001E0
F01FE0
F01FE0
F01FE0
F01FE0
0FE1E0
0FE1E0
0FE1E0
0FE1E0
ENDCHAR
STARTCHAR gbreve
ENCODING 287
SWIDTH 378 0
DWIDTH 19 0
BBX 15 45 2 -11
BITMAP
F01E
F01E
F01E
F01E
0FE0
0FE0
0FE0
0FE0
0000
0000
0000
1FFE
1FFE
1FFE
1FFE
FFFE
F01E
F01E
F01E
F01E
F01E
F01E
F01E
F01E
F01E
F01E
F01E
F01E
F01E
F01E
1FFE
1FFE
1FFE
1FFE
001E
001E
001E
F01E
F01E
F01E
F01E
1FE0
1FE0
1FE0
1FE0
ENDCHAR
STARTCHAR Gdotaccent
ENCODING 288
SWIDTH 456 0
DWIDTH 23 0
BBX 19 37 2 0
BITMAP
01E000
01E000
01E000
01E000
000000
000000
000000
0FFE00
0FFE00
0FFE00
0FFE00
F001E0
F001E0
F001E0
F001E0
F00000
F00000
F00000
F1FFE0
F1FFE0
F1FFE0
F1FFE0
F001E0
F001E0
F001E0
F001E0
F001E0
F001E0
F001E0
F01FE0
F01FE0
F01FE0
F01FE0
0FE1E0
0FE1E0
0FE1E0
0FE1E0
ENDCHAR
STARTCHAR gdotaccent
ENCODING 289
SWIDTH 378 0
DWIDTH 19 0
BBX 15 41 2 -11
BITMAP
0780
0780
0780
0780
0000
0000
0000
1FFE
1FFE
1FFE
1FFE
FFFE
F01E
F01E
F01E
F01E
F01E
F01E
F01E
F01E
F01E
F01E
F01E
F01E
F01E
F01E
1FFE
1FFE
1FFE
1FFE
001E
001E
001E
F01E
F01E
F01E
F01E
1FE0
1FE0
1FE0
1FE0
ENDCHAR
STARTCHAR Gcommaaccent
ENCODING 290
SWIDTH 456 0
DWIDTH 23 0
BBX 19 41 2 -11
BITMAP
0FFE00
0FFE00
0FFE00
0FFE00
F001E0
F001E0
F001E0
F001E0
F00000
F00000
F00000
F1FFE0
F1FFE0
F1FFE0
F1FFE0
F001E0
F001E0
F001E0
F001E0
F001E0
F001E0
F001E0
F01FE0
F01FE0
F01FE0
F01FE0
0FE1E0
0FE1E0
0FE1E0
0FE1E0
000000
000000
000000
00F000
00F000
00F000
00F000
0F0000
0F0000
0F0000
0F0000
ENDCHAR
STARTCHAR gcommaaccent
ENCODING 291
SWIDTH 382 0
DWIDTH 19 0
BBX 15 45 2 -11
BITMAP
001E
001E
001E
001E
01E0
01E0
01E0
01E0
0000
0000
0000
0FFE
0FFE
0FFE
0FFE
FFFE
F01E
F01E
F01E
F01E
F01E
F01E
F01E
F01E
F01E
F01E
F01E
F01E
F01E
F01E
0FFE
0FFE
0FFE
0FFE
001E
001E
001E
F01E
F01E
F01E
F01E
0FE0
0FE0
0FE0
0FE0
ENDCHAR
STARTCHAR Hbar
ENCODING 294
SWIDTH 456 0
DWIDTH 23 0
BBX 19 30 2 0
BITMAP
F001E0
F001E0
F001E0
F001E0
FFFFE0
FFFFE0
FFFFE0
FFFFE0
F001E0
F001E0
F001E0
FFFFE0
FFFFE0
FFFFE0
FFFFE0
F001E0
F001E0
F001E0
F001E0
F001E0
F001E0
F001E0
F001E0
F001E0
F001E0
F001E0
F001E0
F001E0
F001E0
F001E0
ENDCHAR
STARTCHAR hbar
ENCODING 295
SWIDTH 409 0
DWIDTH 20 0
BBX 19 30 0 0
BITMAP
0F0000
0F0000
0F0000
0F0000
FFFE00
FFFE00
FFFE00
FFFE00
0F0000
0F0000
0F0000
0FFE00
0FFE00
0FFE00
0FFE00
0F01E0
0F01E0
0F01E0
0F01E0
0F01E0
0F01E0
0F01E0
0F01E0
0F01E0
0F01E0
0F01E0
0F01E0
0F01E0
0F01E0
0F01E0
ENDCHAR
STARTCHAR Itilde
ENCODING 296
SWIDTH 160 0
DWIDTH 8 0
BBX 16 41 -4 0
BITMAP
0F0F
0F0F
0F0F
0F0F
F8F0
F8F0
F8F0
F8F0
0000
0000
0000
03C0
03C0
03C0
03C0
03C0
03C0
03C0
03C0
03C0
03C0
03C0
03C0
03C0
03C0
03C0
03C0
03C0
03C0
03C0
03C0
03C0
03C0
03C0
03C0
03C0
03C0
03C0
03C0
03C0
03C0
ENDCHAR
STARTCHAR itilde
ENCODING 297
SWIDTH 169 0
DWIDTH 8 0
BBX 15 34 -3 0
BITMAP
1E1E
1E1E
1E1E
1E1E
F1E0
F1E0
F1E0
F1E0
0000
0000
0000
0780
0780
0780
0780
0780
0780
0780
0780
0780
0780
0780
0780
0780
0780
0780
0780
0780
0780
0780
0780
0780
0780
0780
ENDCHAR
STARTCHAR uni012A
ENCODING 298
SWIDTH 160 0
DWIDTH 8 0
BBX 16 37 -4 0
BITMAP
FFFF
FFFF
FFFF
FFFF
0000
0000
0000
03C0
03C0
03C0
03C0
03C0
03C0
03C0
03C0
03C0
03C0
03C0
03C0
03C0
03C0
03C0
03C0
03C0
03C0
03C0
03C0
03C0
03C0
03C0
03C0
03C0
03C0
03C0
03C0
03C0
03C0
ENDCHAR
STARTCHAR imacron
ENCODING 299
SWIDTH 169 0
DWIDTH 8 0
BBX 15 30 -3 0
BITMAP
FFFE
FFFE
FFFE
FFFE
0000
0000
0000
0780
0780
0780
0780
0780
0780
0780
0780
0780
0780
0780
0780
0780
0780
0780
0780
0780
0780
0780
0780
0780
0780
0780
ENDCHAR
STARTCHAR Ibreve
ENCODING 300
SWIDTH 160 0
DWIDTH 8 0
BBX 16 41 -4 0
BITMAP
F80F
F80F
F80F
F80F
0FF0
0FF0
0FF0
0FF0
0000
0000
0000
03C0
03C0
03C0
03C0
03C0
03C0
03C0
03C0
03C0
03C0
03C0
03C0
03C0
03C0
03C0
03C0
03C0
03C0
03C0
03C0
03C0
03C0
03C0
03C0
03C0
03C0
03C0
03C0
03C0
03C0
ENDCHAR
STARTCHAR ibreve
ENCODING 301
SWIDTH 169 0
DWIDTH 8 0
BBX 15 34 -3 0
BITMAP
F01E
F01E
F01E
F01E
1FE0
1FE0
1FE0
1FE0
0000
0000
0000
0780
0780
0780
0780
0780
0780
0780
0780
0780
0780
0780
0780
0780
0780
0780
0780
0780
0780
0780
0780
0780
0780
0780
ENDCHAR
STARTCHAR Iogonek
ENCODING 302
SWIDTH 160 0
DWIDTH 8 0
BBX 12 41 -2 -11
BITMAP
0F00
0F00
0F00
0F00
0F00
0F00
0F00
0F00
0F00
0F00
0F00
0F00
0F00
0F00
0F00
0F00
0F00
0F00
0F00
0F00
0F00
0F00
0F00
0F00
0F00
0F00
0F00
0F00
0F00
0F00
0F00
0F00
0F00
FF00
F000
F000
F000
0FF0
0FF0
0FF0
0FF0
ENDCHAR
STARTCHAR iogonek
ENCODING 303
SWIDTH 160 0
DWIDTH 8 0
BBX 12 34 -2 -11
BITMAP
0F00
0F00
0F00
0F00
0F00
0F00
0F00
0F00
0F00
0F00
0F00
0F00
0F00
0F00
0F00
0F00
0F00
0F00
0F00
0F00
0F00
0F00
0F00
0F00
0F00
0F00
FF00
F000
F000
F000
0FF0
0FF0
0FF0
0FF0
ENDCHAR
STARTCHAR Idotaccent
ENCODING 304
SWIDTH 160 0
DWIDTH 8 0
BBX 4 37 2 0
BITMAP
F0
F0
F0
F0
00
00
00
F0
F0
F0
F0
F0
F0
F0
F0
F0
F0
F0
F0
F0
F0
F0
F0
F0
F0
F0
F0
F0
F0
F0
F0
F0
F0
F0
F0
F0
F0
ENDCHAR
STARTCHAR dotlessi
ENCODING 305
SWIDTH 169 0
DWIDTH 8 0
BBX 4 23 2 0
BITMAP
F0
F0
F0
F0
F0
F0
F0
F0
F0
F0
F0
F0
F0
F0
F0
F0
F0
F0
F0
F0
F0
F0
F0
ENDCHAR
STARTCHAR IJ
ENCODING 306
SWIDTH 500 0
DWIDTH 25 0
BBX 21 30 2 0
BITMAP
F00078
F00078
F00078
F00078
F00078
F00078
F00078
F00078
F00078
F00078
F00078
F00078
F00078
F00078
F00078
F00078
F00078
F00078
F00078
F3C078
F3C078
F3C078
F3C078
F3C078
F3C078
F3C078
F03F80
F03F80
F03F80
F03F80
ENDCHAR
STARTCHAR ij
ENCODING 307
SWIDTH 303 0
DWIDTH 15 0
BBX 11 41 2 -11
BITMAP
F1E0
F1E0
F1E0
F1E0
0000
0000
0000
F1E0
F1E0
F1E0
F1E0
F1E0
F1E0
F1E0
F1E0
F1E0
F1E0
F1E0
F1E0
F1E0
F1E0
F1E0
F1E0
F1E0
F1E0
F1E0
F1E0
F1E0
F1E0
F1E0
01E0
01E0
01E0
01E0
01E0
01E0
01E0
1F00
1F00
1F00
1F00
ENDCHAR
STARTCHAR Kcommaaccent
ENCODING 310
SWIDTH 438 0
DWIDTH 22 0
BBX 19 41 2 -11
BITMAP
F01E00
F01E00
F01E00
F01E00
F1E000
F1E000
F1E000
FFE000
FF0000
FF0000
FF0000
FFE000
F1E000
F1E000
F1E000
F1E000
F1E000
F1E000
F1E000
F01E00
F01E00
F01E00
F01E00
F01E00
F01E00
F01E00
F001E0
F001E0
F001E0
F001E0
000000
000000
000000
03C000
03C000
03C000
03C000
1E0000
1E0000
1E0000
1E0000
ENDCHAR
STARTCHAR kcommaaccent
ENCODING 311
SWIDTH 375 0
DWIDTH 19 0
BBX 15 41 2 -11
BITMAP
F000
F000
F000
F000
F000
F000
F000
F01E
F01E
F01E
F01E
F1FE
F1E0
F1E0
F1E0
FF00
FF00
FF00
FF00
FF00
FF00
FF00
FFE0
F1E0
F1E0
F1E0
F01E
F01E
F01E
F01E
0000
0000
0000
01E0
01E0
01E0
01E0
1F00
1F00
1F00
1F00
ENDCHAR
STARTCHAR Lacute
ENCODING 313
SWIDTH 355 0
DWIDTH 18 0
BBX 17 41 0 0
BITMAP
0F0000
0F0000
0F0000
0F0000
F00000
F00000
F00000
F00000
000000
000000
000000
3C0000
3C0000
3C0000
3C0000
3C0000
3C0000
3C0000
3C0000
3C0000
3C0000
3C0000
3C0000
3C0000
3C0000
3C0000
3C0000
3C0000
3C0000
3C0000
3C0000
3C0000
3C0000
3C0000
3C0000
3C0000
3C0000
3FFF80
3FFF80
3FFF80
3FFF80
ENDCHAR
STARTCHAR lacute
ENCODING 314
SWIDTH 160 0
DWIDTH 8 0
BBX 8 41 0 0
BITMAP
0F
0F
0F
0F
F0
F0
F0
F0
00
00
00
3C
3C
3C
3C
3C
3C
3C
3C
3C
3C
3C
3C
3C
3C
3C
3C
3C
3C
3C
3C
3C
3C
3C
3C
3C
3C
3C
3C
3C
3C
ENDCHAR
STARTCHAR Lcommaaccent
ENCODING 315
SWIDTH 355 0
DWIDTH 18 0
BBX 15 41 2 -11
BITMAP
F000
F000
F000
F000
F000
F000
F000
F000
F000
F000
F000
F000
F000
F000
F000
F000
F000
F000
F000
F000
F000
F000
F000
F000
F000
F000
FFFE
FFFE
FFFE
FFFE
0000
0000
0000
03C0
03C0
03C0
03C0
3C00
3C00
3C00
3C00
ENDCHAR
STARTCHAR lcommaaccent
ENCODING 316
SWIDTH 160 0
DWIDTH 8 0
BBX 8 41 -2 -11
BITMAP
0F
0F
0F
0F
0F
0F
0F
0F
0F
0F
0F
0F
0F
0F
0F
0F
0F
0F
0F
0F
0F
0F
0F
0F
0F
0F
0F
0F
0F
0F
00
00
00
0F
0F
0F
0F
F0
F0
F0
F0
ENDCHAR
STARTCHAR Lcaron
ENCODING 317
SWIDTH 355 0
DWIDTH 18 0
BBX 15 30 2 0
BITMAP
F03C
F03C
F03C
F03C
F3C0
F3C0
F3C0
F3C0
F000
F000
F000
F000
F000
F000
F000
F000
F000
F000
F000
F000
F000
F000
F000
F000
F000
F000
FFFE
FFFE
FFFE
FFFE
ENDCHAR
STARTCHAR lcaron
ENCODING 318
SWIDTH 298 0
DWIDTH 15 0
BBX 13 30 2 0
BITMAP
F078
F078
F078
F078
F780
F780
F780
F780
F000
F000
F000
F000
F000
F000
F000
F000
F000
F000
F000
F000
F000
F000
F000
F000
F000
F000
F000
F000
F000
F000
ENDCHAR
STARTCHAR Ldot
ENCODING 319
SWIDTH 355 0
DWIDTH 18 0
BBX 15 30 2 0
BITMAP
F000
F000
F000
F000
F000
F000
F000
F000
F000
F000
F000
F1E0
F1E0
F1E0
F1E0
F000
F000
F000
F000
F000
F000
F000
F000
F000
F000
F000
FFFE
FFFE
FFFE
FFFE
ENDCHAR
STARTCHAR ldot
ENCODING 320
SWIDTH 228 0
DWIDTH 11 0
BBX 9 30 2 0
BITMAP
F000
F000
F000
F000
F000
F000
F000
F000
F000
F000
F000
F780
F780
F780
F780
F000
F000
F000
F000
F000
F000
F000
F000
F000
F000
F000
F000
F000
F000
F000
ENDCHAR
STARTCHAR Lslash
ENCODING 321
SWIDTH 396 0
DWIDTH 20 0
BBX 19 30 0 0
BITMAP
0F0000
0F0000
0F0000
0F0000
0F0000
0F0000
0F0000
0F1E00
0F1E00
0F1E00
0F1E00
0FFE00
0FF000
0FF000
0FF000
FF0000
FF0000
FF0000
FF0000
0F0000
0F0000
0F0000
0F0000
0F0000
0F0000
0F0000
0FFFE0
0FFFE0
0FFFE0
0FFFE0
ENDCHAR
STARTCHAR lslash
ENCODING 322
SWIDTH 247 0
DWIDTH 12 0
BBX 12 30 0 0
BITMAP
0F00
0F00
0F00
0F00
0F00
0F00
0F00
0F00
0F00
0F00
0F00
0FF0
0FF0
0FF0
0FF0
FF00
FF00
FF00
FF00
0F00
0F00
0F00
0F00
0F00
0F00
0F00
0F00
0F00
0F00
0F00
ENDCHAR
STARTCHAR Nacute
ENCODING 323
SWIDTH 456 0
DWIDTH 23 0
BBX 19 41 2 0
BITMAP
007800
007800
007800
007800
03C000
03C000
03C000
03C000
000000
000000
000000
F001E0
F001E0
F001E0
F001E0
FF01E0
FF01E0
FF01E0
FF01E0
FF01E0
FF01E0
FF01E0
FFE1E0
F1E1E0
F1E1E0
F1E1E0
F1E1E0
F1E1E0
F1E1E0
F1E1E0
F01FE0
F01FE0
F01FE0
F01FE0
F01FE0
F01FE0
F01FE0
F001E0
F001E0
F001E0
F001E0
ENDCHAR
STARTCHAR nacute
ENCODING 324
SWIDTH 380 0
DWIDTH 19 0
BBX 15 34 2 0
BITMAP
01E0
01E0
01E0
01E0
0F00
0F00
0F00
0F00
0000
0000
0000
FFE0
FFE0
FFE0
FFE0
FFFE
F01E
F01E
F01E
F01E
F01E
F01E
F01E
F01E
F01E
F01E
F01E
F01E
F01E
F01E
F01E
F01E
F01E
F01E
ENDCHAR
STARTCHAR Ncommaaccent
ENCODING 325
SWIDTH 456 0
DWIDTH 23 0
BBX 19 41 2 -11
BITMAP
F001E0
F001E0
F001E0
F001E0
FF01E0
FF01E0
FF01E0
FF01E0
FF01E0
FF01E0
FF01E0
FFE1E0
F1E1E0
F1E1E0
F1E1E0
F1E1E0
F1E1E0
F1E1E0
F1E1E0
F01FE0
F01FE0
F01FE0
F01FE0
F01FE0
F01FE0
F01FE0
F001E0
F001E0
F001E0
F001E0
000000
000000
000000
01E000
01E000
01E000
01E000
1E0000
1E0000
1E0000
1E0000
ENDCHAR
STARTCHAR ncommaaccent
ENCODING 326
SWIDTH 380 0
DWIDTH 19 0
BBX 15 34 2 -11
BITMAP
FFE0
FFE0
FFE0
FFE0
FFFE
F01E
F01E
F01E
F01E
F01E
F01E
F01E
F01E
F01E
F01E
F01E
F01E
F01E
F01E
F01E
F01E
F01E
F01E
0000
0000
0000
0780
0780
0780
0780
7C00
7C00
7C00
7C00
ENDCHAR
STARTCHAR Ncaron
ENCODING 327
SWIDTH 456 0
DWIDTH 23 0
BBX 19 41 2 0
BITMAP
0F1E00
0F1E00
0F1E00
0F1E00
01E000
01E000
01E000
01E000
000000
000000
000000
F001E0
F001E0
F001E0
F001E0
FF01E0
FF01E0
FF01E0
FF01E0
FF01E0
FF01E0
FF01E0
FFE1E0
F1E1E0
F1E1E0
F1E1E0
F1E1E0
F1E1E0
F1E1E0
F1E1E0
F01FE0
F01FE0
F01FE0
F01FE0
F01FE0
F01FE0
F01FE0
F001E0
F001E0
F001E0
F001E0
ENDCHAR
STARTCHAR ncaron
ENCODING 328
SWIDTH 380 0
DWIDTH 19 0
BBX 15 34 2 0
BITMAP
3C78
3C78
3C78
3C78
07C0
07C0
07C0
07C0
0000
0000
0000
FFE0
FFE0
FFE0
FFE0
FFFE
F01E
F01E
F01E
F01E
F01E
F01E
F01E
F01E
F01E
F01E
F01E
F01E
F01E
F01E
F01E
F01E
F01E
F01E
ENDCHAR
STARTCHAR Eng
ENCODING 330
SWIDTH 456 0
DWIDTH 23 0
BBX 19 41 2 -11
BITMAP
F001E0
F001E0
F001E0
F001E0
FF01E0
FF01E0
FF01E0
FF01E0
FF01E0
FF01E0
FF01E0
FFE1E0
F1E1E0
F1E1E0
F1E1E0
F1E1E0
F1E1E0
F1E1E0
F1E1E0
F01FE0
F01FE0
F01FE0
F01FE0
F01FE0
F01FE0
F01FE0
F001E0
F001E0
F001E0
F001E0
0001E0
0001E0
0001E0
0001E0
0001E0
0001E0
0001E0
001E00
001E00
001E00
001E00
ENDCHAR
STARTCHAR eng
ENCODING 331
SWIDTH 382 0
DWIDTH 19 0
BBX 15 34 2 -11
BITMAP
FFE0
FFE0
FFE0
FFE0
FFFE
F01E
F01E
F01E
F01E
F01E
F01E
F01E
F01E
F01E
F01E
F01E
F01E
F01E
F01E
F01E
F01E
F01E
F01E
001E
001E
001E
001E
001E
001E
001E
01E0
01E0
01E0
01E0
ENDCHAR
STARTCHAR Omacron
ENCODING 332
SWIDTH 456 0
DWIDTH 23 0
BBX 19 37 2 0
BITMAP
3FFF80
3FFF80
3FFF80
3FFF80
000000
000000
000000
0FFE00
0FFE00
0FFE00
0FFE00
F001E0
F001E0
F001E0
F001E0
F001E0
F001E0
F001E0
F001E0
F001E0
F001E0
F001E0
F001E0
F001E0
F001E0
F001E0
F001E0
F001E0
F001E0
F001E0
F001E0
F001E0
F001E0
0FFE00
0FFE00
0FFE00
0FFE00
ENDCHAR
STARTCHAR omacron
ENCODING 333
SWIDTH 373 0
DWIDTH 19 0
BBX 15 30 2 0
BITMAP
FFFE
FFFE
FFFE
FFFE
0000
0000
0000
1FE0
1FE0
1FE0
1FE0
FFFE
F01E
F01E
F01E
F01E
F01E
F01E
F01E
F01E
F01E
F01E
F01E
F01E
F01E
F01E
1FE0
1FE0
1FE0
1FE0
ENDCHAR
STARTCHAR Obreve
ENCODING 334
SWIDTH 456 0
DWIDTH 23 0
BBX 19 41 2 0
BITMAP
3C0780
3C0780
3C0780
3C0780
03F800
03F800
03F800
03F800
000000
000000
000000
0FFE00
0FFE00
0FFE00
0FFE00
F001E0
F001E0
F001E0
F001E0
F001E0
F001E0
F001E0
F001E0
F001E0
F001E0
F001E0
F001E0
F001E0
F001E0
F001E0
F001E0
F001E0
F001E0
F001E0
F001E0
F001E0
F001E0
0FFE00
0FFE00
0FFE00
0FFE00
ENDCHAR
STARTCHAR obreve
ENCODING 335
SWIDTH 373 0
DWIDTH 19 0
BBX 15 34 2 0
BITMAP
F01E
F01E
F01E
F01E
0FE0
0FE0
0FE0
0FE0
0000
0000
0000
1FE0
1FE0
1FE0
1FE0
FFFE
F01E
F01E
F01E
F01E
F01E
F01E
F01E
F01E
F01E
F01E
F01E
F01E
F01E
F01E
1FE0
1FE0
1FE0
1FE0
ENDCHAR
STARTCHAR Ohungarumlaut
ENCODING 336
SWIDTH 456 0
DWIDTH 23 0
BBX 19 44 2 0
BITMAP
0F01E0
0F01E0
0F01E0
0F01E0
0F01E0
0F01E0
0F01E0
F01E00
F01E00
F01E00
F01E00
000000
000000
000000
0FFE00
0FFE00
0FFE00
0FFE00
F001E0
F001E0
F001E0
F001E0
F001E0
F001E0
F001E0
F001E0
F001E0
F001E0
F001E0
F001E0
F001E0
F001E0
F001E0
F001E0
F001E0
F001E0
F001E0
F001E0
F001E0
F001E0
0FFE00
0FFE00
0FFE00
0FFE00
ENDCHAR
STARTCHAR ohungarumlaut
ENCODING 337
SWIDTH 373 0
DWIDTH 19 0
BBX 19 37 0 0
BITMAP
0F01E0
0F01E0
0F01E0
0F01E0
0F01E0
0F01E0
0F01E0
F01E00
F01E00
F01E00
F01E00
000000
000000
000000
07F800
07F800
07F800
07F800
3FFF80
3C0780
3C0780
3C0780
3C0780
3C0780
3C0780
3C0780
3C0780
3C0780
3C0780
3C0780
3C0780
3C0780
3C0780
07F800
07F800
07F800
07F800
ENDCHAR
STARTCHAR OE
ENCODING 338
SWIDTH 666 0
DWIDTH 33 0
BBX 30 30 2 0
BITMAP
1FFFFFFC
1FFFFFFC
1FFFFFFC
1FFFFFFC
F001E000
F001E000
F001E000
F001E000
F001E000
F001E000
F001E000
F001FFFC
F001FFFC
F001FFFC
F001FFFC
F001E000
F001E000
F001E000
F001E000
F001E000
F001E000
F001E000
F001E000
F001E000
F001E000
F001E000
1FFFFFFC
1FFFFFFC
1FFFFFFC
1FFFFFFC
ENDCHAR
STARTCHAR oe
ENCODING 339
SWIDTH 597 0
DWIDTH 30 0
BBX 26 23 2 0
BITMAP
1FE3FC00
1FE3FC00
1FE3FC00
1FE3FC00
FFFFFFC0
F01E03C0
F01E03C0
F01E03C0
F01FFFC0
F01FFFC0
F01FFFC0
F01FFFC0
F01E0000
F01E0000
F01E0000
F01E03C0
F01E03C0
F01E03C0
F01E03C0
1FE3FC00
1FE3FC00
1FE3FC00
1FE3FC00
ENDCHAR
STARTCHAR Racute
ENCODING 340
SWIDTH 456 0
DWIDTH 23 0
BBX 19 41 2 0
BITMAP
007800
007800
007800
007800
03C000
03C000
03C000
03C000
000000
000000
000000
FFFE00
FFFE00
FFFE00
FFFE00
F001E0
F001E0
F001E0
F001E0
F001E0
F001E0
F001E0
FFFFE0
FFFE00
FFFE00
FFFE00
F01E00
F01E00
F01E00
F01E00
F01E00
F01E00
F01E00
F01FE0
F001E0
F001E0
F001E0
F001E0
F001E0
F001E0
F001E0
ENDCHAR
STARTCHAR racute
ENCODING 341
SWIDTH 292 0
DWIDTH 15 0
BBX 11 34 2 0
BITMAP
0780
0780
0780
0780
7800
7800
7800
7800
0000
0000
0000
F1E0
F1E0
F1E0
F1E0
FFE0
FF00
FF00
FF00
F000
F000
F000
F000
F000
F000
F000
F000
F000
F000
F000
F000
F000
F000
F000
ENDCHAR
STARTCHAR Rcommaaccent
ENCODING 342
SWIDTH 456 0
DWIDTH 23 0
BBX 19 41 2 -11
BITMAP
FFFE00
FFFE00
FFFE00
FFFE00
F001E0
F001E0
F001E0
F001E0
F001E0
F001E0
F001E0
FFFFE0
FFFE00
FFFE00
FFFE00
F01E00
F01E00
F01E00
F01E00
F01E00
F01E00
F01E00
F01FE0
F001E0
F001E0
F001E0
F001E0
F001E0
F001E0
F001E0
000000
000000
000000
01E000
01E000
01E000
01E000
1E0000
1E0000
1E0000
1E0000
ENDCHAR
STARTCHAR rcommaaccent
ENCODING 343
SWIDTH 292 0
DWIDTH 15 0
BBX 15 34 -2 -11
BITMAP
0F1E
0F1E
0F1E
0F1E
0FFE
0FF0
0FF0
0FF0
0F00
0F00
0F00
0F00
0F00
0F00
0F00
0F00
0F00
0F00
0F00
0F00
0F00
0F00
0F00
0000
0000
0000
0F00
0F00
0F00
0F00
F000
F000
F000
F000
ENDCHAR
STARTCHAR Rcaron
ENCODING 344
SWIDTH 456 0
DWIDTH 23 0
BBX 19 41 2 0
BITMAP
0F1E00
0F1E00
0F1E00
0F1E00
01E000
01E000
01E000
01E000
000000
000000
000000
FFFE00
FFFE00
FFFE00
FFFE00
F001E0
F001E0
F001E0
F001E0
F001E0
F001E0
F001E0
FFFFE0
FFFE00
FFFE00
FFFE00
F01E00
F01E00
F01E00
F01E00
F01E00
F01E00
F01E00
F01FE0
F001E0
F001E0
F001E0
F001E0
F001E0
F001E0
F001E0
ENDCHAR
STARTCHAR rcaron
ENCODING 345
SWIDTH 292 0
DWIDTH 15 0
BBX 11 34 2 0
BITMAP
F1E0
F1E0
F1E0
F1E0
1E00
1E00
1E00
1E00
0000
0000
0000
F1E0
F1E0
F1E0
F1E0
FFE0
FF00
FF00
FF00
F000
F000
F000
F000
F000
F000
F000
F000
F000
F000
F000
F000
F000
F000
F000
ENDCHAR
STARTCHAR Sacute
ENCODING 346
SWIDTH 456 0
DWIDTH 23 0
BBX 19 41 2 0
BITMAP
007800
007800
007800
007800
03C000
03C000
03C000
03C000
000000
000000
000000
0FFE00
0FFE00
0FFE00
0FFE00
F001E0
F001E0
F001E0
F001E0
F00000
F00000
F00000
FFFE00
0FFE00
0FFE00
0FFE00
0001E0
0001E0
0001E0
0001E0
F001E0
F001E0
F001E0
F001E0
F001E0
F001E0
F001E0
0FFE00
0FFE00
0FFE00
0FFE00
ENDCHAR
STARTCHAR sacute
ENCODING 347
SWIDTH 372 0
DWIDTH 19 0
BBX 15 34 2 0
BITMAP
01E0
01E0
01E0
01E0
1E00
1E00
1E00
1E00
0000
0000
0000
0FE0
0FE0
0FE0
0FE0
FFE0
F000
F000
F000
0FE0
0FE0
0FE0
0FE0
001E
001E
001E
001E
001E
001E
001E
FFE0
FFE0
FFE0
FFE0
ENDCHAR
STARTCHAR Scedilla
ENCODING 350
SWIDTH 456 0
DWIDTH 23 0
BBX 19 41 2 -11
BITMAP
0FFE00
0FFE00
0FFE00
0FFE00
F001E0
F001E0
F001E0
F001E0
F00000
F00000
F00000
FFFE00
0FFE00
0FFE00
0FFE00
0001E0
0001E0
0001E0
0001E0
F001E0
F001E0
F001E0
F001E0
F001E0
F001E0
F001E0
0FFE00
0FFE00
0FFE00
0FFE00
000000
000000
000000
01E000
01E000
01E000
01E000
0F0000
0F0000
0F0000
0F0000
ENDCHAR
STARTCHAR scedilla
ENCODING 351
SWIDTH 372 0
DWIDTH 19 0
BBX 15 34 2 -11
BITMAP
0FE0
0FE0
0FE0
0FE0
FFE0
F000
F000
F000
0FE0
0FE0
0FE0
0FE0
001E
001E
001E
001E
001E
001E
001E
FFE0
FFE0
FFE0
FFE0
0000
0000
0000
0780
0780
0780
0780
7800
7800
7800
7800
ENDCHAR
STARTCHAR Scaron
ENCODING 352
SWIDTH 456 0
DWIDTH 23 0
BBX 19 41 2 0
BITMAP
0F1E00
0F1E00
0F1E00
0F1E00
01E000
01E000
01E000
01E000
000000
000000
000000
0FFE00
0FFE00
0FFE00
0FFE00
F001E0
F001E0
F001E0
F001E0
F00000
F00000
F00000
FFFE00
0FFE00
0FFE00
0FFE00
0001E0
0001E0
0001E0
0001E0
F001E0
F001E0
F001E0
F001E0
F001E0
F001E0
F001E0
0FFE00
0FFE00
0FFE00
0FFE00
ENDCHAR
STARTCHAR scaron
ENCODING 353
SWIDTH 372 0
DWIDTH 19 0
BBX 15 34 2 0
BITMAP
3C78
3C78
3C78
3C78
0780
0780
0780
0780
0000
0000
0000
0FE0
0FE0
0FE0
0FE0
FFE0
F000
F000
F000
0FE0
0FE0
0FE0
0FE0
001E
001E
001E
001E
001E
001E
001E
FFE0
FFE0
FFE0
FFE0
ENDCHAR
STARTCHAR Tcommaaccent
ENCODING 354
SWIDTH 409 0
DWIDTH 20 0
BBX 19 41 1 -11
BITMAP
FFFFE0
FFFFE0
FFFFE0
FFFFE0
01E000
01E000
01E000
01E000
01E000
01E000
01E000
01E000
01E000
01E000
01E000
01E000
01E000
01E000
01E000
01E000
01E000
01E000
01E000
01E000
01E000
01E000
01E000
01E000
01E000
01E000
000000
000000
000000
01E000
01E000
01E000
01E000
0F0000
0F0000
0F0000
0F0000
ENDCHAR
STARTCHAR tcommaaccent
ENCODING 355
SWIDTH 284 0
DWIDTH 14 0
BBX 12 41 1 -11
BITMAP
0F00
0F00
0F00
0F00
0F00
0F00
0F00
FFF0
FFF0
FFF0
FFF0
FFF0
0F00
0F00
0F00
0F00
0F00
0F00
0F00
0F00
0F00
0F00
0F00
0F00
0F00
0F00
00F0
00F0
00F0
00F0
0000
0000
0000
0F00
0F00
0F00
0F00
F000
F000
F000
F000
ENDCHAR
STARTCHAR Tcaron
ENCODING 356
SWIDTH 409 0
DWIDTH 20 0
BBX 19 41 1 0
BITMAP
1F1E00
1F1E00
1F1E00
1F1E00
01E000
01E000
01E000
01E000
000000
000000
000000
FFFFE0
FFFFE0
FFFFE0
FFFFE0
01E000
01E000
01E000
01E000
01E000
01E000
01E000
01E000
01E000
01E000
01E000
01E000
01E000
01E000
01E000
01E000
01E000
01E000
01E000
01E000
01E000
01E000
01E000
01E000
01E000
01E000
ENDCHAR
STARTCHAR tcaron
ENCODING 357
SWIDTH 427 0
DWIDTH 21 0
BBX 20 30 2 0
BITMAP
0F00F0
0F00F0
0F00F0
0F00F0
0F0780
0F0780
0F0780
FFE780
FFE000
FFE000
FFE000
FFE000
0F0000
0F0000
0F0000
0F0000
0F0000
0F0000
0F0000
0F0000
0F0000
0F0000
0F0000
0F0000
0F0000
0F0000
01E000
01E000
01E000
01E000
ENDCHAR
STARTCHAR Tbar
ENCODING 358
SWIDTH 407 0
DWIDTH 20 0
BBX 19 30 1 0
BITMAP
FFFFE0
FFFFE0
FFFFE0
FFFFE0
01E000
01E000
01E000
01E000
01E000
01E000
01E000
0FFE00
0FFE00
0FFE00
0FFE00
01E000
01E000
01E000
01E000
01E000
01E000
01E000
01E000
01E000
01E000
01E000
01E000
01E000
01E000
01E000
ENDCHAR
STARTCHAR tbar
ENCODING 359
SWIDTH 308 0
DWIDTH 15 0
BBX 11 30 2 0
BITMAP
0F00
0F00
0F00
0F00
0F00
0F00
0F00
FFE0
FFE0
FFE0
FFE0
FFE0
0F00
0F00
0F00
FFE0
FFE0
FFE0
FFE0
0F00
0F00
0F00
0F00
0F00
0F00
0F00
01E0
01E0
01E0
01E0
ENDCHAR
STARTCHAR Utilde
ENCODING 360
SWIDTH 456 0
DWIDTH 23 0
BBX 19 41 2 0
BITMAP
03C780
03C780
03C780
03C780
3C7800
3C7800
3C7800
3C7800
000000
000000
000000
F001E0
F001E0
F001E0
F001E0
F001E0
F001E0
F001E0
F001E0
F001E0
F001E0
F001E0
F001E0
F001E0
F001E0
F001E0
F001E0
F001E0
F001E0
F001E0
F001E0
F001E0
F001E0
F001E0
F001E0
F001E0
F001E0
0FFE00
0FFE00
0FFE00
0FFE00
ENDCHAR
STARTCHAR utilde
ENCODING 361
SWIDTH 378 0
DWIDTH 19 0
BBX 15 34 2 0
BITMAP
0F1E
0F1E
0F1E
0F1E
F1E0
F1E0
F1E0
F1E0
0000
0000
0000
F01E
F01E
F01E
F01E
F01E
F01E
F01E
F01E
F01E
F01E
F01E
F01E
F01E
F01E
F01E
F01E
F01E
F01E
F01E
1FFE
1FFE
1FFE
1FFE
ENDCHAR
STARTCHAR Umacron
ENCODING 362
SWIDTH 456 0
DWIDTH 23 0
BBX 19 37 2 0
BITMAP
3FFF80
3FFF80
3FFF80
3FFF80
000000
000000
000000
F001E0
F001E0
F001E0
F001E0
F001E0
F001E0
F001E0
F001E0
F001E0
F001E0
F001E0
F001E0
F001E0
F001E0
F001E0
F001E0
F001E0
F001E0
F001E0
F001E0
F001E0
F001E0
F001E0
F001E0
F001E0
F001E0
0FFE00
0FFE00
0FFE00
0FFE00
ENDCHAR
STARTCHAR umacron
ENCODING 363
SWIDTH 378 0
DWIDTH 19 0
BBX 15 30 2 0
BITMAP
FFFE
FFFE
FFFE
FFFE
0000
0000
0000
F01E
F01E
F01E
F01E
F01E
F01E
F01E
F01E
F01E
F01E
F01E
F01E
F01E
F01E
F01E
F01E
F01E
F01E
F01E
1FFE
1FFE
1FFE
1FFE
ENDCHAR
STARTCHAR Ubreve
ENCODING 364
SWIDTH 456 0
DWIDTH 23 0
BBX 19 41 2 0
BITMAP
3C0780
3C0780
3C0780
3C0780
03F800
03F800
03F800
03F800
000000
000000
000000
F001E0
F001E0
F001E0
F001E0
F001E0
F001E0
F001E0
F001E0
F001E0
F001E0
F001E0
F001E0
F001E0
F001E0
F001E0
F001E0
F001E0
F001E0
F001E0
F001E0
F001E0
F001E0
F001E0
F001E0
F001E0
F001E0
0FFE00
0FFE00
0FFE00
0FFE00
ENDCHAR
STARTCHAR ubreve
ENCODING 365
SWIDTH 378 0
DWIDTH 19 0
BBX 15 34 2 0
BITMAP
F01E
F01E
F01E
F01E
0FE0
0FE0
0FE0
0FE0
0000
0000
0000
F01E
F01E
F01E
F01E
F01E
F01E
F01E
F01E
F01E
F01E
F01E
F01E
F01E
F01E
F01E
F01E
F01E
F01E
F01E
1FFE
1FFE
1FFE
1FFE
ENDCHAR
STARTCHAR Uring
ENCODING 366
SWIDTH 456 0
DWIDTH 23 0
BBX 19 44 2 0
BITMAP
01E000
01E000
01E000
0FFE00
0F1E00
0F1E00
0F1E00
01E000
01E000
01E000
01E000
000000
000000
000000
F001E0
F001E0
F001E0
F001E0
F001E0
F001E0
F001E0
F001E0
F001E0
F001E0
F001E0
F001E0
F001E0
F001E0
F001E0
F001E0
F001E0
F001E0
F001E0
F001E0
F001E0
F001E0
F001E0
F001E0
F001E0
F001E0
0FFE00
0FFE00
0FFE00
0FFE00
ENDCHAR
STARTCHAR uring
ENCODING 367
SWIDTH 378 0
DWIDTH 19 0
BBX 15 37 2 0
BITMAP
0780
0780
0780
3FF8
3C78
3C78
3C78
0780
0780
0780
0780
0000
0000
0000
F01E
F01E
F01E
F01E
F01E
F01E
F01E
F01E
F01E
F01E
F01E
F01E
F01E
F01E
F01E
F01E
F01E
F01E
F01E
1FFE
1FFE
1FFE
1FFE
ENDCHAR
STARTCHAR Uhungarumlaut
ENCODING 368
SWIDTH 456 0
DWIDTH 23 0
BBX 19 44 2 0
BITMAP
0F01E0
0F01E0
0F01E0
0F01E0
0F01E0
0F01E0
0F01E0
F01E00
F01E00
F01E00
F01E00
000000
000000
000000
F001E0
F001E0
F001E0
F001E0
F001E0
F001E0
F001E0
F001E0
F001E0
F001E0
F001E0
F001E0
F001E0
F001E0
F001E0
F001E0
F001E0
F001E0
F001E0
F001E0
F001E0
F001E0
F001E0
F001E0
F001E0
F001E0
0FFE00
0FFE00
0FFE00
0FFE00
ENDCHAR
STARTCHAR uhungarumlaut
ENCODING 369
SWIDTH 378 0
DWIDTH 19 0
BBX 19 37 0 0
BITMAP
0F01E0
0F01E0
0F01E0
0F01E0
0F01E0
0F01E0
0F01E0
F01E00
F01E00
F01E00
F01E00
000000
000000
000000
3C0780
3C0780
3C0780
3C0780
3C0780
3C0780
3C0780
3C0780
3C0780
3C0780
3C0780
3C0780
3C0780
3C0780
3C0780
3C0780
3C0780
3C0780
3C0780
07FF80
07FF80
07FF80
07FF80
ENDCHAR
STARTCHAR Uogonek
ENCODING 370
SWIDTH 456 0
DWIDTH 23 0
BBX 19 41 2 -11
BITMAP
F001E0
F001E0
F001E0
F001E0
F001E0
F001E0
F001E0
F001E0
F001E0
F001E0
F001E0
F001E0
F001E0
F001E0
F001E0
F001E0
F001E0
F001E0
F001E0
F001E0
F001E0
F001E0
F001E0
F001E0
F001E0
F001E0
0FFE00
0FFE00
0FFE00
0FFE00
01E000
01E000
01E000
0FE000
0F0000
0F0000
0F0000
01FE00
01FE00
01FE00
01FE00
ENDCHAR
STARTCHAR uogonek
ENCODING 371
SWIDTH 382 0
DWIDTH 19 0
BBX 15 34 2 -11
BITMAP
F01E
F01E
F01E
F01E
F01E
F01E
F01E
F01E
F01E
F01E
F01E
F01E
F01E
F01E
F01E
F01E
F01E
F01E
F01E
0FFE
0FFE
0FFE
0FFE
01E0
01E0
01E0
0FE0
0F00
0F00
0F00
01FE
01FE
01FE
01FE
ENDCHAR
STARTCHAR Wcircumflex
ENCODING 372
SWIDTH 604 0
DWIDTH 30 0
BBX 26 41 2 0
BITMAP
001E0000
001E0000
001E0000
001E0000
01E1E000
01E1E000
01E1E000
01E1E000
00000000
00000000
00000000
F01E03C0
F01E03C0
F01E03C0
F01E03C0
F01E03C0
F01E03C0
F01E03C0
F01E03C0
F01E03C0
F01E03C0
F01E03C0
FF1E3FC0
0F1E3E00
0F1E3E00
0F1E3E00
0F1E3E00
0F1E3E00
0F1E3E00
0F1E3E00
0F1E3E00
0F1E3E00
0F1E3E00
0FFFFE00
01E1E000
01E1E000
01E1E000
01E1E000
01E1E000
01E1E000
01E1E000
ENDCHAR
STARTCHAR wcircumflex
ENCODING 373
SWIDTH 576 0
DWIDTH 29 0
BBX 26 34 1 0
BITMAP
001E0000
001E0000
001E0000
001E0000
00F1E000
00F1E000
00F1E000
00F1E000
00000000
00000000
00000000
F00003C0
F00003C0
F00003C0
F00003C0
F00003C0
F00003C0
F00003C0
F00003C0
0F1E1E00
0F1E1E00
0F1E1E00
0F1E1E00
0F1E1E00
0F1E1E00
0F1E1E00
0FFFFE00
00F1E000
00F1E000
00F1E000
00F1E000
00F1E000
00F1E000
00F1E000
ENDCHAR
STARTCHAR Ycircumflex
ENCODING 374
SWIDTH 456 0
DWIDTH 23 0
BBX 19 41 2 0
BITMAP
01E000
01E000
01E000
01E000
0F1E00
0F1E00
0F1E00
0F1E00
000000
000000
000000
F001E0
F001E0
F001E0
F001E0
0F1E00
0F1E00
0F1E00
0F1E00
0F1E00
0F1E00
0F1E00
0FFE00
01E000
01E000
01E000
01E000
01E000
01E000
01E000
01E000
01E000
01E000
01E000
01E000
01E000
01E000
01E000
01E000
01E000
01E000
ENDCHAR
STARTCHAR ycircumflex
ENCODING 375
SWIDTH 378 0
DWIDTH 19 0
BBX 15 45 2 -11
BITMAP
0780
0780
0780
0780
3C78
3C78
3C78
3C78
0000
0000
0000
F01E
F01E
F01E
F01E
F01E
F01E
F01E
F01E
F01E
F01E
F01E
F01E
F01E
F01E
F01E
F01E
F01E
F01E
F01E
1FFE
1FFE
1FFE
1FFE
001E
001E
001E
F01E
F01E
F01E
F01E
1FE0
1FE0
1FE0
1FE0
ENDCHAR
STARTCHAR Ydieresis
ENCODING 376
SWIDTH 456 0
DWIDTH 23 0
BBX 19 37 2 0
BITMAP
0F1E00
0F1E00
0F1E00
0F1E00
000000
000000
000000
F001E0
F001E0
F001E0
F001E0
0F1E00
0F1E00
0F1E00
0F1E00
0F1E00
0F1E00
0F1E00
0FFE00
01E000
01E000
01E000
01E000
01E000
01E000
01E000
01E000
01E000
01E000
01E000
01E000
01E000
01E000
01E000
01E000
01E000
01E000
ENDCHAR
STARTCHAR Zacute
ENCODING 377
SWIDTH 382 0
DWIDTH 19 0
BBX 15 41 2 0
BITMAP
01E0
01E0
01E0
01E0
0F00
0F00
0F00
0F00
0000
0000
0000
FFFE
FFFE
FFFE
FFFE
001E
001E
001E
01FE
01E0
01E0
01E0
01E0
01E0
01E0
01E0
0F00
0F00
0F00
0F00
0F00
0F00
0F00
FF00
F000
F000
F000
FFFE
FFFE
FFFE
FFFE
ENDCHAR
STARTCHAR zacute
ENCODING 378
SWIDTH 366 0
DWIDTH 18 0
BBX 16 34 1 0
BITMAP
00F0
00F0
00F0
00F0
0F00
0F00
0F00
0F00
0000
0000
0000
FFFF
FFFF
FFFF
FFFF
FFFF
000F
000F
000F
00F0
00F0
00F0
00F0
0F00
0F00
0F00
FF00
F800
F800
F800
FFFF
FFFF
FFFF
FFFF
ENDCHAR
STARTCHAR Zdotaccent
ENCODING 379
SWIDTH 382 0
DWIDTH 19 0
BBX 15 37 2 0
BITMAP
03C0
03C0
03C0
03C0
0000
0000
0000
FFFE
FFFE
FFFE
FFFE
001E
001E
001E
01FE
01E0
01E0
01E0
01E0
01E0
01E0
01E0
0F00
0F00
0F00
0F00
0F00
0F00
0F00
FF00
F000
F000
F000
FFFE
FFFE
FFFE
FFFE
ENDCHAR
STARTCHAR zdotaccent
ENCODING 380
SWIDTH 366 0
DWIDTH 18 0
BBX 16 30 1 0
BITMAP
03C0
03C0
03C0
03C0
0000
0000
0000
FFFF
FFFF
FFFF
FFFF
FFFF
000F
000F
000F
00F0
00F0
00F0
00F0
0F00
0F00
0F00
FF00
F800
F800
F800
FFFF
FFFF
FFFF
FFFF
ENDCHAR
STARTCHAR Zcaron
ENCODING 381
SWIDTH 382 0
DWIDTH 19 0
BBX 15 41 2 0
BITMAP
3C78
3C78
3C78
3C78
03C0
03C0
03C0
03C0
0000
0000
0000
FFFE
FFFE
FFFE
FFFE
001E
001E
001E
01FE
01E0
01E0
01E0
01E0
01E0
01E0
01E0
0F00
0F00
0F00
0F00
0F00
0F00
0F00
FF00
F000
F000
F000
FFFE
FFFE
FFFE
FFFE
ENDCHAR
STARTCHAR zcaron
ENCODING 382
SWIDTH 366 0
DWIDTH 18 0
BBX 16 34 1 0
BITMAP
3C3C
3C3C
3C3C
3C3C
03C0
03C0
03C0
03C0
0000
0000
0000
FFFF
FFFF
FFFF
FFFF
FFFF
000F
000F
000F
00F0
00F0
00F0
00F0
0F00
0F00
0F00
FF00
F800
F800
F800
FFFF
FFFF
FFFF
FFFF
ENDCHAR
STARTCHAR florin
ENCODING 402
SWIDTH 456 0
DWIDTH 23 0
BBX 19 37 2 -7
BITMAP
0001E0
0001E0
0001E0
0001E0
001E00
001E00
001E00
01FE00
01E000
01E000
01E000
0FFFE0
0FFFE0
0FFFE0
0FFFE0
01E000
01E000
01E000
01E000
01E000
01E000
01E000
01E000
01E000
01E000
01E000
01E000
01E000
01E000
01E000
0F0000
0F0000
0F0000
FF0000
F00000
F00000
F00000
ENDCHAR
STARTCHAR Ohorn
ENCODING 416
SWIDTH 547 0
DWIDTH 27 0
BBX 26 34 2 0
BITMAP
000003C0
000003C0
000003C0
000003C0
0FFE3E00
0FFE3E00
0FFE3E00
0FFE3E00
F001E000
F001E000
F001E000
F001E000
F001E000
F001E000
F001E000
F001E000
F001E000
F001E000
F001E000
F001E000
F001E000
F001E000
F001E000
F001E000
F001E000
F001E000
F001E000
F001E000
F001E000
F001E000
0FFE0000
0FFE0000
0FFE0000
0FFE0000
ENDCHAR
STARTCHAR ohorn
ENCODING 417
SWIDTH 473 0
DWIDTH 24 0
BBX 23 26 2 0
BITMAP
00003E
00003E
00003E
0FE1FE
0FE1E0
0FE1E0
0FE1E0
FFFFE0
F01E00
F01E00
F01E00
F01E00
F01E00
F01E00
F01E00
F01E00
F01E00
F01E00
F01E00
F01E00
F01E00
F01E00
0FE000
0FE000
0FE000
0FE000
ENDCHAR
STARTCHAR Uhorn
ENCODING 431
SWIDTH 544 0
DWIDTH 27 0
BBX 26 34 2 0
BITMAP
000003C0
000003C0
000003C0
000003C0
F001FE00
F001FE00
F001FE00
F001FE00
F001E000
F001E000
F001E000
F001E000
F001E000
F001E000
F001E000
F001E000
F001E000
F001E000
F001E000
F001E000
F001E000
F001E000
F001E000
F001E000
F001E000
F001E000
F001E000
F001E000
F001E000
F001E000
0FFE0000
0FFE0000
0FFE0000
0FFE0000
ENDCHAR
STARTCHAR uhorn
ENCODING 432
SWIDTH 475 0
DWIDTH 24 0
BBX 23 26 2 0
BITMAP
00003E
00003E
00003E
F01FFE
F01FE0
F01FE0
F01FE0
F01FE0
F01E00
F01E00
F01E00
F01E00
F01E00
F01E00
F01E00
F01E00
F01E00
F01E00
F01E00
F01E00
F01E00
F01E00
0FFE00
0FFE00
0FFE00
0FFE00
ENDCHAR
STARTCHAR Scommaaccent
ENCODING 536
SWIDTH 456 0
DWIDTH 23 0
BBX 19 41 2 -11
BITMAP
0FFE00
0FFE00
0FFE00
0FFE00
F001E0
F001E0
F001E0
F001E0
F00000
F00000
F00000
FFFE00
0FFE00
0FFE00
0FFE00
0001E0
0001E0
0001E0
0001E0
F001E0
F001E0
F001E0
F001E0
F001E0
F001E0
F001E0
0FFE00
0FFE00
0FFE00
0FFE00
000000
000000
000000
01E000
01E000
01E000
01E000
0F0000
0F0000
0F0000
0F0000
ENDCHAR
STARTCHAR scommaaccent
ENCODING 537
SWIDTH 372 0
DWIDTH 19 0
BBX 15 34 2 -11
BITMAP
0FE0
0FE0
0FE0
0FE0
FFE0
F000
F000
F000
0FE0
0FE0
0FE0
0FE0
001E
001E
001E
001E
001E
001E
001E
FFE0
FFE0
FFE0
FFE0
0000
0000
0000
0780
0780
0780
0780
7800
7800
7800
7800
ENDCHAR
STARTCHAR uni021A
ENCODING 538
SWIDTH 409 0
DWIDTH 20 0
BBX 19 41 1 -11
BITMAP
FFFFE0
FFFFE0
FFFFE0
FFFFE0
01E000
01E000
01E000
01E000
01E000
01E000
01E000
01E000
01E000
01E000
01E000
01E000
01E000
01E000
01E000
01E000
01E000
01E000
01E000
01E000
01E000
01E000
01E000
01E000
01E000
01E000
000000
000000
000000
01E000
01E000
01E000
01E000
0F0000
0F0000
0F0000
0F0000
ENDCHAR
STARTCHAR uni021B
ENCODING 539
SWIDTH 284 0
DWIDTH 14 0
BBX 12 41 1 -11
BITMAP
0F00
0F00
0F00
0F00
0F00
0F00
0F00
FFF0
FFF0
FFF0
FFF0
FFF0
0F00
0F00
0F00
0F00
0F00
0F00
0F00
0F00
0F00
0F00
0F00
0F00
0F00
0F00
00F0
00F0
00F0
00F0
0000
0000
0000
0F00
0F00
0F00
0F00
F000
F000
F000
F000
ENDCHAR
STARTCHAR circumflex
ENCODING 710
SWIDTH 308 0
DWIDTH 15 0
BBX 11 8 2 26
BITMAP
0F00
0F00
0F00
0F00
F1E0
F1E0
F1E0
F1E0
ENDCHAR
STARTCHAR caron
ENCODING 711
SWIDTH 308 0
DWIDTH 15 0
BBX 11 8 2 26
BITMAP
F1E0
F1E0
F1E0
F1E0
0F00
0F00
0F00
0F00
ENDCHAR
STARTCHAR uni02C9
ENCODING 713
SWIDTH 382 0
DWIDTH 19 0
BBX 15 4 2 26
BITMAP
FFFE
FFFE
FFFE
FFFE
ENDCHAR
STARTCHAR breve
ENCODING 728
SWIDTH 382 0
DWIDTH 19 0
BBX 15 8 2 26
BITMAP
F01E
F01E
F01E
F01E
0FE0
0FE0
0FE0
0FE0
ENDCHAR
STARTCHAR dotaccent
ENCODING 729
SWIDTH 160 0
DWIDTH 8 0
BBX 4 4 2 26
BITMAP
F0
F0
F0
F0
ENDCHAR
STARTCHAR ring
ENCODING 730
SWIDTH 308 0
DWIDTH 15 0
BBX 11 11 2 26
BITMAP
0F00
0F00
0F00
FFE0
F1E0
F1E0
F1E0
0F00
0F00
0F00
0F00
ENDCHAR
STARTCHAR ogonek
ENCODING 731
SWIDTH 308 0
DWIDTH 15 0
BBX 11 11 2 -11
BITMAP
0F00
0F00
0F00
FF00
F000
F000
F000
0FE0
0FE0
0FE0
0FE0
ENDCHAR
STARTCHAR tilde
ENCODING 732
SWIDTH 382 0
DWIDTH 19 0
BBX 15 8 2 26
BITMAP
0F1E
0F1E
0F1E
0F1E
F1E0
F1E0
F1E0
F1E0
ENDCHAR
STARTCHAR hungarumlaut
ENCODING 733
SWIDTH 456 0
DWIDTH 23 0
BBX 19 11 0 26
BITMAP
0F01E0
0F01E0
0F01E0
0F01E0
0F01E0
0F01E0
0F01E0
F80F00
F80F00
F80F00
F80F00
ENDCHAR
STARTCHAR tildecomb
ENCODING 771
SWIDTH 308 0
DWIDTH 15 0
BBX 11 15 2 26
BITMAP
FFE0
FFE0
FFE0
FFE0
0000
0000
0000
0F00
0F00
0F00
0F00
F1E0
F1E0
F1E0
F1E0
ENDCHAR
STARTCHAR hookabovecomb
ENCODING 777
SWIDTH 308 0
DWIDTH 15 0
BBX 11 11 2 26
BITMAP
FF00
FF00
FF00
FFE0
01E0
01E0
01E0
0F00
0F00
0F00
0F00
ENDCHAR
STARTCHAR dotbelowcomb
ENCODING 803
SWIDTH 160 0
DWIDTH 8 0
BBX 4 4 2 -10
BITMAP
F0
F0
F0
F0
ENDCHAR
STARTCHAR commaaccent
ENCODING 806
SWIDTH 234 0
DWIDTH 12 0
BBX 8 8 2 -11
BITMAP
0F
0F
0F
0F
F0
F0
F0
F0
ENDCHAR
STARTCHAR uni037E
ENCODING 894
SWIDTH 234 0
DWIDTH 12 0
BBX 8 26 2 -7
BITMAP
0F
0F
0F
0F
00
00
00
00
00
00
00
00
00
00
00
0F
0F
0F
0F
0F
0F
0F
FF
F0
F0
F0
ENDCHAR
STARTCHAR tonos
ENCODING 900
SWIDTH 160 0
DWIDTH 8 0
BBX 4 8 2 29
BITMAP
F0
F0
F0
F0
F0
F0
F0
F0
ENDCHAR
STARTCHAR dieresistonos
ENCODING 901
SWIDTH 456 0
DWIDTH 23 0
BBX 19 8 2 29
BITMAP
01E000
01E000
01E000
01E000
F1E1E0
F1E1E0
F1E1E0
F1E1E0
ENDCHAR
STARTCHAR Alphatonos
ENCODING 902
SWIDTH 530 0
DWIDTH 27 0
BBX 25 37 0 0
BITMAP
F0000000
F0000000
F0000000
F0000000
F0000000
F0000000
F0000000
F07F8000
007F8000
007F8000
007F8000
007F8000
007F8000
007F8000
03FFF800
03C07800
03C07800
03C07800
03C07800
03C07800
03C07800
03C07800
03FFF800
03FFF800
03FFF800
03FFF800
3C000F80
3C000F80
3C000F80
3C000F80
3C000F80
3C000F80
3C000F80
3C000F80
3C000F80
3C000F80
3C000F80
ENDCHAR
STARTCHAR Epsilontonos
ENCODING 904
SWIDTH 493 0
DWIDTH 25 0
BBX 23 37 0 0
BITMAP
F00000
F00000
F00000
F00000
F00000
F00000
F00000
F0FFFE
00FFFE
00FFFE
00FFFE
00F000
00F000
00F000
00F000
00F000
00F000
00F000
00FFFE
00FFFE
00FFFE
00FFFE
00F000
00F000
00F000
00F000
00F000
00F000
00F000
00F000
00F000
00F000
00F000
00FFFE
00FFFE
00FFFE
00FFFE
ENDCHAR
STARTCHAR Etatonos
ENCODING 905
SWIDTH 561 0
DWIDTH 28 0
BBX 26 37 0 0
BITMAP
F0000000
F0000000
F0000000
F0000000
F0000000
F0000000
F0000000
F1E003C0
01E003C0
01E003C0
01E003C0
01E003C0
01E003C0
01E003C0
01E003C0
01E003C0
01E003C0
01E003C0
01FFFFC0
01FFFFC0
01FFFFC0
01FFFFC0
01E003C0
01E003C0
01E003C0
01E003C0
01E003C0
01E003C0
01E003C0
01E003C0
01E003C0
01E003C0
01E003C0
01E003C0
01E003C0
01E003C0
01E003C0
ENDCHAR
STARTCHAR Iotatonos
ENCODING 906
SWIDTH 263 0
DWIDTH 13 0
BBX 11 37 0 0
BITMAP
F000
F000
F000
F000
F000
F000
F000
F1E0
01E0
01E0
01E0
01E0
01E0
01E0
01E0
01E0
01E0
01E0
01E0
01E0
01E0
01E0
01E0
01E0
01E0
01E0
01E0
01E0
01E0
01E0
01E0
01E0
01E0
01E0
01E0
01E0
01E0
ENDCHAR
STARTCHAR Omicrontonos
ENCODING 908
SWIDTH 536 0
DWIDTH 27 0
BBX 25 37 0 0
BITMAP
F0000000
F0000000
F0000000
F0000000
F0000000
F0000000
F0000000
F03FF800
003FF800
003FF800
003FF800
03C00780
03C00780
03C00780
03C00780
03C00780
03C00780
03C00780
03C00780
03C00780
03C00780
03C00780
03C00780
03C00780
03C00780
03C00780
03C00780
03C00780
03C00780
03C00780
03C00780
03C00780
03C00780
003FF800
003FF800
003FF800
003FF800
ENDCHAR
STARTCHAR Upsilontonos
ENCODING 910
SWIDTH 551 0
DWIDTH 28 0
BBX 26 37 0 0
BITMAP
F0000000
F0000000
F0000000
F0000000
F0000000
F0000000
F0000000
F1E007C0
01E007C0
01E007C0
01E007C0
003C3C00
003C3C00
003C3C00
003C3C00
003C3C00
003C3C00
003C3C00
003FFC00
0003C000
0003C000
0003C000
0003C000
0003C000
0003C000
0003C000
0003C000
0003C000
0003C000
0003C000
0003C000
0003C000
0003C000
0003C000
0003C000
0003C000
0003C000
ENDCHAR
STARTCHAR Omegatonos
ENCODING 911
SWIDTH 513 0
DWIDTH 26 0
BBX 24 37 0 0
BITMAP
F00000
F00000
F00000
F00000
F00000
F00000
F00000
F07FF0
007FF0
007FF0
007FF0
07800F
07800F
07800F
07800F
07800F
07800F
07800F
07800F
07800F
07800F
07800F
07800F
07800F
07800F
07800F
0078F0
0078F0
0078F0
0078F0
0078F0
0078F0
0078F0
07F8FF
07F8FF
07F8FF
07F8FF
ENDCHAR
STARTCHAR iotadieresistonos
ENCODING 912
SWIDTH 169 0
DWIDTH 8 0
BBX 19 37 -5 0
BITMAP
01E000
01E000
01E000
01E000
F1E1E0
F1E1E0
F1E1E0
F1E1E0
000000
000000
000000
000000
000000
000000
01E000
01E000
01E000
01E000
01E000
01E000
01E000
01E000
01E000
01E000
01E000
01E000
01E000
01E000
01E000
01E000
01E000
01E000
01E000
01E000
01E000
01E000
01E000
ENDCHAR
STARTCHAR Alpha
ENCODING 913
SWIDTH 530 0
DWIDTH 27 0
BBX 23 30 2 0
BITMAP
01FE00
01FE00
01FE00
01FE00
01FE00
01FE00
01FE00
0FFFE0
0F01E0
0F01E0
0F01E0
0F01E0
0F01E0
0F01E0
0F01E0
0FFFE0
0FFFE0
0FFFE0
0FFFE0
F0003E
F0003E
F0003E
F0003E
F0003E
F0003E
F0003E
F0003E
F0003E
F0003E
F0003E
ENDCHAR
STARTCHAR Beta
ENCODING 914
SWIDTH 456 0
DWIDTH 23 0
BBX 19 30 2 0
BITMAP
FFFE00
FFFE00
FFFE00
FFFE00
F001E0
F001E0
F001E0
F001E0
F001E0
F001E0
F001E0
FFFFE0
FFFE00
FFFE00
FFFE00
F001E0
F001E0
F001E0
F001E0
F001E0
F001E0
F001E0
F001E0
F001E0
F001E0
F001E0
FFFE00
FFFE00
FFFE00
FFFE00
ENDCHAR
STARTCHAR Gamma
ENCODING 915
SWIDTH 365 0
DWIDTH 18 0
BBX 15 30 2 0
BITMAP
FFFE
FFFE
FFFE
FFFE
F000
F000
F000
F000
F000
F000
F000
F000
F000
F000
F000
F000
F000
F000
F000
F000
F000
F000
F000
F000
F000
F000
F000
F000
F000
F000
ENDCHAR
STARTCHAR Delta
ENCODING 916
SWIDTH 530 0
DWIDTH 27 0
BBX 23 30 2 0
BITMAP
01FE00
01FE00
01FE00
01FE00
01FE00
01FE00
01FE00
0FFFE0
0F01E0
0F01E0
0F01E0
0F01E0
0F01E0
0F01E0
0F01E0
0F01E0
0F01E0
0F01E0
0F01E0
F0003E
F0003E
F0003E
F0003E
F0003E
F0003E
F0003E
FFFFFE
FFFFFE
FFFFFE
FFFFFE
ENDCHAR
STARTCHAR Epsilon
ENCODING 917
SWIDTH 377 0
DWIDTH 19 0
BBX 15 30 2 0
BITMAP
FFFE
FFFE
FFFE
FFFE
F000
F000
F000
F000
F000
F000
F000
FFFE
FFFE
FFFE
FFFE
F000
F000
F000
F000
F000
F000
F000
F000
F000
F000
F000
FFFE
FFFE
FFFE
FFFE
ENDCHAR
STARTCHAR Zeta
ENCODING 918
SWIDTH 382 0
DWIDTH 19 0
BBX 15 30 2 0
BITMAP
FFFE
FFFE
FFFE
FFFE
001E
001E
001E
01FE
01E0
01E0
01E0
01E0
01E0
01E0
01E0
0F00
0F00
0F00
0F00
0F00
0F00
0F00
FF00
F000
F000
F000
FFFE
FFFE
FFFE
FFFE
ENDCHAR
STARTCHAR Eta
ENCODING 919
SWIDTH 456 0
DWIDTH 23 0
BBX 19 30 2 0
BITMAP
F001E0
F001E0
F001E0
F001E0
F001E0
F001E0
F001E0
F001E0
F001E0
F001E0
F001E0
FFFFE0
FFFFE0
FFFFE0
FFFFE0
F001E0
F001E0
F001E0
F001E0
F001E0
F001E0
F001E0
F001E0
F001E0
F001E0
F001E0
F001E0
F001E0
F001E0
F001E0
ENDCHAR
STARTCHAR Theta
ENCODING 920
SWIDTH 456 0
DWIDTH 23 0
BBX 19 30 2 0
BITMAP
0FFE00
0FFE00
0FFE00
0FFE00
F001E0
F001E0
F001E0
F001E0
F001E0
F001E0
F001E0
FFFFE0
FFFFE0
FFFFE0
FFFFE0
F001E0
F001E0
F001E0
F001E0
F001E0
F001E0
F001E0
F001E0
F001E0
F001E0
F001E0
0FFE00
0FFE00
0FFE00
0FFE00
ENDCHAR
STARTCHAR Iota
ENCODING 921
SWIDTH 160 0
DWIDTH 8 0
BBX 4 30 2 0
BITMAP
F0
F0
F0
F0
F0
F0
F0
F0
F0
F0
F0
F0
F0
F0
F0
F0
F0
F0
F0
F0
F0
F0
F0
F0
F0
F0
F0
F0
F0
F0
ENDCHAR
STARTCHAR Kappa
ENCODING 922
SWIDTH 438 0
DWIDTH 22 0
BBX 19 30 2 0
BITMAP
F01E00
F01E00
F01E00
F01E00
F1E000
F1E000
F1E000
FFE000
FF0000
FF0000
FF0000
FFE000
F1E000
F1E000
F1E000
F1E000
F1E000
F1E000
F1E000
F01E00
F01E00
F01E00
F01E00
F01E00
F01E00
F01E00
F001E0
F001E0
F001E0
F001E0
ENDCHAR
STARTCHAR Lambda
ENCODING 923
SWIDTH 517 0
DWIDTH 26 0
BBX 22 30 2 0
BITMAP
01FE00
01FE00
01FE00
01FE00
01FE00
01FE00
01FE00
1FFFC0
1E03C0
1E03C0
1E03C0
1E03C0
1E03C0
1E03C0
1E03C0
1E03C0
1E03C0
1E03C0
1E03C0
F0003C
F0003C
F0003C
F0003C
F0003C
F0003C
F0003C
F0003C
F0003C
F0003C
F0003C
ENDCHAR
STARTCHAR Mu
ENCODING 924
SWIDTH 604 0
DWIDTH 30 0
BBX 26 30 2 0
BITMAP
F00003C0
F00003C0
F00003C0
F00003C0
F00003C0
F00003C0
F00003C0
FF003FC0
FF003FC0
FF003FC0
FF003FC0
FF003FC0
FF003FC0
FF003FC0
FF003FC0
F1E1E3C0
F1E1E3C0
F1E1E3C0
F1E1E3C0
F1E1E3C0
F1E1E3C0
F1E1E3C0
F1FFE3C0
F01E03C0
F01E03C0
F01E03C0
F01E03C0
F01E03C0
F01E03C0
F01E03C0
ENDCHAR
STARTCHAR Nu
ENCODING 925
SWIDTH 456 0
DWIDTH 23 0
BBX 19 30 2 0
BITMAP
F001E0
F001E0
F001E0
F001E0
FF01E0
FF01E0
FF01E0
FF01E0
FF01E0
FF01E0
FF01E0
FFE1E0
F1E1E0
F1E1E0
F1E1E0
F1E1E0
F1E1E0
F1E1E0
F1E1E0
F01FE0
F01FE0
F01FE0
F01FE0
F01FE0
F01FE0
F01FE0
F001E0
F001E0
F001E0
F001E0
ENDCHAR
STARTCHAR Xi
ENCODING 926
SWIDTH 456 0
DWIDTH 23 0
BBX 19 30 2 0
BITMAP
FFFFE0
FFFFE0
FFFFE0
FFFFE0
000000
000000
000000
000000
000000
000000
000000
FFFFE0
FFFFE0
FFFFE0
FFFFE0
000000
000000
000000
000000
000000
000000
000000
000000
000000
000000
000000
FFFFE0
FFFFE0
FFFFE0
FFFFE0
ENDCHAR
STARTCHAR Omicron
ENCODING 927
SWIDTH 456 0
DWIDTH 23 0
BBX 19 30 2 0
BITMAP
0FFE00
0FFE00
0FFE00
0FFE00
F001E0
F001E0
F001E0
F001E0
F001E0
F001E0
F001E0
F001E0
F001E0
F001E0
F001E0
F001E0
F001E0
F001E0
F001E0
F001E0
F001E0
F001E0
F001E0
F001E0
F001E0
F001E0
0FFE00
0FFE00
0FFE00
0FFE00
ENDCHAR
STARTCHAR Pi
ENCODING 928
SWIDTH 456 0
DWIDTH 23 0
BBX 19 30 2 0
BITMAP
FFFFE0
FFFFE0
FFFFE0
FFFFE0
F001E0
F001E0
F001E0
F001E0
F001E0
F001E0
F001E0
F001E0
F001E0
F001E0
F001E0
F001E0
F001E0
F001E0
F001E0
F001E0
F001E0
F001E0
F001E0
F001E0
F001E0
F001E0
F001E0
F001E0
F001E0
F001E0
ENDCHAR
STARTCHAR Rho
ENCODING 929
SWIDTH 456 0
DWIDTH 23 0
BBX 19 30 2 0
BITMAP
FFFE00
FFFE00
FFFE00
FFFE00
F001E0
F001E0
F001E0
F001E0
F001E0
F001E0
F001E0
FFFFE0
FFFE00
FFFE00
FFFE00
F00000
F00000
F00000
F00000
F00000
F00000
F00000
F00000
F00000
F00000
F00000
F00000
F00000
F00000
F00000
ENDCHAR
STARTCHAR Sigma
ENCODING 931
SWIDTH 378 0
DWIDTH 19 0
BBX 15 30 2 0
BITMAP
FFFE
FFFE
FFFE
FFFE
F000
F000
F000
FF00
0F00
0F00
0F00
0FE0
01E0
01E0
01E0
0F00
0F00
0F00
0F00
F000
F000
F000
F000
F000
F000
F000
FFFE
FFFE
FFFE
FFFE
ENDCHAR
STARTCHAR Tau
ENCODING 932
SWIDTH 409 0
DWIDTH 20 0
BBX 19 30 1 0
BITMAP
FFFFE0
FFFFE0
FFFFE0
FFFFE0
01E000
01E000
01E000
01E000
01E000
01E000
01E000
01E000
01E000
01E000
01E000
01E000
01E000
01E000
01E000
01E000
01E000
01E000
01E000
01E000
01E000
01E000
01E000
01E000
01E000
01E000
ENDCHAR
STARTCHAR Upsilon
ENCODING 933
SWIDTH 456 0
DWIDTH 23 0
BBX 19 30 2 0
BITMAP
F001E0
F001E0
F001E0
F001E0
0F1E00
0F1E00
0F1E00
0F1E00
0F1E00
0F1E00
0F1E00
0FFE00
01E000
01E000
01E000
01E000
01E000
01E000
01E000
01E000
01E000
01E000
01E000
01E000
01E000
01E000
01E000
01E000
01E000
01E000
ENDCHAR
STARTCHAR Phi
ENCODING 934
SWIDTH 581 0
DWIDTH 29 0
BBX 27 30 1 0
BITMAP
0FFFFE00
0FFFFE00
0FFFFE00
0FFFFE00
F01F01E0
F01F01E0
F01F01E0
F01F01E0
F01F01E0
F01F01E0
F01F01E0
F01F01E0
F01F01E0
F01F01E0
F01F01E0
F01F01E0
F01F01E0
F01F01E0
FFFFFFE0
0FFFFE00
0FFFFE00
0FFFFE00
0FFFFE00
001F0000
001F0000
001F0000
001F0000
001F0000
001F0000
001F0000
ENDCHAR
STARTCHAR Chi
ENCODING 935
SWIDTH 456 0
DWIDTH 23 0
BBX 19 30 2 0
BITMAP
F001E0
F001E0
F001E0
F001E0
0F1E00
0F1E00
0F1E00
0F1E00
0F1E00
0F1E00
0F1E00
0FFE00
01E000
01E000
01E000
0F1E00
0F1E00
0F1E00
0F1E00
0F1E00
0F1E00
0F1E00
FF1FE0
F001E0
F001E0
F001E0
F001E0
F001E0
F001E0
F001E0
ENDCHAR
STARTCHAR Psi
ENCODING 936
SWIDTH 456 0
DWIDTH 23 0
BBX 19 30 2 0
BITMAP
F1E1E0
F1E1E0
F1E1E0
F1E1E0
F1E1E0
F1E1E0
F1E1E0
F1E1E0
F1E1E0
F1E1E0
F1E1E0
F1E1E0
F1E1E0
F1E1E0
F1E1E0
F1E1E0
F1E1E0
F1E1E0
F1E1E0
0FFE00
0FFE00
0FFE00
0FFE00
01E000
01E000
01E000
01E000
01E000
01E000
01E000
ENDCHAR
STARTCHAR Omega
ENCODING 937
SWIDTH 456 0
DWIDTH 23 0
BBX 19 30 2 0
BITMAP
0FFE00
0FFE00
0FFE00
0FFE00
F001E0
F001E0
F001E0
F001E0
F001E0
F001E0
F001E0
F001E0
F001E0
F001E0
F001E0
F001E0
F001E0
F001E0
F001E0
0F1E00
0F1E00
0F1E00
0F1E00
0F1E00
0F1E00
0F1E00
FF1FE0
FF1FE0
FF1FE0
FF1FE0
ENDCHAR
STARTCHAR Iotadieresis
ENCODING 938
SWIDTH 160 0
DWIDTH 8 0
BBX 12 37 -2 0
BITMAP
F0F0
F0F0
F0F0
F0F0
0000
0000
0000
0F00
0F00
0F00
0F00
0F00
0F00
0F00
0F00
0F00
0F00
0F00
0F00
0F00
0F00
0F00
0F00
0F00
0F00
0F00
0F00
0F00
0F00
0F00
0F00
0F00
0F00
0F00
0F00
0F00
0F00
ENDCHAR
STARTCHAR Upsilondieresis
ENCODING 939
SWIDTH 456 0
DWIDTH 23 0
BBX 19 37 2 0
BITMAP
0F1E00
0F1E00
0F1E00
0F1E00
000000
000000
000000
F001E0
F001E0
F001E0
F001E0
0F1E00
0F1E00
0F1E00
0F1E00
0F1E00
0F1E00
0F1E00
0FFE00
01E000
01E000
01E000
01E000
01E000
01E000
01E000
01E000
01E000
01E000
01E000
01E000
01E000
01E000
01E000
01E000
01E000
01E000
ENDCHAR
STARTCHAR alphatonos
ENCODING 940
SWIDTH 442 0
DWIDTH 22 0
BBX 18 37 2 0
BITMAP
01E000
01E000
01E000
01E000
01E000
01E000
01E000
01E000
000000
000000
000000
000000
000000
000000
1FE000
1FE000
1FE000
1FE000
1FFE00
001E00
001E00
001E00
1FFE00
1FFE00
1FFE00
1FFE00
F01E00
F01E00
F01E00
F01E00
F01E00
F01E00
F01E00
1FE3C0
1FE3C0
1FE3C0
1FE3C0
ENDCHAR
STARTCHAR epsilontonos
ENCODING 941
SWIDTH 368 0
DWIDTH 18 0
BBX 15 37 2 0
BITMAP
0780
0780
0780
0780
0780
0780
0780
0780
0000
0000
0000
0000
0000
0000
1FE0
1FE0
1FE0
1FE0
FFFE
F01E
F01E
F01E
1E00
1E00
1E00
1E00
F000
F000
F000
F01E
F01E
F01E
F01E
1FE0
1FE0
1FE0
1FE0
ENDCHAR
STARTCHAR etatonos
ENCODING 942
SWIDTH 380 0
DWIDTH 19 0
BBX 15 37 2 0
BITMAP
07C0
07C0
07C0
07C0
07C0
07C0
07C0
07C0
0000
0000
0000
0000
0000
0000
FFE0
FFE0
FFE0
FFE0
FFFE
F01E
F01E
F01E
F01E
F01E
F01E
F01E
F01E
F01E
F01E
F01E
F01E
F01E
F01E
F01E
F01E
F01E
F01E
ENDCHAR
STARTCHAR iotatonos
ENCODING 943
SWIDTH 169 0
DWIDTH 8 0
BBX 4 37 2 0
BITMAP
F0
F0
F0
F0
F0
F0
F0
F0
00
00
00
00
00
00
F0
F0
F0
F0
F0
F0
F0
F0
F0
F0
F0
F0
F0
F0
F0
F0
F0
F0
F0
F0
F0
F0
F0
ENDCHAR
STARTCHAR upsilondieresistonos
ENCODING 944
SWIDTH 382 0
DWIDTH 19 0
BBX 19 37 0 0
BITMAP
00F000
00F000
00F000
00F000
F0F1E0
F0F1E0
F0F1E0
F0F1E0
000000
000000
000000
000000
000000
000000
3C0780
3C0780
3C0780
3C0780
3C0780
3C0780
3C0780
3C0780
3C0780
3C0780
3C0780
3C0780
3C0780
3C0780
3C0780
3C0780
3C0780
3C0780
3C0780
03F800
03F800
03F800
03F800
ENDCHAR
STARTCHAR alpha
ENCODING 945
SWIDTH 443 0
DWIDTH 22 0
BBX 18 23 2 0
BITMAP
1FE3C0
1FE3C0
1FE3C0
1FE3C0
FFFFC0
F01E00
F01E00
F01E00
F01E00
F01E00
F01E00
F01E00
F01E00
F01E00
F01E00
F01E00
F01E00
F01E00
F01E00
1FE3C0
1FE3C0
1FE3C0
1FE3C0
ENDCHAR
STARTCHAR beta
ENCODING 946
SWIDTH 382 0
DWIDTH 19 0
BBX 15 30 2 0
BITMAP
0FE0
0FE0
0FE0
0FE0
F01E
F01E
F01E
F01E
F01E
F01E
F01E
F1FE
F1E0
F1E0
F1E0
F01E
F01E
F01E
F01E
F01E
F01E
F01E
F01E
F01E
F01E
F01E
F1E0
F1E0
F1E0
F1E0
ENDCHAR
STARTCHAR gamma
ENCODING 947
SWIDTH 438 0
DWIDTH 22 0
BBX 18 34 2 -11
BITMAP
F003C0
F003C0
F003C0
F003C0
F003C0
F003C0
F003C0
F003C0
1E1E00
1E1E00
1E1E00
1E1E00
1E1E00
1E1E00
1E1E00
1FFE00
01E000
01E000
01E000
01E000
01E000
01E000
01E000
01E000
01E000
01E000
01E000
01E000
01E000
01E000
01E000
01E000
01E000
01E000
ENDCHAR
STARTCHAR delta
ENCODING 948
SWIDTH 483 0
DWIDTH 24 0
BBX 22 26 1 0
BITMAP
1FFE3C
1FFE3C
1FFE3C
FFFFFC
F01FE0
F01FE0
F01FE0
F1FFE0
01E1E0
01E1E0
01E1E0
01E1E0
01E1E0
01E1E0
01E1E0
1E01E0
1E01E0
1E01E0
1E01E0
1E01E0
1E01E0
1E01E0
01FE00
01FE00
01FE00
01FE00
ENDCHAR
STARTCHAR epsilon
ENCODING 949
SWIDTH 368 0
DWIDTH 18 0
BBX 15 23 2 0
BITMAP
1FE0
1FE0
1FE0
1FE0
FFFE
F01E
F01E
F01E
1E00
1E00
1E00
1E00
F000
F000
F000
F01E
F01E
F01E
F01E
1FE0
1FE0
1FE0
1FE0
ENDCHAR
STARTCHAR zeta
ENCODING 950
SWIDTH 378 0
DWIDTH 19 0
BBX 15 41 2 -11
BITMAP
FFFE
FFFE
FFFE
FFFE
001E
001E
001E
01FE
01E0
01E0
01E0
1FE0
1F00
1F00
1F00
F000
F000
F000
F000
F000
F000
F000
F000
F000
F000
F000
1FFE
1FFE
1FFE
1FFE
001E
001E
001E
001E
001E
001E
001E
01E0
01E0
01E0
01E0
ENDCHAR
STARTCHAR eta
ENCODING 951
SWIDTH 380 0
DWIDTH 19 0
BBX 15 23 2 0
BITMAP
FFE0
FFE0
FFE0
FFE0
FFFE
F01E
F01E
F01E
F01E
F01E
F01E
F01E
F01E
F01E
F01E
F01E
F01E
F01E
F01E
F01E
F01E
F01E
F01E
ENDCHAR
STARTCHAR theta
ENCODING 952
SWIDTH 382 0
DWIDTH 19 0
BBX 15 30 2 0
BITMAP
0FE0
0FE0
0FE0
0FE0
F01E
F01E
F01E
F01E
F01E
F01E
F01E
FFFE
FFFE
FFFE
FFFE
F01E
F01E
F01E
F01E
F01E
F01E
F01E
F01E
F01E
F01E
F01E
0FE0
0FE0
0FE0
0FE0
ENDCHAR
STARTCHAR iota
ENCODING 953
SWIDTH 169 0
DWIDTH 8 0
BBX 4 23 2 0
BITMAP
F0
F0
F0
F0
F0
F0
F0
F0
F0
F0
F0
F0
F0
F0
F0
F0
F0
F0
F0
F0
F0
F0
F0
ENDCHAR
STARTCHAR kappa
ENCODING 954
SWIDTH 373 0
DWIDTH 19 0
BBX 15 23 2 0
BITMAP
F01E
F01E
F01E
F01E
F1FE
F1E0
F1E0
F1E0
FF00
FF00
FF00
FF00
FF00
FF00
FF00
FFE0
F1E0
F1E0
F1E0
F01E
F01E
F01E
F01E
ENDCHAR
STARTCHAR lambda
ENCODING 955
SWIDTH 382 0
DWIDTH 19 0
BBX 15 30 2 0
BITMAP
0FE0
0FE0
0FE0
0FE0
F01E
F01E
F01E
F01E
001E
001E
001E
0FFE
0FFE
0FFE
0FFE
F01E
F01E
F01E
F01E
F01E
F01E
F01E
F01E
F01E
F01E
F01E
F01E
F01E
F01E
F01E
ENDCHAR
STARTCHAR mu
ENCODING 956
SWIDTH 382 0
DWIDTH 19 0
BBX 15 34 2 -11
BITMAP
F01E
F01E
F01E
F01E
F01E
F01E
F01E
F01E
F01E
F01E
F01E
F01E
F01E
F01E
F01E
F01E
F01E
F01E
F01E
FFFE
FFFE
FFFE
FFFE
F000
F000
F000
F000
F000
F000
F000
F000
F000
F000
F000
ENDCHAR
STARTCHAR nu
ENCODING 957
SWIDTH 430 0
DWIDTH 22 0
BBX 19 23 1 0
BITMAP
F001E0
F001E0
F001E0
F001E0
F001E0
F001E0
F001E0
F001E0
0F1E00
0F1E00
0F1E00
0F1E00
0F1E00
0F1E00
0F1E00
0FFE00
00F000
00F000
00F000
00F000
00F000
00F000
00F000
ENDCHAR
STARTCHAR xi
ENCODING 958
SWIDTH 382 0
DWIDTH 19 0
BBX 15 37 2 -7
BITMAP
0FE0
0FE0
0FE0
0FE0
F01E
F01E
F01E
F01E
F000
F000
F000
FFE0
0FE0
0FE0
0FE0
F000
F000
F000
F000
F000
F000
F000
F000
F000
F000
F000
0FFE
0FFE
0FFE
0FFE
001E
001E
001E
01FE
01E0
01E0
01E0
ENDCHAR
STARTCHAR omicron
ENCODING 959
SWIDTH 373 0
DWIDTH 19 0
BBX 15 23 2 0
BITMAP
1FE0
1FE0
1FE0
1FE0
FFFE
F01E
F01E
F01E
F01E
F01E
F01E
F01E
F01E
F01E
F01E
F01E
F01E
F01E
F01E
1FE0
1FE0
1FE0
1FE0
ENDCHAR
STARTCHAR pi
ENCODING 960
SWIDTH 382 0
DWIDTH 19 0
BBX 15 23 2 0
BITMAP
FFFE
FFFE
FFFE
FFFE
FFFE
F01E
F01E
F01E
F01E
F01E
F01E
F01E
F01E
F01E
F01E
F01E
F01E
F01E
F01E
F01E
F01E
F01E
F01E
ENDCHAR
STARTCHAR rho
ENCODING 961
SWIDTH 382 0
DWIDTH 19 0
BBX 15 34 2 -11
BITMAP
0FE0
0FE0
0FE0
0FE0
FFFE
F01E
F01E
F01E
F01E
F01E
F01E
F01E
F01E
F01E
F01E
F01E
F01E
F01E
F01E
FFE0
FFE0
FFE0
FFE0
F000
F000
F000
F000
F000
F000
F000
F000
F000
F000
F000
ENDCHAR
STARTCHAR sigma1
ENCODING 962
SWIDTH 382 0
DWIDTH 19 0
BBX 15 30 2 -7
BITMAP
0FE0
0FE0
0FE0
0FE0
FFFE
F01E
F01E
F01E
F000
F000
F000
F000
F000
F000
F000
F000
F000
F000
F000
0FFE
0FFE
0FFE
0FFE
001E
001E
001E
01FE
01E0
01E0
01E0
ENDCHAR
STARTCHAR sigma
ENCODING 963
SWIDTH 420 0
DWIDTH 21 0
BBX 19 23 2 0
BITMAP
0FFFE0
0FFFE0
0FFFE0
0FFFE0
FFFFE0
F01E00
F01E00
F01E00
F01E00
F01E00
F01E00
F01E00
F01E00
F01E00
F01E00
F01E00
F01E00
F01E00
F01E00
0FE000
0FE000
0FE000
0FE000
ENDCHAR
STARTCHAR tau
ENCODING 964
SWIDTH 402 0
DWIDTH 20 0
BBX 19 23 1 0
BITMAP
FFFFE0
FFFFE0
FFFFE0
FFFFE0
FFFFE0
01E000
01E000
01E000
01E000
01E000
01E000
01E000
01E000
01E000
01E000
01E000
01E000
01E000
01E000
01E000
01E000
01E000
01E000
ENDCHAR
STARTCHAR upsilon
ENCODING 965
SWIDTH 382 0
DWIDTH 19 0
BBX 15 23 2 0
BITMAP
F01E
F01E
F01E
F01E
F01E
F01E
F01E
F01E
F01E
F01E
F01E
F01E
F01E
F01E
F01E
F01E
F01E
F01E
F01E
0FE0
0FE0
0FE0
0FE0
ENDCHAR
STARTCHAR phi
ENCODING 966
SWIDTH 456 0
DWIDTH 23 0
BBX 19 34 2 -11
BITMAP
0FFE00
0FFE00
0FFE00
0FFE00
FFFFE0
F1E1E0
F1E1E0
F1E1E0
F1E1E0
F1E1E0
F1E1E0
F1E1E0
F1E1E0
F1E1E0
F1E1E0
F1E1E0
F1E1E0
F1E1E0
F1E1E0
0FFE00
0FFE00
0FFE00
0FFE00
01E000
01E000
01E000
01E000
01E000
01E000
01E000
01E000
01E000
01E000
01E000
ENDCHAR
STARTCHAR chi
ENCODING 967
SWIDTH 382 0
DWIDTH 19 0
BBX 15 23 2 0
BITMAP
F01E
F01E
F01E
F01E
F01E
F01E
F01E
F01E
0FE0
0FE0
0FE0
0FE0
F01E
F01E
F01E
F01E
F01E
F01E
F01E
F01E
F01E
F01E
F01E
ENDCHAR
STARTCHAR psi
ENCODING 968
SWIDTH 456 0
DWIDTH 23 0
BBX 19 34 2 -11
BITMAP
F1E1E0
F1E1E0
F1E1E0
F1E1E0
F1E1E0
F1E1E0
F1E1E0
F1E1E0
F1E1E0
F1E1E0
F1E1E0
F1E1E0
F1E1E0
F1E1E0
F1E1E0
F1E1E0
F1E1E0
F1E1E0
F1E1E0
0FFE00
0FFE00
0FFE00
0FFE00
01E000
01E000
01E000
01E000
01E000
01E000
01E000
01E000
01E000
01E000
01E000
ENDCHAR
STARTCHAR omega
ENCODING 969
SWIDTH 456 0
DWIDTH 23 0
BBX 19 23 2 0
BITMAP
F1E1E0
F1E1E0
F1E1E0
F1E1E0
F1E1E0
F1E1E0
F1E1E0
F1E1E0
F1E1E0
F1E1E0
F1E1E0
F1E1E0
F1E1E0
F1E1E0
F1E1E0
F1E1E0
F1E1E0
F1E1E0
F1E1E0
0F1E00
0F1E00
0F1E00
0F1E00
ENDCHAR
STARTCHAR iotadieresis
ENCODING 970
SWIDTH 169 0
DWIDTH 8 0
BBX 11 30 -1 0
BITMAP
F1E0
F1E0
F1E0
F1E0
0000
0000
0000
1E00
1E00
1E00
1E00
1E00
1E00
1E00
1E00
1E00
1E00
1E00
1E00
1E00
1E00
1E00
1E00
1E00
1E00
1E00
1E00
1E00
1E00
1E00
ENDCHAR
STARTCHAR upsilondieresis
ENCODING 971
SWIDTH 382 0
DWIDTH 19 0
BBX 15 30 2 0
BITMAP
3C78
3C78
3C78
3C78
0000
0000
0000
F01E
F01E
F01E
F01E
F01E
F01E
F01E
F01E
F01E
F01E
F01E
F01E
F01E
F01E
F01E
F01E
F01E
F01E
F01E
0FE0
0FE0
0FE0
0FE0
ENDCHAR
STARTCHAR omicrontonos
ENCODING 972
SWIDTH 373 0
DWIDTH 19 0
BBX 15 37 2 0
BITMAP
0780
0780
0780
0780
0780
0780
0780
0780
0000
0000
0000
0000
0000
0000
1FE0
1FE0
1FE0
1FE0
FFFE
F01E
F01E
F01E
F01E
F01E
F01E
F01E
F01E
F01E
F01E
F01E
F01E
F01E
F01E
1FE0
1FE0
1FE0
1FE0
ENDCHAR
STARTCHAR upsilontonos
ENCODING 973
SWIDTH 382 0
DWIDTH 19 0
BBX 15 37 2 0
BITMAP
03C0
03C0
03C0
03C0
03C0
03C0
03C0
03C0
0000
0000
0000
0000
0000
0000
F01E
F01E
F01E
F01E
F01E
F01E
F01E
F01E
F01E
F01E
F01E
F01E
F01E
F01E
F01E
F01E
F01E
F01E
F01E
0FE0
0FE0
0FE0
0FE0
ENDCHAR
STARTCHAR omegatonos
ENCODING 974
SWIDTH 456 0
DWIDTH 23 0
BBX 19 37 2 0
BITMAP
01E000
01E000
01E000
01E000
01E000
01E000
01E000
01E000
000000
000000
000000
000000
000000
000000
F1E1E0
F1E1E0
F1E1E0
F1E1E0
F1E1E0
F1E1E0
F1E1E0
F1E1E0
F1E1E0
F1E1E0
F1E1E0
F1E1E0
F1E1E0
F1E1E0
F1E1E0
F1E1E0
F1E1E0
F1E1E0
F1E1E0
0F1E00
0F1E00
0F1E00
0F1E00
ENDCHAR
STARTCHAR Wgrave
ENCODING 7808
SWIDTH 604 0
DWIDTH 30 0
BBX 26 41 2 0
BITMAP
00780000
00780000
00780000
00780000
00078000
00078000
00078000
00078000
00000000
00000000
00000000
F01E03C0
F01E03C0
F01E03C0
F01E03C0
F01E03C0
F01E03C0
F01E03C0
F01E03C0
F01E03C0
F01E03C0
F01E03C0
FF1E3FC0
0F1E3E00
0F1E3E00
0F1E3E00
0F1E3E00
0F1E3E00
0F1E3E00
0F1E3E00
0F1E3E00
0F1E3E00
0F1E3E00
0FFFFE00
01E1E000
01E1E000
01E1E000
01E1E000
01E1E000
01E1E000
01E1E000
ENDCHAR
STARTCHAR wgrave
ENCODING 7809
SWIDTH 576 0
DWIDTH 29 0
BBX 26 34 1 0
BITMAP
003C0000
003C0000
003C0000
003C0000
00078000
00078000
00078000
00078000
00000000
00000000
00000000
F00003C0
F00003C0
F00003C0
F00003C0
F00003C0
F00003C0
F00003C0
F00003C0
0F1E1E00
0F1E1E00
0F1E1E00
0F1E1E00
0F1E1E00
0F1E1E00
0F1E1E00
0FFFFE00
00F1E000
00F1E000
00F1E000
00F1E000
00F1E000
00F1E000
00F1E000
ENDCHAR
STARTCHAR Wacute
ENCODING 7810
SWIDTH 604 0
DWIDTH 30 0
BBX 26 41 2 0
BITMAP
00078000
00078000
00078000
00078000
00780000
00780000
00780000
00780000
00000000
00000000
00000000
F01E03C0
F01E03C0
F01E03C0
F01E03C0
F01E03C0
F01E03C0
F01E03C0
F01E03C0
F01E03C0
F01E03C0
F01E03C0
FF1E3FC0
0F1E3E00
0F1E3E00
0F1E3E00
0F1E3E00
0F1E3E00
0F1E3E00
0F1E3E00
0F1E3E00
0F1E3E00
0F1E3E00
0FFFFE00
01E1E000
01E1E000
01E1E000
01E1E000
01E1E000
01E1E000
01E1E000
ENDCHAR
STARTCHAR wacute
ENCODING 7811
SWIDTH 576 0
DWIDTH 29 0
BBX 26 34 1 0
BITMAP
00078000
00078000
00078000
00078000
003C0000
003C0000
003C0000
003C0000
00000000
00000000
00000000
F00003C0
F00003C0
F00003C0
F00003C0
F00003C0
F00003C0
F00003C0
F00003C0
0F1E1E00
0F1E1E00
0F1E1E00
0F1E1E00
0F1E1E00
0F1E1E00
0F1E1E00
0FFFFE00
00F1E000
00F1E000
00F1E000
00F1E000
00F1E000
00F1E000
00F1E000
ENDCHAR
STARTCHAR Wdieresis
ENCODING 7812
SWIDTH 604 0
DWIDTH 30 0
BBX 26 37 2 0
BITMAP
01E1E000
01E1E000
01E1E000
01E1E000
00000000
00000000
00000000
F01E03C0
F01E03C0
F01E03C0
F01E03C0
F01E03C0
F01E03C0
F01E03C0
F01E03C0
F01E03C0
F01E03C0
F01E03C0
FF1E3FC0
0F1E3E00
0F1E3E00
0F1E3E00
0F1E3E00
0F1E3E00
0F1E3E00
0F1E3E00
0F1E3E00
0F1E3E00
0F1E3E00
0FFFFE00
01E1E000
01E1E000
01E1E000
01E1E000
01E1E000
01E1E000
01E1E000
ENDCHAR
STARTCHAR wdieresis
ENCODING 7813
SWIDTH 576 0
DWIDTH 29 0
BBX 26 30 1 0
BITMAP
00F1E000
00F1E000
00F1E000
00F1E000
00000000
00000000
00000000
F00003C0
F00003C0
F00003C0
F00003C0
F00003C0
F00003C0
F00003C0
F00003C0
0F1E1E00
0F1E1E00
0F1E1E00
0F1E1E00
0F1E1E00
0F1E1E00
0F1E1E00
0FFFFE00
00F1E000
00F1E000
00F1E000
00F1E000
00F1E000
00F1E000
00F1E000
ENDCHAR
STARTCHAR uni1EA0
ENCODING 7840
SWIDTH 530 0
DWIDTH 27 0
BBX 23 40 2 -10
BITMAP
01FE00
01FE00
01FE00
01FE00
01FE00
01FE00
01FE00
0FFFE0
0F01E0
0F01E0
0F01E0
0F01E0
0F01E0
0F01E0
0F01E0
0FFFE0
0FFFE0
0FFFE0
0FFFE0
F0003E
F0003E
F0003E
F0003E
F0003E
F0003E
F0003E
F0003E
F0003E
F0003E
F0003E
000000
000000
000000
000000
000000
000000
007800
007800
007800
007800
ENDCHAR
STARTCHAR uni1EA1
ENCODING 7841
SWIDTH 442 0
DWIDTH 22 0
BBX 18 33 2 -10
BITMAP
1FE000
1FE000
1FE000
1FE000
1FFE00
001E00
001E00
001E00
1FFE00
1FFE00
1FFE00
1FFE00
F01E00
F01E00
F01E00
F01E00
F01E00
F01E00
F01E00
1FE3C0
1FE3C0
1FE3C0
1FE3C0
000000
000000
000000
000000
000000
000000
01E000
01E000
01E000
01E000
ENDCHAR
STARTCHAR uni1EA2
ENCODING 7842
SWIDTH 530 0
DWIDTH 27 0
BBX 23 44 2 0
BITMAP
03F800
03F800
03F800
03FF80
000780
000780
000780
007800
007800
007800
007800
000000
000000
000000
01FE00
01FE00
01FE00
01FE00
01FE00
01FE00
01FE00
0FFFE0
0F01E0
0F01E0
0F01E0
0F01E0
0F01E0
0F01E0
0F01E0
0FFFE0
0FFFE0
0FFFE0
0FFFE0
F0003E
F0003E
F0003E
F0003E
F0003E
F0003E
F0003E
F0003E
F0003E
F0003E
F0003E
ENDCHAR
STARTCHAR uni1EA3
ENCODING 7843
SWIDTH 442 0
DWIDTH 22 0
BBX 18 37 2 0
BITMAP
1FE000
1FE000
1FE000
1FFE00
001E00
001E00
001E00
01E000
01E000
01E000
01E000
000000
000000
000000
1FE000
1FE000
1FE000
1FE000
1FFE00
001E00
001E00
001E00
1FFE00
1FFE00
1FFE00
1FFE00
F01E00
F01E00
F01E00
F01E00
F01E00
F01E00
F01E00
1FE3C0
1FE3C0
1FE3C0
1FE3C0
ENDCHAR
STARTCHAR uni1EA4
ENCODING 7844
SWIDTH 530 0
DWIDTH 27 0
BBX 28 41 2 0
BITMAP
007800F0
007800F0
007800F0
007800F0
03C78F00
03C78F00
03C78F00
03C78F00
00000000
00000000
00000000
01FE0000
01FE0000
01FE0000
01FE0000
01FE0000
01FE0000
01FE0000
0FFFE000
0F01E000
0F01E000
0F01E000
0F01E000
0F01E000
0F01E000
0F01E000
0FFFE000
0FFFE000
0FFFE000
0FFFE000
F0003E00
F0003E00
F0003E00
F0003E00
F0003E00
F0003E00
F0003E00
F0003E00
F0003E00
F0003E00
F0003E00
ENDCHAR
STARTCHAR uni1EA5
ENCODING 7845
SWIDTH 442 0
DWIDTH 22 0
BBX 24 34 2 0
BITMAP
07800F
07800F
07800F
07800F
3C78F0
3C78F0
3C78F0
3C78F0
000000
000000
000000
1FE000
1FE000
1FE000
1FE000
1FFE00
001E00
001E00
001E00
1FFE00
1FFE00
1FFE00
1FFE00
F01E00
F01E00
F01E00
F01E00
F01E00
F01E00
F01E00
1FE3C0
1FE3C0
1FE3C0
1FE3C0
ENDCHAR
STARTCHAR uni1EA6
ENCODING 7846
SWIDTH 530 0
DWIDTH 27 0
BBX 28 41 -3 0
BITMAP
F003E000
F003E000
F003E000
F003E000
1E1E3C00
1E1E3C00
1E1E3C00
1E1E3C00
00000000
00000000
00000000
000FF000
000FF000
000FF000
000FF000
000FF000
000FF000
000FF000
007FFF00
00780F00
00780F00
00780F00
00780F00
00780F00
00780F00
00780F00
007FFF00
007FFF00
007FFF00
007FFF00
078001F0
078001F0
078001F0
078001F0
078001F0
078001F0
078001F0
078001F0
078001F0
078001F0
078001F0
ENDCHAR
STARTCHAR uni1EA7
ENCODING 7847
SWIDTH 442 0
DWIDTH 22 0
BBX 27 34 -7 0
BITMAP
F001E000
F001E000
F001E000
F001E000
0F1E3E00
0F1E3E00
0F1E3E00
0F1E3E00
00000000
00000000
00000000
000FF000
000FF000
000FF000
000FF000
000FFF00
00000F00
00000F00
00000F00
000FFF00
000FFF00
000FFF00
000FFF00
00780F00
00780F00
00780F00
00780F00
00780F00
00780F00
00780F00
000FF1E0
000FF1E0
000FF1E0
000FF1E0
ENDCHAR
STARTCHAR uni1EA8
ENCODING 7848
SWIDTH 530 0
DWIDTH 27 0
BBX 28 44 2 0
BITMAP
00007F00
00007F00
00007F00
00787FF0
007800F0
007800F0
007800F0
07C78F00
07C78F00
07C78F00
07C78F00
00000000
00000000
00000000
01FE0000
01FE0000
01FE0000
01FE0000
01FE0000
01FE0000
01FE0000
0FFFE000
0F01E000
0F01E000
0F01E000
0F01E000
0F01E000
0F01E000
0F01E000
0FFFE000
0FFFE000
0FFFE000
0FFFE000
F0003E00
F0003E00
F0003E00
F0003E00
F0003E00
F0003E00
F0003E00
F0003E00
F0003E00
F0003E00
F0003E00
ENDCHAR
STARTCHAR uni1EA9
ENCODING 7849
SWIDTH 442 0
DWIDTH 22 0
BBX 24 37 2 0
BITMAP
0007F0
0007F0
0007F0
0787FF
07800F
07800F
07800F
7C78F0
7C78F0
7C78F0
7C78F0
000000
000000
000000
1FE000
1FE000
1FE000
1FE000
1FFE00
001E00
001E00
001E00
1FFE00
1FFE00
1FFE00
1FFE00
F01E00
F01E00
F01E00
F01E00
F01E00
F01E00
F01E00
1FE3C0
1FE3C0
1FE3C0
1FE3C0
ENDCHAR
STARTCHAR uni1EAA
ENCODING 7850
SWIDTH 530 0
DWIDTH 27 0
BBX 23 48 2 0
BITMAP
03FF80
03FF80
03FF80
03FF80
000000
000000
000000
007800
007800
007800
007800
03C780
03C780
03C780
03C780
000000
000000
000000
01FE00
01FE00
01FE00
01FE00
01FE00
01FE00
01FE00
0FFFE0
0F01E0
0F01E0
0F01E0
0F01E0
0F01E0
0F01E0
0F01E0
0FFFE0
0FFFE0
0FFFE0
0FFFE0
F0003E
F0003E
F0003E
F0003E
F0003E
F0003E
F0003E
F0003E
F0003E
F0003E
F0003E
ENDCHAR
STARTCHAR uni1EAB
ENCODING 7851
SWIDTH 442 0
DWIDTH 22 0
BBX 18 41 2 0
BITMAP
3FF800
3FF800
3FF800
3FF800
000000
000000
000000
03C000
03C000
03C000
03C000
3C7800
3C7800
3C7800
3C7800
000000
000000
000000
1FE000
1FE000
1FE000
1FE000
1FFE00
001E00
001E00
001E00
1FFE00
1FFE00
1FFE00
1FFE00
F01E00
F01E00
F01E00
F01E00
F01E00
F01E00
F01E00
1FE3C0
1FE3C0
1FE3C0
1FE3C0
ENDCHAR
STARTCHAR uni1EAC
ENCODING 7852
SWIDTH 530 0
DWIDTH 27 0
BBX 23 51 2 -10
BITMAP
007800
007800
007800
007800
03C780
03C780
03C780
03C780
000000
000000
000000
01FE00
01FE00
01FE00
01FE00
01FE00
01FE00
01FE00
0FFFE0
0F01E0
0F01E0
0F01E0
0F01E0
0F01E0
0F01E0
0F01E0
0FFFE0
0FFFE0
0FFFE0
0FFFE0
F0003E
F0003E
F0003E
F0003E
F0003E
F0003E
F0003E
F0003E
F0003E
F0003E
F0003E
000000
000000
000000
000000
000000
000000
007800
007800
007800
007800
ENDCHAR
STARTCHAR uni1EAD
ENCODING 7853
SWIDTH 442 0
DWIDTH 22 0
BBX 18 44 2 -10
BITMAP
03C000
03C000
03C000
03C000
3E3C00
3E3C00
3E3C00
3E3C00
000000
000000
000000
1FE000
1FE000
1FE000
1FE000
1FFE00
001E00
001E00
001E00
1FFE00
1FFE00
1FFE00
1FFE00
F01E00
F01E00
F01E00
F01E00
F01E00
F01E00
F01E00
1FE3C0
1FE3C0
1FE3C0
1FE3C0
000000
000000
000000
000000
000000
000000
01E000
01E000
01E000
01E000
ENDCHAR
STARTCHAR uni1EAE
ENCODING 7854
SWIDTH 530 0
DWIDTH 27 0
BBX 23 48 2 0
BITMAP
001E00
001E00
001E00
001E00
01E000
01E000
01E000
0FE1E0
0F01E0
0F01E0
0F01E0
01FE00
01FE00
01FE00
01FE00
000000
000000
000000
01FE00
01FE00
01FE00
01FE00
01FE00
01FE00
01FE00
0FFFE0
0F01E0
0F01E0
0F01E0
0F01E0
0F01E0
0F01E0
0F01E0
0FFFE0
0FFFE0
0FFFE0
0FFFE0
F0003E
F0003E
F0003E
F0003E
F0003E
F0003E
F0003E
F0003E
F0003E
F0003E
F0003E
ENDCHAR
STARTCHAR uni1EAF
ENCODING 7855
SWIDTH 442 0
DWIDTH 22 0
BBX 18 41 2 0
BITMAP
01E000
01E000
01E000
01E000
0F0000
0F0000
0F0000
FF1E00
F01E00
F01E00
F01E00
0FE000
0FE000
0FE000
0FE000
000000
000000
000000
1FE000
1FE000
1FE000
1FE000
1FFE00
001E00
001E00
001E00
1FFE00
1FFE00
1FFE00
1FFE00
F01E00
F01E00
F01E00
F01E00
F01E00
F01E00
F01E00
1FE3C0
1FE3C0
1FE3C0
1FE3C0
ENDCHAR
STARTCHAR uni1EB0
ENCODING 7856
SWIDTH 530 0
DWIDTH 27 0
BBX 23 48 2 0
BITMAP
01E000
01E000
01E000
01E000
001E00
001E00
001E00
0F1FE0
0F01E0
0F01E0
0F01E0
01FE00
01FE00
01FE00
01FE00
000000
000000
000000
01FE00
01FE00
01FE00
01FE00
01FE00
01FE00
01FE00
0FFFE0
0F01E0
0F01E0
0F01E0
0F01E0
0F01E0
0F01E0
0F01E0
0FFFE0
0FFFE0
0FFFE0
0FFFE0
F0003E
F0003E
F0003E
F0003E
F0003E
F0003E
F0003E
F0003E
F0003E
F0003E
F0003E
ENDCHAR
STARTCHAR uni1EB1
ENCODING 7857
SWIDTH 442 0
DWIDTH 22 0
BBX 18 41 2 0
BITMAP
1E0000
1E0000
1E0000
1E0000
01E000
01E000
01E000
F1FE00
F01E00
F01E00
F01E00
1FE000
1FE000
1FE000
1FE000
000000
000000
000000
1FE000
1FE000
1FE000
1FE000
1FFE00
001E00
001E00
001E00
1FFE00
1FFE00
1FFE00
1FFE00
F01E00
F01E00
F01E00
F01E00
F01E00
F01E00
F01E00
1FE3C0
1FE3C0
1FE3C0
1FE3C0
ENDCHAR
STARTCHAR uni1EB2
ENCODING 7858
SWIDTH 530 0
DWIDTH 27 0
BBX 23 48 2 0
BITMAP
01FE00
01FE00
01FE00
01FE00
001E00
001E00
001E00
0F1FE0
0F01E0
0F01E0
0F01E0
01FE00
01FE00
01FE00
01FE00
000000
000000
000000
01FE00
01FE00
01FE00
01FE00
01FE00
01FE00
01FE00
0FFFE0
0F01E0
0F01E0
0F01E0
0F01E0
0F01E0
0F01E0
0F01E0
0FFFE0
0FFFE0
0FFFE0
0FFFE0
F0003E
F0003E
F0003E
F0003E
F0003E
F0003E
F0003E
F0003E
F0003E
F0003E
F0003E
ENDCHAR
STARTCHAR uni1EB3
ENCODING 7859
SWIDTH 442 0
DWIDTH 22 0
BBX 18 41 2 0
BITMAP
0FE000
0FE000
0FE000
0FE000
01E000
01E000
01E000
F1FE00
F01E00
F01E00
F01E00
0FE000
0FE000
0FE000
0FE000
000000
000000
000000
1FE000
1FE000
1FE000
1FE000
1FFE00
001E00
001E00
001E00
1FFE00
1FFE00
1FFE00
1FFE00
F01E00
F01E00
F01E00
F01E00
F01E00
F01E00
F01E00
1FE3C0
1FE3C0
1FE3C0
1FE3C0
ENDCHAR
STARTCHAR uni1EB4
ENCODING 7860
SWIDTH 530 0
DWIDTH 27 0
BBX 23 48 2 0
BITMAP
0FFFE0
0FFFE0
0FFFE0
0FFFE0
000000
000000
000000
0F01E0
0F01E0
0F01E0
0F01E0
01FE00
01FE00
01FE00
01FE00
000000
000000
000000
01FE00
01FE00
01FE00
01FE00
01FE00
01FE00
01FE00
0FFFE0
0F01E0
0F01E0
0F01E0
0F01E0
0F01E0
0F01E0
0F01E0
0FFFE0
0FFFE0
0FFFE0
0FFFE0
F0003E
F0003E
F0003E
F0003E
F0003E
F0003E
F0003E
F0003E
F0003E
F0003E
F0003E
ENDCHAR
STARTCHAR uni1EB5
ENCODING 7861
SWIDTH 442 0
DWIDTH 22 0
BBX 18 41 2 0
BITMAP
FFFE00
FFFE00
FFFE00
FFFE00
000000
000000
000000
F01E00
F01E00
F01E00
F01E00
1FE000
1FE000
1FE000
1FE000
000000
000000
000000
1FE000
1FE000
1FE000
1FE000
1FFE00
001E00
001E00
001E00
1FFE00
1FFE00
1FFE00
1FFE00
F01E00
F01E00
F01E00
F01E00
F01E00
F01E00
F01E00
1FE3C0
1FE3C0
1FE3C0
1FE3C0
ENDCHAR
STARTCHAR uni1EB6
ENCODING 7862
SWIDTH 530 0
DWIDTH 27 0
BBX 23 51 2 -10
BITMAP
0F01E0
0F01E0
0F01E0
0F01E0
01FE00
01FE00
01FE00
01FE00
000000
000000
000000
01FE00
01FE00
01FE00
01FE00
01FE00
01FE00
01FE00
0FFFE0
0F01E0
0F01E0
0F01E0
0F01E0
0F01E0
0F01E0
0F01E0
0FFFE0
0FFFE0
0FFFE0
0FFFE0
F0003E
F0003E
F0003E
F0003E
F0003E
F0003E
F0003E
F0003E
F0003E
F0003E
F0003E
000000
000000
000000
000000
000000
000000
007800
007800
007800
007800
ENDCHAR
STARTCHAR uni1EB7
ENCODING 7863
SWIDTH 442 0
DWIDTH 22 0
BBX 18 44 2 -10
BITMAP
F01E00
F01E00
F01E00
F01E00
1FE000
1FE000
1FE000
1FE000
000000
000000
000000
1FE000
1FE000
1FE000
1FE000
1FFE00
001E00
001E00
001E00
1FFE00
1FFE00
1FFE00
1FFE00
F01E00
F01E00
F01E00
F01E00
F01E00
F01E00
F01E00
1FE3C0
1FE3C0
1FE3C0
1FE3C0
000000
000000
000000
000000
000000
000000
01E000
01E000
01E000
01E000
ENDCHAR
STARTCHAR uni1EB8
ENCODING 7864
SWIDTH 377 0
DWIDTH 19 0
BBX 15 40 2 -10
BITMAP
FFFE
FFFE
FFFE
FFFE
F000
F000
F000
F000
F000
F000
F000
FFFE
FFFE
FFFE
FFFE
F000
F000
F000
F000
F000
F000
F000
F000
F000
F000
F000
FFFE
FFFE
FFFE
FFFE
0000
0000
0000
0000
0000
0000
03C0
03C0
03C0
03C0
ENDCHAR
STARTCHAR uni1EB9
ENCODING 7865
SWIDTH 382 0
DWIDTH 19 0
BBX 15 33 2 -10
BITMAP
0FE0
0FE0
0FE0
0FE0
FFFE
F01E
F01E
F01E
FFFE
FFFE
FFFE
FFFE
F000
F000
F000
F01E
F01E
F01E
F01E
0FE0
0FE0
0FE0
0FE0
0000
0000
0000
0000
0000
0000
03C0
03C0
03C0
03C0
ENDCHAR
STARTCHAR uni1EBA
ENCODING 7866
SWIDTH 377 0
DWIDTH 19 0
BBX 15 44 2 0
BITMAP
7F80
7F80
7F80
7FF8
0078
0078
0078
0780
0780
0780
0780
0000
0000
0000
FFFE
FFFE
FFFE
FFFE
F000
F000
F000
F000
F000
F000
F000
FFFE
FFFE
FFFE
FFFE
F000
F000
F000
F000
F000
F000
F000
F000
F000
F000
F000
FFFE
FFFE
FFFE
FFFE
ENDCHAR
STARTCHAR uni1EBB
ENCODING 7867
SWIDTH 382 0
DWIDTH 19 0
BBX 15 37 2 0
BITMAP
7F80
7F80
7F80
7FF8
0078
0078
0078
0780
0780
0780
0780
0000
0000
0000
0FE0
0FE0
0FE0
0FE0
FFFE
F01E
F01E
F01E
FFFE
FFFE
FFFE
FFFE
F000
F000
F000
F01E
F01E
F01E
F01E
0FE0
0FE0
0FE0
0FE0
ENDCHAR
STARTCHAR uni1EBC
ENCODING 7868
SWIDTH 377 0
DWIDTH 19 0
BBX 16 41 2 0
BITMAP
078F
078F
078F
078F
78F0
78F0
78F0
78F0
0000
0000
0000
FFFE
FFFE
FFFE
FFFE
F000
F000
F000
F000
F000
F000
F000
FFFE
FFFE
FFFE
FFFE
F000
F000
F000
F000
F000
F000
F000
F000
F000
F000
F000
FFFE
FFFE
FFFE
FFFE
ENDCHAR
STARTCHAR uni1EBD
ENCODING 7869
SWIDTH 382 0
DWIDTH 19 0
BBX 15 34 2 0
BITMAP
0F1E
0F1E
0F1E
0F1E
F1E0
F1E0
F1E0
F1E0
0000
0000
0000
0FE0
0FE0
0FE0
0FE0
FFFE
F01E
F01E
F01E
FFFE
FFFE
FFFE
FFFE
F000
F000
F000
F01E
F01E
F01E
F01E
0FE0
0FE0
0FE0
0FE0
ENDCHAR
STARTCHAR uni1EBE
ENCODING 7870
SWIDTH 377 0
DWIDTH 19 0
BBX 24 41 2 0
BITMAP
03C00F
03C00F
03C00F
03C00F
3C7878
3C7878
3C7878
3C7878
000000
000000
000000
FFFE00
FFFE00
FFFE00
FFFE00
F00000
F00000
F00000
F00000
F00000
F00000
F00000
FFFE00
FFFE00
FFFE00
FFFE00
F00000
F00000
F00000
F00000
F00000
F00000
F00000
F00000
F00000
F00000
F00000
FFFE00
FFFE00
FFFE00
FFFE00
ENDCHAR
STARTCHAR uni1EBF
ENCODING 7871
SWIDTH 382 0
DWIDTH 19 0
BBX 24 34 2 0
BITMAP
07800F
07800F
07800F
07800F
3C78F8
3C78F8
3C78F8
3C78F8
000000
000000
000000
0FE000
0FE000
0FE000
0FE000
FFFE00
F01E00
F01E00
F01E00
FFFE00
FFFE00
FFFE00
FFFE00
F00000
F00000
F00000
F01E00
F01E00
F01E00
F01E00
0FE000
0FE000
0FE000
0FE000
ENDCHAR
STARTCHAR uni1EC0
ENCODING 7872
SWIDTH 377 0
DWIDTH 19 0
BBX 24 41 -7 0
BITMAP
F001E0
F001E0
F001E0
F001E0
0F1E1E
0F1E1E
0F1E1E
0F1E1E
000000
000000
000000
007FFF
007FFF
007FFF
007FFF
007800
007800
007800
007800
007800
007800
007800
007FFF
007FFF
007FFF
007FFF
007800
007800
007800
007800
007800
007800
007800
007800
007800
007800
007800
007FFF
007FFF
007FFF
007FFF
ENDCHAR
STARTCHAR uni1EC1
ENCODING 7873
SWIDTH 382 0
DWIDTH 19 0
BBX 24 34 -7 0
BITMAP
F001E0
F001E0
F001E0
F001E0
0F1E1E
0F1E1E
0F1E1E
0F1E1E
000000
000000
000000
0007F0
0007F0
0007F0
0007F0
007FFF
00780F
00780F
00780F
007FFF
007FFF
007FFF
007FFF
007800
007800
007800
00780F
00780F
00780F
00780F
0007F0
0007F0
0007F0
0007F0
ENDCHAR
STARTCHAR uni1EC2
ENCODING 7874
SWIDTH 377 0
DWIDTH 19 0
BBX 25 44 2 0
BITMAP
0007F800
0007F800
0007F800
03C7FF80
03C00780
03C00780
03C00780
3C3C7800
3C3C7800
3C3C7800
3C3C7800
00000000
00000000
00000000
FFFE0000
FFFE0000
FFFE0000
FFFE0000
F0000000
F0000000
F0000000
F0000000
F0000000
F0000000
F0000000
FFFE0000
FFFE0000
FFFE0000
FFFE0000
F0000000
F0000000
F0000000
F0000000
F0000000
F0000000
F0000000
F0000000
F0000000
F0000000
F0000000
FFFE0000
FFFE0000
FFFE0000
FFFE0000
ENDCHAR
STARTCHAR uni1EC3
ENCODING 7875
SWIDTH 382 0
DWIDTH 19 0
BBX 24 37 2 0
BITMAP
0007F8
0007F8
0007F8
03C7FF
03C00F
03C00F
03C00F
3C7878
3C7878
3C7878
3C7878
000000
000000
000000
0FE000
0FE000
0FE000
0FE000
FFFE00
F01E00
F01E00
F01E00
FFFE00
FFFE00
FFFE00
FFFE00
F00000
F00000
F00000
F01E00
F01E00
F01E00
F01E00
0FE000
0FE000
0FE000
0FE000
ENDCHAR
STARTCHAR uni1EC4
ENCODING 7876
SWIDTH 377 0
DWIDTH 19 0
BBX 15 48 2 0
BITMAP
3FFC
3FFC
3FFC
3FFC
0000
0000
0000
03C0
03C0
03C0
03C0
3C7C
3C7C
3C7C
3C7C
0000
0000
0000
FFFE
FFFE
FFFE
FFFE
F000
F000
F000
F000
F000
F000
F000
FFFE
FFFE
FFFE
FFFE
F000
F000
F000
F000
F000
F000
F000
F000
F000
F000
F000
FFFE
FFFE
FFFE
FFFE
ENDCHAR
STARTCHAR uni1EC5
ENCODING 7877
SWIDTH 382 0
DWIDTH 19 0
BBX 15 41 2 0
BITMAP
3FF8
3FF8
3FF8
3FF8
0000
0000
0000
03C0
03C0
03C0
03C0
3C78
3C78
3C78
3C78
0000
0000
0000
0FE0
0FE0
0FE0
0FE0
FFFE
F01E
F01E
F01E
FFFE
FFFE
FFFE
FFFE
F000
F000
F000
F01E
F01E
F01E
F01E
0FE0
0FE0
0FE0
0FE0
ENDCHAR
STARTCHAR uni1EC6
ENCODING 7878
SWIDTH 377 0
DWIDTH 19 0
BBX 15 51 2 -10
BITMAP
0780
0780
0780
0780
7C78
7C78
7C78
7C78
0000
0000
0000
FFFE
FFFE
FFFE
FFFE
F000
F000
F000
F000
F000
F000
F000
FFFE
FFFE
FFFE
FFFE
F000
F000
F000
F000
F000
F000
F000
F000
F000
F000
F000
FFFE
FFFE
FFFE
FFFE
0000
0000
0000
0000
0000
0000
0780
0780
0780
0780
ENDCHAR
STARTCHAR uni1EC7
ENCODING 7879
SWIDTH 382 0
DWIDTH 19 0
BBX 15 44 2 -10
BITMAP
03C0
03C0
03C0
03C0
3C78
3C78
3C78
3C78
0000
0000
0000
0FE0
0FE0
0FE0
0FE0
FFFE
F01E
F01E
F01E
FFFE
FFFE
FFFE
FFFE
F000
F000
F000
F01E
F01E
F01E
F01E
0FE0
0FE0
0FE0
0FE0
0000
0000
0000
0000
0000
0000
03C0
03C0
03C0
03C0
ENDCHAR
STARTCHAR uni1EC8
ENCODING 7880
SWIDTH 160 0
DWIDTH 8 0
BBX 12 44 -2 0
BITMAP
FF00
FF00
FF00
FFF0
00F0
00F0
00F0
0F00
0F00
0F00
0F00
0000
0000
0000
0F00
0F00
0F00
0F00
0F00
0F00
0F00
0F00
0F00
0F00
0F00
0F00
0F00
0F00
0F00
0F00
0F00
0F00
0F00
0F00
0F00
0F00
0F00
0F00
0F00
0F00
0F00
0F00
0F00
0F00
ENDCHAR
STARTCHAR uni1EC9
ENCODING 7881
SWIDTH 169 0
DWIDTH 8 0
BBX 11 37 -1 0
BITMAP
FE00
FE00
FE00
FFE0
01E0
01E0
01E0
1E00
1E00
1E00
1E00
0000
0000
0000
1E00
1E00
1E00
1E00
1E00
1E00
1E00
1E00
1E00
1E00
1E00
1E00
1E00
1E00
1E00
1E00
1E00
1E00
1E00
1E00
1E00
1E00
1E00
ENDCHAR
STARTCHAR uni1ECA
ENCODING 7882
SWIDTH 160 0
DWIDTH 8 0
BBX 4 40 2 -10
BITMAP
F0
F0
F0
F0
F0
F0
F0
F0
F0
F0
F0
F0
F0
F0
F0
F0
F0
F0
F0
F0
F0
F0
F0
F0
F0
F0
F0
F0
F0
F0
00
00
00
00
00
00
F0
F0
F0
F0
ENDCHAR
STARTCHAR uni1ECB
ENCODING 7883
SWIDTH 170 0
DWIDTH 9 0
BBX 4 40 2 -10
BITMAP
F0
F0
F0
F0
00
00
00
F0
F0
F0
F0
F0
F0
F0
F0
F0
F0
F0
F0
F0
F0
F0
F0
F0
F0
F0
F0
F0
F0
F0
00
00
00
00
00
00
F0
F0
F0
F0
ENDCHAR
STARTCHAR uni1ECC
ENCODING 7884
SWIDTH 456 0
DWIDTH 23 0
BBX 19 40 2 -10
BITMAP
0FFE00
0FFE00
0FFE00
0FFE00
F001E0
F001E0
F001E0
F001E0
F001E0
F001E0
F001E0
F001E0
F001E0
F001E0
F001E0
F001E0
F001E0
F001E0
F001E0
F001E0
F001E0
F001E0
F001E0
F001E0
F001E0
F001E0
0FFE00
0FFE00
0FFE00
0FFE00
000000
000000
000000
000000
000000
000000
01E000
01E000
01E000
01E000
ENDCHAR
STARTCHAR uni1ECD
ENCODING 7885
SWIDTH 373 0
DWIDTH 19 0
BBX 15 33 2 -10
BITMAP
1FE0
1FE0
1FE0
1FE0
FFFE
F01E
F01E
F01E
F01E
F01E
F01E
F01E
F01E
F01E
F01E
F01E
F01E
F01E
F01E
1FE0
1FE0
1FE0
1FE0
0000
0000
0000
0000
0000
0000
0780
0780
0780
0780
ENDCHAR
STARTCHAR uni1ECE
ENCODING 7886
SWIDTH 456 0
DWIDTH 23 0
BBX 19 44 2 0
BITMAP
0FE000
0FE000
0FE000
0FFE00
001E00
001E00
001E00
01E000
01E000
01E000
01E000
000000
000000
000000
0FFE00
0FFE00
0FFE00
0FFE00
F001E0
F001E0
F001E0
F001E0
F001E0
F001E0
F001E0
F001E0
F001E0
F001E0
F001E0
F001E0
F001E0
F001E0
F001E0
F001E0
F001E0
F001E0
F001E0
F001E0
F001E0
F001E0
0FFE00
0FFE00
0FFE00
0FFE00
ENDCHAR
STARTCHAR uni1ECF
ENCODING 7887
SWIDTH 373 0
DWIDTH 19 0
BBX 15 37 2 0
BITMAP
3F80
3F80
3F80
3FF8
0078
0078
0078
0780
0780
0780
0780
0000
0000
0000
1FE0
1FE0
1FE0
1FE0
FFFE
F01E
F01E
F01E
F01E
F01E
F01E
F01E
F01E
F01E
F01E
F01E
F01E
F01E
F01E
1FE0
1FE0
1FE0
1FE0
ENDCHAR
STARTCHAR uni1ED0
ENCODING 7888
SWIDTH 456 0
DWIDTH 23 0
BBX 26 41 2 0
BITMAP
01E003C0
01E003C0
01E003C0
01E003C0
0F1E3C00
0F1E3C00
0F1E3C00
0F1E3C00
00000000
00000000
00000000
0FFE0000
0FFE0000
0FFE0000
0FFE0000
F001E000
F001E000
F001E000
F001E000
F001E000
F001E000
F001E000
F001E000
F001E000
F001E000
F001E000
F001E000
F001E000
F001E000
F001E000
F001E000
F001E000
F001E000
F001E000
F001E000
F001E000
F001E000
0FFE0000
0FFE0000
0FFE0000
0FFE0000
ENDCHAR
STARTCHAR uni1ED1
ENCODING 7889
SWIDTH 373 0
DWIDTH 19 0
BBX 24 34 2 0
BITMAP
07800F
07800F
07800F
07800F
7878F0
7878F0
7878F0
7878F0
000000
000000
000000
1FE000
1FE000
1FE000
1FE000
FFFE00
F01E00
F01E00
F01E00
F01E00
F01E00
F01E00
F01E00
F01E00
F01E00
F01E00
F01E00
F01E00
F01E00
F01E00
1FE000
1FE000
1FE000
1FE000
ENDCHAR
STARTCHAR uni1ED2
ENCODING 7890
SWIDTH 456 0
DWIDTH 23 0
BBX 26 41 -5 0
BITMAP
F003C000
F003C000
F003C000
F003C000
1E1E3C00
1E1E3C00
1E1E3C00
1E1E3C00
00000000
00000000
00000000
001FFC00
001FFC00
001FFC00
001FFC00
01E003C0
01E003C0
01E003C0
01E003C0
01E003C0
01E003C0
01E003C0
01E003C0
01E003C0
01E003C0
01E003C0
01E003C0
01E003C0
01E003C0
01E003C0
01E003C0
01E003C0
01E003C0
01E003C0
01E003C0
01E003C0
01E003C0
001FFC00
001FFC00
001FFC00
001FFC00
ENDCHAR
STARTCHAR uni1ED3
ENCODING 7891
SWIDTH 373 0
DWIDTH 19 0
BBX 24 34 -7 0
BITMAP
F003C0
F003C0
F003C0
F003C0
1E1E3C
1E1E3C
1E1E3C
1E1E3C
000000
000000
000000
000FF0
000FF0
000FF0
000FF0
007FFF
00780F
00780F
00780F
00780F
00780F
00780F
00780F
00780F
00780F
00780F
00780F
00780F
00780F
00780F
000FF0
000FF0
000FF0
000FF0
ENDCHAR
STARTCHAR uni1ED4
ENCODING 7892
SWIDTH 456 0
DWIDTH 23 0
BBX 26 44 2 0
BITMAP
0001FC00
0001FC00
0001FC00
01E1FFC0
01E003C0
01E003C0
01E003C0
0F1E3C00
0F1E3C00
0F1E3C00
0F1E3C00
00000000
00000000
00000000
0FFE0000
0FFE0000
0FFE0000
0FFE0000
F001E000
F001E000
F001E000
F001E000
F001E000
F001E000
F001E000
F001E000
F001E000
F001E000
F001E000
F001E000
F001E000
F001E000
F001E000
F001E000
F001E000
F001E000
F001E000
F001E000
F001E000
F001E000
0FFE0000
0FFE0000
0FFE0000
0FFE0000
ENDCHAR
STARTCHAR uni1ED5
ENCODING 7893
SWIDTH 373 0
DWIDTH 19 0
BBX 24 37 2 0
BITMAP
000FF0
000FF0
000FF0
078FFF
07800F
07800F
07800F
7878F0
7878F0
7878F0
7878F0
000000
000000
000000
1FE000
1FE000
1FE000
1FE000
FFFE00
F01E00
F01E00
F01E00
F01E00
F01E00
F01E00
F01E00
F01E00
F01E00
F01E00
F01E00
F01E00
F01E00
F01E00
1FE000
1FE000
1FE000
1FE000
ENDCHAR
STARTCHAR uni1ED6
ENCODING 7894
SWIDTH 456 0
DWIDTH 23 0
BBX 19 48 2 0
BITMAP
0FFE00
0FFE00
0FFE00
0FFE00
000000
000000
000000
01E000
01E000
01E000
01E000
0F1E00
0F1E00
0F1E00
0F1E00
000000
000000
000000
0FFE00
0FFE00
0FFE00
0FFE00
F001E0
F001E0
F001E0
F001E0
F001E0
F001E0
F001E0
F001E0
F001E0
F001E0
F001E0
F001E0
F001E0
F001E0
F001E0
F001E0
F001E0
F001E0
F001E0
F001E0
F001E0
F001E0
0FFE00
0FFE00
0FFE00
0FFE00
ENDCHAR
STARTCHAR uni1ED7
ENCODING 7895
SWIDTH 373 0
DWIDTH 19 0
BBX 15 41 2 0
BITMAP
3FF8
3FF8
3FF8
3FF8
0000
0000
0000
0780
0780
0780
0780
3C78
3C78
3C78
3C78
0000
0000
0000
1FE0
1FE0
1FE0
1FE0
FFFE
F01E
F01E
F01E
F01E
F01E
F01E
F01E
F01E
F01E
F01E
F01E
F01E
F01E
F01E
1FE0
1FE0
1FE0
1FE0
ENDCHAR
STARTCHAR uni1ED8
ENCODING 7896
SWIDTH 456 0
DWIDTH 23 0
BBX 19 51 2 -10
BITMAP
01E000
01E000
01E000
01E000
0F1E00
0F1E00
0F1E00
0F1E00
000000
000000
000000
0FFE00
0FFE00
0FFE00
0FFE00
F001E0
F001E0
F001E0
F001E0
F001E0
F001E0
F001E0
F001E0
F001E0
F001E0
F001E0
F001E0
F001E0
F001E0
F001E0
F001E0
F001E0
F001E0
F001E0
F001E0
F001E0
F001E0
0FFE00
0FFE00
0FFE00
0FFE00
000000
000000
000000
000000
000000
000000
01E000
01E000
01E000
01E000
ENDCHAR
STARTCHAR uni1ED9
ENCODING 7897
SWIDTH 373 0
DWIDTH 19 0
BBX 15 44 2 -10
BITMAP
0780
0780
0780
0780
3C78
3C78
3C78
3C78
0000
0000
0000
1FE0
1FE0
1FE0
1FE0
FFFE
F01E
F01E
F01E
F01E
F01E
F01E
F01E
F01E
F01E
F01E
F01E
F01E
F01E
F01E
1FE0
1FE0
1FE0
1FE0
0000
0000
0000
0000
0000
0000
0780
0780
0780
0780
ENDCHAR
STARTCHAR uni1EDA
ENCODING 7898
SWIDTH 547 0
DWIDTH 27 0
BBX 26 41 2 0
BITMAP
00780000
00780000
00780000
00780000
03C00000
03C00000
03C00000
03C003C0
000003C0
000003C0
000003C0
0FFE3E00
0FFE3E00
0FFE3E00
0FFE3E00
F001E000
F001E000
F001E000
F001E000
F001E000
F001E000
F001E000
F001E000
F001E000
F001E000
F001E000
F001E000
F001E000
F001E000
F001E000
F001E000
F001E000
F001E000
F001E000
F001E000
F001E000
F001E000
0FFE0000
0FFE0000
0FFE0000
0FFE0000
ENDCHAR
STARTCHAR uni1EDB
ENCODING 7899
SWIDTH 473 0
DWIDTH 24 0
BBX 23 34 2 0
BITMAP
01E000
01E000
01E000
01E000
0F0000
0F0000
0F0000
0F0000
00003E
00003E
00003E
0FE1FE
0FE1E0
0FE1E0
0FE1E0
FFFFE0
F01E00
F01E00
F01E00
F01E00
F01E00
F01E00
F01E00
F01E00
F01E00
F01E00
F01E00
F01E00
F01E00
F01E00
0FE000
0FE000
0FE000
0FE000
ENDCHAR
STARTCHAR uni1EDC
ENCODING 7900
SWIDTH 547 0
DWIDTH 27 0
BBX 26 41 2 0
BITMAP
03C00000
03C00000
03C00000
03C00000
00780000
00780000
00780000
007803C0
000003C0
000003C0
000003C0
0FFE3E00
0FFE3E00
0FFE3E00
0FFE3E00
F001E000
F001E000
F001E000
F001E000
F001E000
F001E000
F001E000
F001E000
F001E000
F001E000
F001E000
F001E000
F001E000
F001E000
F001E000
F001E000
F001E000
F001E000
F001E000
F001E000
F001E000
F001E000
0FFE0000
0FFE0000
0FFE0000
0FFE0000
ENDCHAR
STARTCHAR uni1EDD
ENCODING 7901
SWIDTH 473 0
DWIDTH 24 0
BBX 23 34 2 0
BITMAP
0F0000
0F0000
0F0000
0F0000
01E000
01E000
01E000
01E000
00003E
00003E
00003E
0FE1FE
0FE1E0
0FE1E0
0FE1E0
FFFFE0
F01E00
F01E00
F01E00
F01E00
F01E00
F01E00
F01E00
F01E00
F01E00
F01E00
F01E00
F01E00
F01E00
F01E00
0FE000
0FE000
0FE000
0FE000
ENDCHAR
STARTCHAR uni1EDE
ENCODING 7902
SWIDTH 547 0
DWIDTH 27 0
BBX 26 44 2 0
BITMAP
0FE00000
0FE00000
0FE00000
0FFE0000
001E0000
001E0000
001E0000
01E00000
01E00000
01E00000
01E003C0
000003C0
000003C0
000003C0
0FFE3E00
0FFE3E00
0FFE3E00
0FFE3E00
F001E000
F001E000
F001E000
F001E000
F001E000
F001E000
F001E000
F001E000
F001E000
F001E000
F001E000
F001E000
F001E000
F001E000
F001E000
F001E000
F001E000
F001E000
F001E000
F001E000
F001E000
F001E000
0FFE0000
0FFE0000
0FFE0000
0FFE0000
ENDCHAR
STARTCHAR uni1EDF
ENCODING 7903
SWIDTH 473 0
DWIDTH 24 0
BBX 23 37 2 0
BITMAP
3F8000
3F8000
3F8000
3FF800
007800
007800
007800
078000
078000
078000
078000
00003E
00003E
00003E
0FE1FE
0FE1E0
0FE1E0
0FE1E0
FFFFE0
F01E00
F01E00
F01E00
F01E00
F01E00
F01E00
F01E00
F01E00
F01E00
F01E00
F01E00
F01E00
F01E00
F01E00
0FE000
0FE000
0FE000
0FE000
ENDCHAR
STARTCHAR uni1EE0
ENCODING 7904
SWIDTH 547 0
DWIDTH 27 0
BBX 26 41 2 0
BITMAP
03C78000
03C78000
03C78000
03C78000
3C7C0000
3C7C0000
3C7C0000
3C7C03C0
000003C0
000003C0
000003C0
0FFE3E00
0FFE3E00
0FFE3E00
0FFE3E00
F001E000
F001E000
F001E000
F001E000
F001E000
F001E000
F001E000
F001E000
F001E000
F001E000
F001E000
F001E000
F001E000
F001E000
F001E000
F001E000
F001E000
F001E000
F001E000
F001E000
F001E000
F001E000
0FFE0000
0FFE0000
0FFE0000
0FFE0000
ENDCHAR
STARTCHAR uni1EE1
ENCODING 7905
SWIDTH 473 0
DWIDTH 24 0
BBX 23 34 2 0
BITMAP
0F1E00
0F1E00
0F1E00
0F1E00
F1F000
F1F000
F1F000
F1F000
00003E
00003E
00003E
0FE1FE
0FE1E0
0FE1E0
0FE1E0
FFFFE0
F01E00
F01E00
F01E00
F01E00
F01E00
F01E00
F01E00
F01E00
F01E00
F01E00
F01E00
F01E00
F01E00
F01E00
0FE000
0FE000
0FE000
0FE000
ENDCHAR
STARTCHAR uni1EE2
ENCODING 7906
SWIDTH 547 0
DWIDTH 27 0
BBX 26 44 2 -10
BITMAP
000003C0
000003C0
000003C0
000003C0
0FFE3E00
0FFE3E00
0FFE3E00
0FFE3E00
F001E000
F001E000
F001E000
F001E000
F001E000
F001E000
F001E000
F001E000
F001E000
F001E000
F001E000
F001E000
F001E000
F001E000
F001E000
F001E000
F001E000
F001E000
F001E000
F001E000
F001E000
F001E000
0FFE0000
0FFE0000
0FFE0000
0FFE0000
00000000
00000000
00000000
00000000
00000000
00000000
01E00000
01E00000
01E00000
01E00000
ENDCHAR
STARTCHAR uni1EE3
ENCODING 7907
SWIDTH 473 0
DWIDTH 24 0
BBX 23 36 2 -10
BITMAP
00003E
00003E
00003E
0FE1FE
0FE1E0
0FE1E0
0FE1E0
FFFFE0
F01E00
F01E00
F01E00
F01E00
F01E00
F01E00
F01E00
F01E00
F01E00
F01E00
F01E00
F01E00
F01E00
F01E00
0FE000
0FE000
0FE000
0FE000
000000
000000
000000
000000
000000
000000
03C000
03C000
03C000
03C000
ENDCHAR
STARTCHAR uni1EE4
ENCODING 7908
SWIDTH 456 0
DWIDTH 23 0
BBX 19 40 2 -10
BITMAP
F001E0
F001E0
F001E0
F001E0
F001E0
F001E0
F001E0
F001E0
F001E0
F001E0
F001E0
F001E0
F001E0
F001E0
F001E0
F001E0
F001E0
F001E0
F001E0
F001E0
F001E0
F001E0
F001E0
F001E0
F001E0
F001E0
0FFE00
0FFE00
0FFE00
0FFE00
000000
000000
000000
000000
000000
000000
01E000
01E000
01E000
01E000
ENDCHAR
STARTCHAR uni1EE5
ENCODING 7909
SWIDTH 378 0
DWIDTH 19 0
BBX 15 33 2 -10
BITMAP
F01E
F01E
F01E
F01E
F01E
F01E
F01E
F01E
F01E
F01E
F01E
F01E
F01E
F01E
F01E
F01E
F01E
F01E
F01E
1FFE
1FFE
1FFE
1FFE
0000
0000
0000
0000
0000
0000
0780
0780
0780
0780
ENDCHAR
STARTCHAR uni1EE6
ENCODING 7910
SWIDTH 456 0
DWIDTH 23 0
BBX 19 44 2 0
BITMAP
0FE000
0FE000
0FE000
0FFE00
001E00
001E00
001E00
01E000
01E000
01E000
01E000
000000
000000
000000
F001E0
F001E0
F001E0
F001E0
F001E0
F001E0
F001E0
F001E0
F001E0
F001E0
F001E0
F001E0
F001E0
F001E0
F001E0
F001E0
F001E0
F001E0
F001E0
F001E0
F001E0
F001E0
F001E0
F001E0
F001E0
F001E0
0FFE00
0FFE00
0FFE00
0FFE00
ENDCHAR
STARTCHAR uni1EE7
ENCODING 7911
SWIDTH 378 0
DWIDTH 19 0
BBX 15 37 2 0
BITMAP
3F80
3F80
3F80
3FF8
0078
0078
0078
0780
0780
0780
0780
0000
0000
0000
F01E
F01E
F01E
F01E
F01E
F01E
F01E
F01E
F01E
F01E
F01E
F01E
F01E
F01E
F01E
F01E
F01E
F01E
F01E
1FFE
1FFE
1FFE
1FFE
ENDCHAR
STARTCHAR uni1EE8
ENCODING 7912
SWIDTH 544 0
DWIDTH 27 0
BBX 26 41 2 0
BITMAP
00780000
00780000
00780000
00780000
03C00000
03C00000
03C00000
03C003C0
000003C0
000003C0
000003C0
F001FE00
F001FE00
F001FE00
F001FE00
F001E000
F001E000
F001E000
F001E000
F001E000
F001E000
F001E000
F001E000
F001E000
F001E000
F001E000
F001E000
F001E000
F001E000
F001E000
F001E000
F001E000
F001E000
F001E000
F001E000
F001E000
F001E000
0FFE0000
0FFE0000
0FFE0000
0FFE0000
ENDCHAR
STARTCHAR uni1EE9
ENCODING 7913
SWIDTH 475 0
DWIDTH 24 0
BBX 23 34 2 0
BITMAP
00F000
00F000
00F000
00F000
0F0000
0F0000
0F0000
0F0000
00003E
00003E
00003E
F01FFE
F01FE0
F01FE0
F01FE0
F01FE0
F01E00
F01E00
F01E00
F01E00
F01E00
F01E00
F01E00
F01E00
F01E00
F01E00
F01E00
F01E00
F01E00
F01E00
0FFE00
0FFE00
0FFE00
0FFE00
ENDCHAR
STARTCHAR uni1EEA
ENCODING 7914
SWIDTH 544 0
DWIDTH 27 0
BBX 26 41 2 0
BITMAP
03C00000
03C00000
03C00000
03C00000
00780000
00780000
00780000
007803C0
000003C0
000003C0
000003C0
F001FE00
F001FE00
F001FE00
F001FE00
F001E000
F001E000
F001E000
F001E000
F001E000
F001E000
F001E000
F001E000
F001E000
F001E000
F001E000
F001E000
F001E000
F001E000
F001E000
F001E000
F001E000
F001E000
F001E000
F001E000
F001E000
F001E000
0FFE0000
0FFE0000
0FFE0000
0FFE0000
ENDCHAR
STARTCHAR uni1EEB
ENCODING 7915
SWIDTH 475 0
DWIDTH 24 0
BBX 23 34 2 0
BITMAP
0F0000
0F0000
0F0000
0F0000
01F000
01F000
01F000
01F000
00003E
00003E
00003E
F01FFE
F01FE0
F01FE0
F01FE0
F01FE0
F01E00
F01E00
F01E00
F01E00
F01E00
F01E00
F01E00
F01E00
F01E00
F01E00
F01E00
F01E00
F01E00
F01E00
0FFE00
0FFE00
0FFE00
0FFE00
ENDCHAR
STARTCHAR uni1EEC
ENCODING 7916
SWIDTH 544 0
DWIDTH 27 0
BBX 26 44 2 0
BITMAP
0FE00000
0FE00000
0FE00000
0FFE0000
001E0000
001E0000
001E0000
01E00000
01E00000
01E00000
01E003C0
000003C0
000003C0
000003C0
F001FE00
F001FE00
F001FE00
F001FE00
F001E000
F001E000
F001E000
F001E000
F001E000
F001E000
F001E000
F001E000
F001E000
F001E000
F001E000
F001E000
F001E000
F001E000
F001E000
F001E000
F001E000
F001E000
F001E000
F001E000
F001E000
F001E000
0FFE0000
0FFE0000
0FFE0000
0FFE0000
ENDCHAR
STARTCHAR uni1EED
ENCODING 7917
SWIDTH 475 0
DWIDTH 24 0
BBX 23 37 2 0
BITMAP
3FC000
3FC000
3FC000
3FF800
007800
007800
007800
03C000
03C000
03C000
03C000
00003E
00003E
00003E
F01FFE
F01FE0
F01FE0
F01FE0
F01FE0
F01E00
F01E00
F01E00
F01E00
F01E00
F01E00
F01E00
F01E00
F01E00
F01E00
F01E00
F01E00
F01E00
F01E00
0FFE00
0FFE00
0FFE00
0FFE00
ENDCHAR
STARTCHAR uni1EEE
ENCODING 7918
SWIDTH 544 0
DWIDTH 27 0
BBX 26 41 2 0
BITMAP
03C78000
03C78000
03C78000
03C78000
3C780000
3C780000
3C780000
3C7803C0
000003C0
000003C0
000003C0
F001FE00
F001FE00
F001FE00
F001FE00
F001E000
F001E000
F001E000
F001E000
F001E000
F001E000
F001E000
F001E000
F001E000
F001E000
F001E000
F001E000
F001E000
F001E000
F001E000
F001E000
F001E000
F001E000
F001E000
F001E000
F001E000
F001E000
0FFE0000
0FFE0000
0FFE0000
0FFE0000
ENDCHAR
STARTCHAR uni1EEF
ENCODING 7919
SWIDTH 475 0
DWIDTH 24 0
BBX 23 34 2 0
BITMAP
0F1E00
0F1E00
0F1E00
0F1E00
F1E000
F1E000
F1E000
F1E000
00003E
00003E
00003E
F01FFE
F01FE0
F01FE0
F01FE0
F01FE0
F01E00
F01E00
F01E00
F01E00
F01E00
F01E00
F01E00
F01E00
F01E00
F01E00
F01E00
F01E00
F01E00
F01E00
0FFE00
0FFE00
0FFE00
0FFE00
ENDCHAR
STARTCHAR uni1EF0
ENCODING 7920
SWIDTH 544 0
DWIDTH 27 0
BBX 26 44 2 -10
BITMAP
000003C0
000003C0
000003C0
000003C0
F001FE00
F001FE00
F001FE00
F001FE00
F001E000
F001E000
F001E000
F001E000
F001E000
F001E000
F001E000
F001E000
F001E000
F001E000
F001E000
F001E000
F001E000
F001E000
F001E000
F001E000
F001E000
F001E000
F001E000
F001E000
F001E000
F001E000
0FFE0000
0FFE0000
0FFE0000
0FFE0000
00000000
00000000
00000000
00000000
00000000
00000000
00F00000
00F00000
00F00000
00F00000
ENDCHAR
STARTCHAR uni1EF1
ENCODING 7921
SWIDTH 475 0
DWIDTH 24 0
BBX 23 36 2 -10
BITMAP
00003E
00003E
00003E
F01FFE
F01FE0
F01FE0
F01FE0
F01FE0
F01E00
F01E00
F01E00
F01E00
F01E00
F01E00
F01E00
F01E00
F01E00
F01E00
F01E00
F01E00
F01E00
F01E00
0FFE00
0FFE00
0FFE00
0FFE00
000000
000000
000000
000000
000000
000000
03C000
03C000
03C000
03C000
ENDCHAR
STARTCHAR Ygrave
ENCODING 7922
SWIDTH 456 0
DWIDTH 23 0
BBX 19 41 2 0
BITMAP
03C000
03C000
03C000
03C000
007800
007800
007800
007800
000000
000000
000000
F001E0
F001E0
F001E0
F001E0
0F1E00
0F1E00
0F1E00
0F1E00
0F1E00
0F1E00
0F1E00
0FFE00
01E000
01E000
01E000
01E000
01E000
01E000
01E000
01E000
01E000
01E000
01E000
01E000
01E000
01E000
01E000
01E000
01E000
01E000
ENDCHAR
STARTCHAR ygrave
ENCODING 7923
SWIDTH 378 0
DWIDTH 19 0
BBX 15 45 2 -11
BITMAP
0F00
0F00
0F00
0F00
01E0
01E0
01E0
01E0
0000
0000
0000
F01E
F01E
F01E
F01E
F01E
F01E
F01E
F01E
F01E
F01E
F01E
F01E
F01E
F01E
F01E
F01E
F01E
F01E
F01E
1FFE
1FFE
1FFE
1FFE
001E
001E
001E
F01E
F01E
F01E
F01E
1FE0
1FE0
1FE0
1FE0
ENDCHAR
STARTCHAR endash
ENCODING 8211
SWIDTH 427 0
DWIDTH 21 0
BBX 19 4 1 11
BITMAP
FFFFE0
FFFFE0
FFFFE0
FFFFE0
ENDCHAR
STARTCHAR emdash
ENCODING 8212
SWIDTH 575 0
DWIDTH 29 0
BBX 27 4 1 11
BITMAP
FFFFFFE0
FFFFFFE0
FFFFFFE0
FFFFFFE0
ENDCHAR
STARTCHAR quoteleft
ENCODING 8216
SWIDTH 216 0
DWIDTH 11 0
BBX 7 12 2 22
BITMAP
F0
F0
F0
F0
F0
F0
F0
F0
1E
1E
1E
1E
ENDCHAR
STARTCHAR quoteright
ENCODING 8217
SWIDTH 216 0
DWIDTH 11 0
BBX 7 12 2 22
BITMAP
1E
1E
1E
1E
1E
1E
1E
1E
F0
F0
F0
F0
ENDCHAR
STARTCHAR quotesinglbase
ENCODING 8218
SWIDTH 216 0
DWIDTH 11 0
BBX 7 12 2 -4
BITMAP
1E
1E
1E
1E
1E
1E
1E
1E
F0
F0
F0
F0
ENDCHAR
STARTCHAR quotedblleft
ENCODING 8220
SWIDTH 432 0
DWIDTH 22 0
BBX 18 12 2 22
BITMAP
F03C00
F03C00
F03C00
F03C00
F03C00
F03C00
F03C00
F03C00
1E03C0
1E03C0
1E03C0
1E03C0
ENDCHAR
STARTCHAR quotedblright
ENCODING 8221
SWIDTH 432 0
DWIDTH 22 0
BBX 18 12 2 22
BITMAP
1E03C0
1E03C0
1E03C0
1E03C0
1E03C0
1E03C0
1E03C0
1E03C0
F03C00
F03C00
F03C00
F03C00
ENDCHAR
STARTCHAR quotedblbase
ENCODING 8222
SWIDTH 432 0
DWIDTH 22 0
BBX 18 12 2 -4
BITMAP
1E03C0
1E03C0
1E03C0
1E03C0
1E03C0
1E03C0
1E03C0
1E03C0
F03C00
F03C00
F03C00
F03C00
ENDCHAR
STARTCHAR dagger
ENCODING 8224
SWIDTH 456 0
DWIDTH 23 0
BBX 19 30 2 0
BITMAP
01E000
01E000
01E000
01E000
01E000
01E000
01E000
FFFFE0
FFFFE0
FFFFE0
FFFFE0
FFFFE0
01E000
01E000
01E000
01E000
01E000
01E000
01E000
01E000
01E000
01E000
01E000
01E000
01E000
01E000
01E000
01E000
01E000
01E000
ENDCHAR
STARTCHAR daggerdbl
ENCODING 8225
SWIDTH 456 0
DWIDTH 23 0
BBX 19 30 2 0
BITMAP
01E000
01E000
01E000
01E000
01E000
01E000
01E000
FFFFE0
FFFFE0
FFFFE0
FFFFE0
FFFFE0
01E000
01E000
01E000
01E000
01E000
01E000
01E000
FFFFE0
FFFFE0
FFFFE0
FFFFE0
01E000
01E000
01E000
01E000
01E000
01E000
01E000
ENDCHAR
STARTCHAR bullet
ENCODING 8226
SWIDTH 382 0
DWIDTH 19 0
BBX 15 16 2 7
BITMAP
0FE0
0FE0
0FE0
0FE0
FFFE
FFFE
FFFE
FFFE
FFFE
FFFE
FFFE
FFFE
0FE0
0FE0
0FE0
0FE0
ENDCHAR
STARTCHAR ellipsis
ENCODING 8230
SWIDTH 746 0
DWIDTH 37 0
BBX 33 4 2 0
BITMAP
F003C00780
F003C00780
F003C00780
F003C00780
ENDCHAR
STARTCHAR perthousand
ENCODING 8240
SWIDTH 826 0
DWIDTH 41 0
BBX 37 30 2 0
BITMAP
0F003E0000
0F003E0000
0F003E0000
0F003E0000
F1E03E0000
F1E03E0000
F1E03E0000
F1E1FE0000
F1E1E00000
F1E1E00000
F1E1E00000
FFE1E00000
0F01E00000
0F01E00000
0F01E00000
001E03C3C0
001E03C3C0
001E03C3C0
001E03C3C0
001E3E3C78
001E3E3C78
001E3E3C78
01FE3E3C78
01E03E3C78
01E03E3C78
01E03E3C78
01E003C3C0
01E003C3C0
01E003C3C0
01E003C3C0
ENDCHAR
STARTCHAR guilsinglleft
ENCODING 8249
SWIDTH 279 0
DWIDTH 14 0
BBX 12 19 1 4
BITMAP
00F0
00F0
00F0
00F0
0FF0
0F00
0F00
0F00
F000
F000
F000
F000
0F00
0F00
0F00
0FF0
00F0
00F0
00F0
ENDCHAR
STARTCHAR guilsinglright
ENCODING 8250
SWIDTH 279 0
DWIDTH 14 0
BBX 12 19 1 4
BITMAP
F000
F000
F000
F000
FF00
0F00
0F00
0F00
00F0
00F0
00F0
00F0
0F00
0F00
0F00
FF00
F000
F000
F000
ENDCHAR
STARTCHAR fraction
ENCODING 8260
SWIDTH 148 0
DWIDTH 7 0
BBX 15 30 -4 0
BITMAP
001E
001E
001E
001E
001E
001E
001E
00FE
00F0
00F0
00F0
00F0
00F0
00F0
00F0
0F00
0F00
0F00
0F00
0F00
0F00
0F00
FF00
F000
F000
F000
F000
F000
F000
F000
ENDCHAR
STARTCHAR zerosuperior
ENCODING 8304
SWIDTH 322 0
DWIDTH 16 0
BBX 12 18 2 13
BITMAP
1F80
1F80
1F80
E070
E070
E070
E070
E070
E070
E070
E070
E070
E070
E070
E070
1F80
1F80
1F80
ENDCHAR
STARTCHAR foursuperior
ENCODING 8308
SWIDTH 381 0
DWIDTH 19 0
BBX 15 18 2 13
BITMAP
0070
0070
0070
03F0
03F0
03F0
1C70
1C70
1C70
FFFE
FFFE
FFFE
0070
0070
0070
0070
0070
0070
ENDCHAR
STARTCHAR fivesuperior
ENCODING 8309
SWIDTH 322 0
DWIDTH 16 0
BBX 12 18 2 13
BITMAP
FFF0
FFF0
FFF0
E000
E000
E000
FF80
FF80
FF80
0070
0070
0070
E070
E070
E070
1F80
1F80
1F80
ENDCHAR
STARTCHAR sixsuperior
ENCODING 8310
SWIDTH 322 0
DWIDTH 16 0
BBX 12 18 2 13
BITMAP
1F80
1F80
1F80
E000
E000
E000
FF80
FF80
FF80
E070
E070
E070
E070
E070
E070
1F80
1F80
1F80
ENDCHAR
STARTCHAR sevensuperior
ENCODING 8311
SWIDTH 322 0
DWIDTH 16 0
BBX 12 18 2 13
BITMAP
FFF0
FFF0
FFF0
0070
0070
0070
0380
0380
0380
1C00
1C00
1C00
1C00
1C00
1C00
1C00
1C00
1C00
ENDCHAR
STARTCHAR eightsuperior
ENCODING 8312
SWIDTH 322 0
DWIDTH 16 0
BBX 12 18 2 13
BITMAP
1F80
1F80
1F80
E070
E070
E070
E070
1F80
1F80
1F80
E070
E070
E070
E070
E070
1F80
1F80
1F80
ENDCHAR
STARTCHAR ninesuperior
ENCODING 8313
SWIDTH 322 0
DWIDTH 16 0
BBX 12 18 2 13
BITMAP
1F80
1F80
1F80
E070
E070
E070
E070
FFF0
1FF0
1FF0
1FF0
0070
E070
E070
E070
1F80
1F80
1F80
ENDCHAR
STARTCHAR zeroinferior
ENCODING 8320
SWIDTH 322 0
DWIDTH 16 0
BBX 12 18 2 -2
BITMAP
1F80
1F80
1F80
E070
E070
E070
E070
E070
E070
E070
E070
E070
E070
E070
E070
1F80
1F80
1F80
ENDCHAR
STARTCHAR oneinferior
ENCODING 8321
SWIDTH 203 0
DWIDTH 10 0
BBX 6 18 2 -2
BITMAP
1C
1C
1C
FC
FC
FC
1C
1C
1C
1C
1C
1C
1C
1C
1C
1C
1C
1C
ENDCHAR
STARTCHAR twoinferior
ENCODING 8322
SWIDTH 322 0
DWIDTH 16 0
BBX 12 18 2 -2
BITMAP
1F80
1F80
1F80
E070
E070
E070
0380
0380
0380
1C00
1C00
1C00
E000
E000
E000
FFF0
FFF0
FFF0
ENDCHAR
STARTCHAR threeinferior
ENCODING 8323
SWIDTH 322 0
DWIDTH 16 0
BBX 12 18 2 -2
BITMAP
1F80
1F80
1F80
E070
E070
E070
0070
0380
0380
0380
0070
0070
E070
E070
E070
1F80
1F80
1F80
ENDCHAR
STARTCHAR fourinferior
ENCODING 8324
SWIDTH 381 0
DWIDTH 19 0
BBX 15 18 2 -2
BITMAP
0070
0070
0070
03F0
03F0
03F0
1C70
1C70
1C70
FFFE
FFFE
FFFE
0070
0070
0070
0070
0070
0070
ENDCHAR
STARTCHAR fiveinferior
ENCODING 8325
SWIDTH 322 0
DWIDTH 16 0
BBX 12 18 2 -2
BITMAP
FFF0
FFF0
FFF0
E000
E000
E000
FF80
FF80
FF80
0070
0070
0070
E070
E070
E070
1F80
1F80
1F80
ENDCHAR
STARTCHAR sixinferior
ENCODING 8326
SWIDTH 322 0
DWIDTH 16 0
BBX 12 18 2 -2
BITMAP
1F80
1F80
1F80
E000
E000
E000
FF80
FF80
FF80
E070
E070
E070
E070
E070
E070
1F80
1F80
1F80
ENDCHAR
STARTCHAR seveninferior
ENCODING 8327
SWIDTH 322 0
DWIDTH 16 0
BBX 12 18 2 -2
BITMAP
FFF0
FFF0
FFF0
0070
0070
0070
0380
0380
0380
1C00
1C00
1C00
1C00
1C00
1C00
1C00
1C00
1C00
ENDCHAR
STARTCHAR eightinferior
ENCODING 8328
SWIDTH 322 0
DWIDTH 16 0
BBX 12 18 2 -2
BITMAP
1F80
1F80
1F80
E070
E070
E070
E070
1F80
1F80
1F80
E070
E070
E070
E070
E070
1F80
1F80
1F80
ENDCHAR
STARTCHAR nineinferior
ENCODING 8329
SWIDTH 322 0
DWIDTH 16 0
BBX 12 18 2 -2
BITMAP
1F80
1F80
1F80
E070
E070
E070
E070
FFF0
1FF0
1FF0
1FF0
0070
E070
E070
E070
1F80
1F80
1F80
ENDCHAR
STARTCHAR dong
ENCODING 8363
SWIDTH 438 0
DWIDTH 22 0
BBX 19 34 2 -4
BITMAP
001F00
001F00
001F00
001F00
00FFE0
00FFE0
00FFE0
00FFE0
001F00
001F00
001F00
0FFF00
0FFF00
0FFF00
0FFF00
F01F00
F01F00
F01F00
F01F00
F01F00
F01F00
F01F00
FFFF00
0FFF00
0FFF00
0FFF00
000000
000000
000000
000000
FFFF00
FFFF00
FFFF00
FFFF00
ENDCHAR
STARTCHAR Euro
ENCODING 8364
SWIDTH 442 0
DWIDTH 22 0
BBX 19 30 1 0
BITMAP
00FFE0
00FFE0
00FFE0
00FFE0
0F0000
0F0000
0F0000
FFFE00
FFFE00
FFFE00
FFFE00
FFFE00
0F0000
0F0000
0F0000
FFF000
FFF000
FFF000
FFF000
0F0000
0F0000
0F0000
0F0000
0F0000
0F0000
0F0000
00FFE0
00FFE0
00FFE0
00FFE0
ENDCHAR
STARTCHAR uni2117
ENCODING 8471
SWIDTH 604 0
DWIDTH 30 0
BBX 26 30 2 0
BITMAP
0FFFFE00
0FFFFE00
0FFFFE00
0FFFFE00
F00003C0
F00003C0
F00003C0
F1FE03C0
F1FE03C0
F1FE03C0
F1FE03C0
F1FFE3C0
F1E1E3C0
F1E1E3C0
F1E1E3C0
F1FE03C0
F1FE03C0
F1FE03C0
F1FE03C0
F1E003C0
F1E003C0
F1E003C0
F1E003C0
F00003C0
F00003C0
F00003C0
0FFFFE00
0FFFFE00
0FFFFE00
0FFFFE00
ENDCHAR
STARTCHAR trademark
ENCODING 8482
SWIDTH 752 0
DWIDTH 38 0
BBX 34 15 2 15
BITMAP
FFE1FE3FC0
FFE1FE3FC0
FFE1FE3FC0
FFE1FE3FC0
0F01E3C3C0
0F01E3C3C0
0F01E3C3C0
0F01E3C3C0
0F01E3C3C0
0F01E3C3C0
0F01E3C3C0
0F01E3C3C0
0F01E3C3C0
0F01E3C3C0
0F01E3C3C0
ENDCHAR
STARTCHAR uni2126
ENCODING 8486
SWIDTH 456 0
DWIDTH 23 0
BBX 19 30 2 0
BITMAP
0FFE00
0FFE00
0FFE00
0FFE00
F001E0
F001E0
F001E0
F001E0
F001E0
F001E0
F001E0
F001E0
F001E0
F001E0
F001E0
F001E0
F001E0
F001E0
F001E0
0F1E00
0F1E00
0F1E00
0F1E00
0F1E00
0F1E00
0F1E00
FF1FE0
FF1FE0
FF1FE0
FF1FE0
ENDCHAR
STARTCHAR onethird
ENCODING 8531
SWIDTH 723 0
DWIDTH 36 0
BBX 32 33 2 -2
BITMAP
1C000000
1C003C00
1C003C00
FC003C00
FC003C00
FC003C00
1C003C00
1C003C00
1C03FC00
1C03C000
1C03C000
1C03C000
1C03C000
1C03C000
1C03C000
1C03C1F8
1C3E01F8
1C3E01F8
003E0E07
003E0E07
003E0E07
003E0007
003E0038
01FE0038
01E00038
01E00007
01E00007
01E00E07
01E00E07
01E00E07
01E001F8
000001F8
000001F8
ENDCHAR
STARTCHAR twothirds
ENCODING 8532
SWIDTH 792 0
DWIDTH 40 0
BBX 36 33 2 -2
BITMAP
1F80000000
1F80078000
1F80078000
E070078000
E070078000
E070078000
0380078000
0380078000
03803F8000
1C003C0000
1C003C0000
1C003C0000
E0003C0000
E0003C0000
E0003C0000
FFF03C3F80
FFF3C03F80
FFF3C03F80
0003C1E0F0
0003C1E0F0
0003C1E0F0
0003C000F0
0003C00780
003FC00780
003C000780
003C0000F0
003C0000F0
003C01E0F0
003C01E0F0
003C01E0F0
003C003F80
0000003F80
0000003F80
ENDCHAR
STARTCHAR oneeighth
ENCODING 8539
SWIDTH 723 0
DWIDTH 36 0
BBX 32 33 2 -2
BITMAP
1C000000
1C003C00
1C003C00
FC003C00
FC003C00
FC003C00
1C003C00
1C003C00
1C03FC00
1C03C000
1C03C000
1C03C000
1C03C000
1C03C000
1C03C000
1C03C1F8
1C3E01F8
1C3E01F8
003E0E07
003E0E07
003E0E07
003E0E07
003E01F8
01FE01F8
01E001F8
01E00E07
01E00E07
01E00E07
01E00E07
01E00E07
01E001F8
000001F8
000001F8
ENDCHAR
STARTCHAR threeeighths
ENCODING 8540
SWIDTH 792 0
DWIDTH 40 0
BBX 36 33 2 -2
BITMAP
1F80000000
1F80078000
1F80078000
E070078000
E070078000
E070078000
0070078000
0380078000
03803F8000
03803C0000
00703C0000
00703C0000
E0703C0000
E0703C0000
E0703C0000
1F803C3F80
1F83C03F80
1F83C03F80
0003C1E0F0
0003C1E0F0
0003C1E0F0
0003C1E0F0
0003C03F80
003FC03F80
003C003F80
003C01E0F0
003C01E0F0
003C01E0F0
003C01E0F0
003C01E0F0
003C003F80
0000003F80
0000003F80
ENDCHAR
STARTCHAR fiveeighths
ENCODING 8541
SWIDTH 792 0
DWIDTH 40 0
BBX 36 33 2 -2
BITMAP
FFF0000000
FFF0078000
FFF0078000
E000078000
E000078000
E000078000
FF80078000
FF80078000
FF803F8000
00703C0000
00703C0000
00703C0000
E0703C0000
E0703C0000
E0703C0000
1F803C3F80
1F83C03F80
1F83C03F80
0003C1E0F0
0003C1E0F0
0003C1E0F0
0003C1E0F0
0003C03F80
003FC03F80
003C003F80
003C01E0F0
003C01E0F0
003C01E0F0
003C01E0F0
003C01E0F0
003C003F80
0000003F80
0000003F80
ENDCHAR
STARTCHAR seveneighths
ENCODING 8542
SWIDTH 742 0
DWIDTH 37 0
BBX 33 33 2 -2
BITMAP
FFF0000000
FFF01E0000
FFF01E0000
00701E0000
00701E0000
00701E0000
03801E0000
03801E0000
0381FE0000
1C01E00000
1C01E00000
1C01E00000
1C01E00000
1C01E00000
1C01E00000
1C01E0FC00
1C1E00FC00
1C1E00FC00
001E070380
001E070380
001E070380
001E070380
001E00FC00
00FE00FC00
00F000FC00
00F0070380
00F0070380
00F0070380
00F0070380
00F0070380
00F000FC00
000000FC00
000000FC00
ENDCHAR
STARTCHAR partialdiff
ENCODING 8706
SWIDTH 382 0
DWIDTH 19 0
BBX 15 30 2 0
BITMAP
0FE0
0FE0
0FE0
0FE0
F01E
F01E
F01E
F01E
001E
001E
001E
0FFE
0FFE
0FFE
0FFE
F01E
F01E
F01E
F01E
F01E
F01E
F01E
F1FE
F1E0
F1E0
F1E0
0F00
0F00
0F00
0F00
ENDCHAR
STARTCHAR uni2206
ENCODING 8710
SWIDTH 530 0
DWIDTH 27 0
BBX 23 30 2 0
BITMAP
01FE00
01FE00
01FE00
01FE00
01FE00
01FE00
01FE00
0FFFE0
0F01E0
0F01E0
0F01E0
0F01E0
0F01E0
0F01E0
0F01E0
0F01E0
0F01E0
0F01E0
0F01E0
F0003E
F0003E
F0003E
F0003E
F0003E
F0003E
F0003E
FFFFFE
FFFFFE
FFFFFE
FFFFFE
ENDCHAR
STARTCHAR product
ENCODING 8719
SWIDTH 456 0
DWIDTH 23 0
BBX 19 37 2 -7
BITMAP
FFFFE0
FFFFE0
FFFFE0
FFFFE0
F001E0
F001E0
F001E0
F001E0
F001E0
F001E0
F001E0
F001E0
F001E0
F001E0
F001E0
F001E0
F001E0
F001E0
F001E0
F001E0
F001E0
F001E0
F001E0
F001E0
F001E0
F001E0
F001E0
F001E0
F001E0
F001E0
F001E0
F001E0
F001E0
F001E0
F001E0
F001E0
F001E0
ENDCHAR
STARTCHAR summation
ENCODING 8721
SWIDTH 456 0
DWIDTH 23 0
BBX 19 34 2 -4
BITMAP
FFFFE0
FFFFE0
FFFFE0
FFFFE0
F00000
F00000
F00000
FF0000
0F0000
0F0000
0F0000
0FE000
01E000
01E000
01E000
001E00
001E00
001E00
001E00
01E000
01E000
01E000
0FE000
0F0000
0F0000
0F0000
F00000
F00000
F00000
F00000
FFFFE0
FFFFE0
FFFFE0
FFFFE0
ENDCHAR
STARTCHAR minus
ENCODING 8722
SWIDTH 456 0
DWIDTH 23 0
BBX 19 4 2 11
BITMAP
FFFFE0
FFFFE0
FFFFE0
FFFFE0
ENDCHAR
STARTCHAR radical
ENCODING 8730
SWIDTH 604 0
DWIDTH 30 0
BBX 26 30 2 0
BITMAP
000003C0
000003C0
000003C0
000003C0
000003C0
000003C0
000003C0
000003C0
000003C0
000003C0
000003C0
00003FC0
00003E00
00003E00
00003E00
FF003E00
FF003E00
FF003E00
FF003E00
01E1E000
01E1E000
01E1E000
01E1E000
01E1E000
01E1E000
01E1E000
001E0000
001E0000
001E0000
001E0000
ENDCHAR
STARTCHAR infinity
ENCODING 8734
SWIDTH 604 0
DWIDTH 30 0
BBX 26 19 2 4
BITMAP
0FE1FE00
0FE1FE00
0FE1FE00
0FE1FE00
FFFFFFC0
F01E03C0
F01E03C0
F01E03C0
F01E03C0
F01E03C0
F01E03C0
F01E03C0
F01E03C0
F01E03C0
F01E03C0
FFFFFFC0
0FE1FE00
0FE1FE00
0FE1FE00
ENDCHAR
STARTCHAR integral
ENCODING 8747
SWIDTH 308 0
DWIDTH 15 0
BBX 11 48 2 -11
BITMAP
01E0
01E0
01E0
0FE0
0F00
0F00
0F00
0F00
0F00
0F00
0F00
0F00
0F00
0F00
0F00
0F00
0F00
0F00
0F00
0F00
0F00
0F00
0F00
0F00
0F00
0F00
0F00
0F00
0F00
0F00
0F00
0F00
0F00
0F00
0F00
0F00
0F00
0F00
0F00
0F00
0F00
0F00
0F00
0F00
F000
F000
F000
F000
ENDCHAR
STARTCHAR approxequal
ENCODING 8776
SWIDTH 456 0
DWIDTH 23 0
BBX 19 22 2 4
BITMAP
0FE1E0
0FE1E0
0FE1E0
FFFFE0
F1FE00
F1FE00
F1FE00
F1FE00
000000
000000
000000
000000
000000
000000
000000
0FE1E0
0FE1E0
0FE1E0
FFFFE0
F1FE00
F1FE00
F1FE00
ENDCHAR
STARTCHAR notequal
ENCODING 8800
SWIDTH 456 0
DWIDTH 23 0
BBX 19 26 2 0
BITMAP
001E00
001E00
001E00
001E00
001E00
001E00
001E00
FFFFE0
FFFFE0
FFFFE0
FFFFE0
01E000
01E000
01E000
01E000
FFFFE0
FFFFE0
FFFFE0
FFFFE0
0F0000
0F0000
0F0000
0F0000
0F0000
0F0000
0F0000
ENDCHAR
STARTCHAR lessequal
ENCODING 8804
SWIDTH 456 0
DWIDTH 23 0
BBX 19 27 2 -4
BITMAP
001E00
001E00
001E00
001E00
01FE00
01E000
01E000
01E000
0F0000
0F0000
0F0000
0F0000
01E000
01E000
01E000
01FE00
001E00
001E00
001E00
000000
000000
000000
000000
FFFFE0
FFFFE0
FFFFE0
FFFFE0
ENDCHAR
STARTCHAR greaterequal
ENCODING 8805
SWIDTH 456 0
DWIDTH 23 0
BBX 19 27 2 -4
BITMAP
0F0000
0F0000
0F0000
0F0000
0FE000
01E000
01E000
01E000
001E00
001E00
001E00
001E00
01E000
01E000
01E000
0FE000
0F0000
0F0000
0F0000
000000
000000
000000
000000
FFFFE0
FFFFE0
FFFFE0
FFFFE0
ENDCHAR
STARTCHAR dotmath
ENCODING 8901
SWIDTH 160 0
DWIDTH 8 0
BBX 4 4 2 11
BITMAP
F0
F0
F0
F0
ENDCHAR
STARTCHAR uni2579
ENCODING 9593
SWIDTH 234 0
DWIDTH 12 0
BBX 8 8 2 11
BITMAP
FF
FF
FF
FF
FF
FF
FF
FF
ENDCHAR
STARTCHAR lozenge
ENCODING 9674
SWIDTH 456 0
DWIDTH 23 0
BBX 19 19 2 4
BITMAP
01E000
01E000
01E000
01E000
0FFE00
0F1E00
0F1E00
0F1E00
F001E0
F001E0
F001E0
F001E0
0F1E00
0F1E00
0F1E00
0FFE00
01E000
01E000
01E000
ENDCHAR
STARTCHAR musicalnote
ENCODING 9834
SWIDTH 456 0
DWIDTH 23 0
BBX 19 30 2 0
BITMAP
01E000
01E000
01E000
01E000
01FE00
01FE00
01FE00
01FFE0
01FFE0
01FFE0
01FFE0
01FFE0
01E1E0
01E1E0
01E1E0
01E1E0
01E1E0
01E1E0
01E1E0
01E000
01E000
01E000
FFE000
FF0000
FF0000
FF0000
FF0000
FF0000
FF0000
FF0000
ENDCHAR
STARTCHAR fi
ENCODING 64257
SWIDTH 465 0
DWIDTH 23 0
BBX 19 30 2 0
BITMAP
01E1E0
01E1E0
01E1E0
01E1E0
0F0000
0F0000
0F0000
FFE1E0
FFE1E0
FFE1E0
FFE1E0
FFE1E0
0F01E0
0F01E0
0F01E0
0F01E0
0F01E0
0F01E0
0F01E0
0F01E0
0F01E0
0F01E0
0F01E0
0F01E0
0F01E0
0F01E0
0F01E0
0F01E0
0F01E0
0F01E0
ENDCHAR
STARTCHAR fl
ENCODING 64258
SWIDTH 455 0
DWIDTH 23 0
BBX 19 30 2 0
BITMAP
01E1E0
01E1E0
01E1E0
01E1E0
0F01E0
0F01E0
0F01E0
FFE1E0
FFE1E0
FFE1E0
FFE1E0
FFE1E0
0F01E0
0F01E0
0F01E0
0F01E0
0F01E0
0F01E0
0F01E0
0F01E0
0F01E0
0F01E0
0F01E0
0F01E0
0F01E0
0F01E0
0F01E0
0F01E0
0F01E0
0F01E0
ENDCHAR
STARTCHAR .notdef
ENCODING -1
SWIDTH 420 0
DWIDTH 21 0
BBX 19 40 1 -5
BITMAP
3FFF80
7FFFC0
FFFFE0
FFFFE0
FFFFE0
FC07E0
FC07E0
FC07E0
FC07E0
C3F860
C3F860
C3F860
C3F860
C3F860
C3F860
C3F860
FF87E0
FF87E0
FF87E0
FF87E0
FC3FE0
FC3FE0
FC3FE0
FC3FE0
FC3FE0
FC3FE0
FC3FE0
FC3FE0
FFFFE0
FFFFE0
FFFFE0
FC3FE0
FC3FE0
FC3FE0
FC3FE0
FFFFE0
FFFFE0
FFFFE0
7FFFC0
3FFF80
ENDCHAR
STARTCHAR .null
ENCODING -1
SWIDTH 0 0
DWIDTH 0 0
BBX 1 1 0 0
BITMAP
00
ENDCHAR
STARTCHAR nonmarkingreturn
ENCODING -1
SWIDTH 184 0
DWIDTH 9 0
BBX 1 1 0 0
BITMAP
00
ENDCHAR
STARTCHAR gravecircumflex
ENCODING -1
SWIDTH 530 0
DWIDTH 27 0
BBX 23 8 2 26
BITMAP
F001E0
F001E0
F001E0
F001E0
0F1E3E
0F1E3E
0F1E3E
0F1E3E
ENDCHAR
STARTCHAR brevetilde
ENCODING -1
SWIDTH 382 0
DWIDTH 19 0
BBX 15 15 2 26
BITMAP
FFFE
FFFE
FFFE
FFFE
0000
0000
0000
F01E
F01E
F01E
F01E
0FE0
0FE0
0FE0
0FE0
ENDCHAR
STARTCHAR breveacute
ENCODING -1
SWIDTH 382 0
DWIDTH 19 0
BBX 15 15 2 26
BITMAP
01E0
01E0
01E0
01E0
0F00
0F00
0F00
FF1E
F01E
F01E
F01E
0FE0
0FE0
0FE0
0FE0
ENDCHAR
STARTCHAR circumflexhook
ENCODING -1
SWIDTH 530 0
DWIDTH 27 0
BBX 23 11 2 26
BITMAP
001FE0
001FE0
001FE0
0F1FFE
0F003E
0F003E
0F003E
F1E1E0
F1E1E0
F1E1E0
F1E1E0
ENDCHAR
STARTCHAR circumflexacute
ENCODING -1
SWIDTH 530 0
DWIDTH 27 0
BBX 23 8 2 26
BITMAP
0F003E
0F003E
0F003E
0F003E
F1E1E0
F1E1E0
F1E1E0
F1E1E0
ENDCHAR
STARTCHAR brevehook
ENCODING -1
SWIDTH 382 0
DWIDTH 19 0
BBX 15 15 2 26
BITMAP
0FE0
0FE0
0FE0
0FE0
01E0
01E0
01E0
F1FE
F01E
F01E
F01E
0FE0
0FE0
0FE0
0FE0
ENDCHAR
STARTCHAR brevegrave
ENCODING -1
SWIDTH 382 0
DWIDTH 19 0
BBX 15 15 2 26
BITMAP
0F00
0F00
0F00
0F00
01E0
01E0
01E0
F1FE
F01E
F01E
F01E
0FE0
0FE0
0FE0
0FE0
ENDCHAR
ENDFONT
